<?xml version="1.0" encoding="UTF-8"?>
<svg width="197px" height="82px" viewBox="0 0 197 82" version="1.1" xmlns="http://www.w3.org/2000/svg" xmlns:xlink="http://www.w3.org/1999/xlink">
    <title>add-organisation</title>
    <g id="add-organisation" stroke="none" stroke-width="1" fill="none" fill-rule="evenodd">
        <g id="Group-27" transform="translate(1.000000, 1.000000)">
            <path d="M181.065564,-0.965043796 C181.616657,-0.928774575 182.034004,-0.452623788 181.997734,0.0984687527 C181.961465,0.649561293 181.485314,1.06690805 180.934222,1.03063883 C180.624329,1.01024377 180.312817,1 180,1 C179.447715,1 179,0.55228475 179,0 C179,-0.55228475 179.447715,-1 180,-1 C180.356642,-1 180.711959,-0.988315763 181.065564,-0.965043796 Z M189.055563,1.80751313 C189.510637,2.12044467 189.625866,2.74303613 189.312934,3.19811007 C189.000003,3.65318402 188.377411,3.7684132 187.922337,3.45548166 C187.665879,3.27912784 187.403631,3.11135856 187.13603,2.95248527 C186.661133,2.67054252 186.504713,2.05700305 186.786656,1.5821065 C187.068599,1.10720995 187.682138,0.950789985 188.157035,1.23273273 C188.462857,1.41429741 188.762531,1.60600969 189.055563,1.80751313 Z M194.517136,8.26443628 C194.749884,8.76528254 194.532547,9.3599779 194.031701,9.59272555 C193.530854,9.8254732 192.936159,9.60813633 192.703411,9.10729007 C192.572263,8.8250746 192.431715,8.54738279 192.282031,8.27464694 C192.016311,7.79048616 192.193393,7.18258818 192.677554,6.91686881 C193.161715,6.65114943 193.769613,6.82823117 194.035332,7.31239195 C194.206464,7.62420737 194.367167,7.9417205 194.517136,8.26443628 Z M196,16.5862719 C196,17.1385566 195.552285,17.5862719 195,17.5862719 C194.447715,17.5862719 194,17.1385566 194,16.5862719 L194,15.5862719 C194,15.0339871 194.447715,14.5862719 195,14.5862719 C195.552285,14.5862719 196,15.0339871 196,15.5862719 L196,16.5862719 Z M196,24.5862719 C196,25.1385566 195.552285,25.5862719 195,25.5862719 C194.447715,25.5862719 194,25.1385566 194,24.5862719 L194,23.5862719 C194,23.0339871 194.447715,22.5862719 195,22.5862719 C195.552285,22.5862719 196,23.0339871 196,23.5862719 L196,24.5862719 Z M196,32.5862719 C196,33.1385566 195.552285,33.5862719 195,33.5862719 C194.447715,33.5862719 194,33.1385566 194,32.5862719 L194,31.5862719 C194,31.0339871 194.447715,30.5862719 195,30.5862719 C195.552285,30.5862719 196,31.0339871 196,31.5862719 L196,32.5862719 Z M196,40.5862719 C196,41.1385566 195.552285,41.5862719 195,41.5862719 C194.447715,41.5862719 194,41.1385566 194,40.5862719 L194,39.5862719 C194,39.0339871 194.447715,38.5862719 195,38.5862719 C195.552285,38.5862719 196,39.0339871 196,39.5862719 L196,40.5862719 Z M196,48.5862719 C196,49.1385566 195.552285,49.5862719 195,49.5862719 C194.447715,49.5862719 194,49.1385566 194,48.5862719 L194,47.5862719 C194,47.0339871 194.447715,46.5862719 195,46.5862719 C195.552285,46.5862719 196,47.0339871 196,47.5862719 L196,48.5862719 Z M196,56.5862719 C196,57.1385566 195.552285,57.5862719 195,57.5862719 C194.447715,57.5862719 194,57.1385566 194,56.5862719 L194,55.5862719 C194,55.0339871 194.447715,54.5862719 195,54.5862719 C195.552285,54.5862719 196,55.0339871 196,55.5862719 L196,56.5862719 Z M196,64.5862719 C196,65.1385566 195.552285,65.5862719 195,65.5862719 C194.447715,65.5862719 194,65.1385566 194,64.5862719 L194,63.5862719 C194,63.0339871 194.447715,62.5862719 195,62.5862719 C195.552285,62.5862719 196,63.0339871 196,63.5862719 L196,64.5862719 Z M193.9711,72.8035016 C193.701373,73.2854414 193.092027,73.4574739 192.610087,73.1877471 C192.128148,72.9180203 191.956115,72.3086741 192.225842,71.8267344 C192.377751,71.555308 192.52057,71.2788594 192.654032,70.997821 C192.890947,70.4989327 193.487434,70.2865617 193.986322,70.5234771 C194.48521,70.7603925 194.697581,71.3568793 194.460666,71.8557676 C194.308059,72.1771224 194.144767,72.4931987 193.9711,72.8035016 Z M187.980135,78.8707638 C187.501663,79.1465956 186.890179,78.9823235 186.614347,78.5038517 C186.338516,78.0253799 186.502788,77.413896 186.98126,77.1380642 C187.250841,76.9826543 187.515176,76.8182804 187.773828,76.6452481 C188.232867,76.3381622 188.853934,76.4613444 189.16102,76.9203833 C189.468106,77.3794222 189.344924,78.000489 188.885885,78.3075749 C188.590325,78.5052974 188.288244,78.6931437 187.980135,78.8707638 Z M179.8275,81 C179.275215,81.0000241 178.827456,80.5523284 178.827456,80.0000436 C178.827456,79.4477589 179.275128,79.0000241 179.827413,79 L180.014839,78.9999923 C180.273409,78.9997245 180.531087,78.9924569 180.787697,78.978241 C181.339136,78.947692 181.81093,79.3699569 181.841479,79.9213961 C181.872028,80.4728353 181.449764,80.94463 180.898324,80.975179 C180.605569,80.9913973 180.311692,80.9996859 180.015919,81 L179.8275,81 Z M171.827456,81 C171.275172,81 170.827456,80.5522847 170.827456,80 C170.827456,79.4477153 171.275172,79 171.827456,79 L172.827456,79 C173.379741,79 173.827456,79.4477153 173.827456,80 C173.827456,80.5522847 173.379741,81 172.827456,81 L171.827456,81 Z M163.827456,81 C163.275172,81 162.827456,80.5522847 162.827456,80 C162.827456,79.4477153 163.275172,79 163.827456,79 L164.827456,79 C165.379741,79 165.827456,79.4477153 165.827456,80 C165.827456,80.5522847 165.379741,81 164.827456,81 L163.827456,81 Z M155.827456,81 C155.275172,81 154.827456,80.5522847 154.827456,80 C154.827456,79.4477153 155.275172,79 155.827456,79 L156.827456,79 C157.379741,79 157.827456,79.4477153 157.827456,80 C157.827456,80.5522847 157.379741,81 156.827456,81 L155.827456,81 Z M147.827456,81 C147.275172,81 146.827456,80.5522847 146.827456,80 C146.827456,79.4477153 147.275172,79 147.827456,79 L148.827456,79 C149.379741,79 149.827456,79.4477153 149.827456,80 C149.827456,80.5522847 149.379741,81 148.827456,81 L147.827456,81 Z M139.827456,81 C139.275172,81 138.827456,80.5522847 138.827456,80 C138.827456,79.4477153 139.275172,79 139.827456,79 L140.827456,79 C141.379741,79 141.827456,79.4477153 141.827456,80 C141.827456,80.5522847 141.379741,81 140.827456,81 L139.827456,81 Z M131.827456,81 C131.275172,81 130.827456,80.5522847 130.827456,80 C130.827456,79.4477153 131.275172,79 131.827456,79 L132.827456,79 C133.379741,79 133.827456,79.4477153 133.827456,80 C133.827456,80.5522847 133.379741,81 132.827456,81 L131.827456,81 Z M123.827456,81 C123.275172,81 122.827456,80.5522847 122.827456,80 C122.827456,79.4477153 123.275172,79 123.827456,79 L124.827456,79 C125.379741,79 125.827456,79.4477153 125.827456,80 C125.827456,80.5522847 125.379741,81 124.827456,81 L123.827456,81 Z M115.827456,81 C115.275172,81 114.827456,80.5522847 114.827456,80 C114.827456,79.4477153 115.275172,79 115.827456,79 L116.827456,79 C117.379741,79 117.827456,79.4477153 117.827456,80 C117.827456,80.5522847 117.379741,81 116.827456,81 L115.827456,81 Z M107.827456,81 C107.275172,81 106.827456,80.5522847 106.827456,80 C106.827456,79.4477153 107.275172,79 107.827456,79 L108.827456,79 C109.379741,79 109.827456,79.4477153 109.827456,80 C109.827456,80.5522847 109.379741,81 108.827456,81 L107.827456,81 Z M99.8274563,81 C99.2751715,81 98.8274563,80.5522847 98.8274563,80 C98.8274563,79.4477153 99.2751715,79 99.8274563,79 L100.827456,79 C101.379741,79 101.827456,79.4477153 101.827456,80 C101.827456,80.5522847 101.379741,81 100.827456,81 L99.8274563,81 Z M91.8274563,81 C91.2751715,81 90.8274563,80.5522847 90.8274563,80 C90.8274563,79.4477153 91.2751715,79 91.8274563,79 L92.8274563,79 C93.379741,79 93.8274563,79.4477153 93.8274563,80 C93.8274563,80.5522847 93.379741,81 92.8274563,81 L91.8274563,81 Z M83.8274563,81 C83.2751715,81 82.8274563,80.5522847 82.8274563,80 C82.8274563,79.4477153 83.2751715,79 83.8274563,79 L84.8274563,79 C85.379741,79 85.8274563,79.4477153 85.8274563,80 C85.8274563,80.5522847 85.379741,81 84.8274563,81 L83.8274563,81 Z M75.8274563,81 C75.2751715,81 74.8274563,80.5522847 74.8274563,80 C74.8274563,79.4477153 75.2751715,79 75.8274563,79 L76.8274563,79 C77.379741,79 77.8274563,79.4477153 77.8274563,80 C77.8274563,80.5522847 77.379741,81 76.8274563,81 L75.8274563,81 Z M67.8274563,81 C67.2751715,81 66.8274563,80.5522847 66.8274563,80 C66.8274563,79.4477153 67.2751715,79 67.8274563,79 L68.8274563,79 C69.379741,79 69.8274563,79.4477153 69.8274563,80 C69.8274563,80.5522847 69.379741,81 68.8274563,81 L67.8274563,81 Z M59.8274563,81 C59.2751715,81 58.8274563,80.5522847 58.8274563,80 C58.8274563,79.4477153 59.2751715,79 59.8274563,79 L60.8274563,79 C61.379741,79 61.8274563,79.4477153 61.8274563,80 C61.8274563,80.5522847 61.379741,81 60.8274563,81 L59.8274563,81 Z M51.8274563,81 C51.2751715,81 50.8274563,80.5522847 50.8274563,80 C50.8274563,79.4477153 51.2751715,79 51.8274563,79 L52.8274563,79 C53.379741,79 53.8274563,79.4477153 53.8274563,80 C53.8274563,80.5522847 53.379741,81 52.8274563,81 L51.8274563,81 Z M43.8274563,81 C43.2751715,81 42.8274563,80.5522847 42.8274563,80 C42.8274563,79.4477153 43.2751715,79 43.8274563,79 L44.8274563,79 C45.379741,79 45.8274563,79.4477153 45.8274563,80 C45.8274563,80.5522847 45.379741,81 44.8274563,81 L43.8274563,81 Z M35.8274563,81 C35.2751715,81 34.8274563,80.5522847 34.8274563,80 C34.8274563,79.4477153 35.2751715,79 35.8274563,79 L36.8274563,79 C37.379741,79 37.8274563,79.4477153 37.8274563,80 C37.8274563,80.5522847 37.379741,81 36.8274563,81 L35.8274563,81 Z M27.8274563,81 C27.2751715,81 26.8274563,80.5522847 26.8274563,80 C26.8274563,79.4477153 27.2751715,79 27.8274563,79 L28.8274563,79 C29.379741,79 29.8274563,79.4477153 29.8274563,80 C29.8274563,80.5522847 29.379741,81 28.8274563,81 L27.8274563,81 Z M19.8274563,81 C19.2751715,81 18.8274563,80.5522847 18.8274563,80 C18.8274563,79.4477153 19.2751715,79 19.8274563,79 L20.8274563,79 C21.379741,79 21.8274563,79.4477153 21.8274563,80 C21.8274563,80.5522847 21.379741,81 20.8274563,81 L19.8274563,81 Z M11.640104,80.6464184 C11.1000215,80.5309657 10.755791,79.9995494 10.8712437,79.4594669 C10.9866965,78.9193844 11.5181128,78.5751539 12.0581953,78.6906067 C12.3616638,78.7554787 12.6677602,78.8102948 12.9761192,78.8549164 C13.5227108,78.934012 13.9016912,79.4412316 13.8225956,79.9878232 C13.7435001,80.5344147 13.2362805,80.9133951 12.6896889,80.8342996 C12.3371603,80.7832863 11.9871528,80.7206066 11.640104,80.6464184 Z M4.1163583,76.7281039 C3.71161296,76.3523385 3.68812008,75.7196095 4.0638855,75.3148642 C4.43965092,74.9101188 5.07237991,74.886626 5.47712526,75.2623914 C5.70527395,75.4742045 5.94038208,75.6784018 6.18203546,75.8746111 C6.6107878,76.2227344 6.6761505,76.8525166 6.32802714,77.281269 C5.97990378,77.7100213 5.35012158,77.775384 4.92136925,77.4272606 C4.64538858,77.2031795 4.37689569,76.9699867 4.1163583,76.7281039 Z M-0.344476106,69.5467298 C-0.501172376,69.0171406 -0.198882928,68.4607963 0.330706275,68.3041 C0.860295478,68.1474037 1.41663978,68.4496932 1.57333605,68.9792824 C1.66167051,69.2778279 1.75993953,69.5730325 1.86794609,69.8644877 C2.05985655,70.3823572 1.79561453,70.9577476 1.27774503,71.149658 C0.759875526,71.3415685 0.184485183,71.0773265 -0.00742527371,70.559457 C-0.130988296,70.2260227 -0.243414961,69.8882879 -0.344476106,69.5467298 Z M-1,61.2411844 C-1,60.6888997 -0.55228475,60.2411844 0,60.2411844 C0.55228475,60.2411844 1,60.6888997 1,61.2411844 L1,62.2411844 C1,62.7934692 0.55228475,63.2411844 0,63.2411844 C-0.55228475,63.2411844 -1,62.7934692 -1,62.2411844 L-1,61.2411844 Z M-1,53.2411844 C-1,52.6888997 -0.55228475,52.2411844 0,52.2411844 C0.55228475,52.2411844 1,52.6888997 1,53.2411844 L1,54.2411844 C1,54.7934692 0.55228475,55.2411844 0,55.2411844 C-0.55228475,55.2411844 -1,54.7934692 -1,54.2411844 L-1,53.2411844 Z M-1,45.2411844 C-1,44.6888997 -0.55228475,44.2411844 0,44.2411844 C0.55228475,44.2411844 1,44.6888997 1,45.2411844 L1,46.2411844 C1,46.7934692 0.55228475,47.2411844 0,47.2411844 C-0.55228475,47.2411844 -1,46.7934692 -1,46.2411844 L-1,45.2411844 Z M-1,37.2411844 C-1,36.6888997 -0.55228475,36.2411844 0,36.2411844 C0.55228475,36.2411844 1,36.6888997 1,37.2411844 L1,38.2411844 C1,38.7934692 0.55228475,39.2411844 0,39.2411844 C-0.55228475,39.2411844 -1,38.7934692 -1,38.2411844 L-1,37.2411844 Z M-1,29.2411844 C-1,28.6888997 -0.55228475,28.2411844 0,28.2411844 C0.55228475,28.2411844 1,28.6888997 1,29.2411844 L1,30.2411844 C1,30.7934692 0.55228475,31.2411844 0,31.2411844 C-0.55228475,31.2411844 -1,30.7934692 -1,30.2411844 L-1,29.2411844 Z M-1,21.2411844 C-1,20.6888997 -0.55228475,20.2411844 0,20.2411844 C0.55228475,20.2411844 1,20.6888997 1,21.2411844 L1,22.2411844 C1,22.7934692 0.55228475,23.2411844 0,23.2411844 C-0.55228475,23.2411844 -1,22.7934692 -1,22.2411844 L-1,21.2411844 Z M-0.891596989,13.1283557 C-0.827638704,12.5797869 -0.331087352,12.1869324 0.217481498,12.2508907 C0.766050347,12.314849 1.15890483,12.8114003 1.09494655,13.3599692 C1.05899304,13.6683416 1.03318777,13.97867 1.01763767,14.2906225 C0.990141692,14.8422223 0.520691754,15.2670925 -0.0309081155,15.2395965 C-0.582507985,15.2121005 -1.00737814,14.7426506 -0.979882162,14.1910507 C-0.962131725,13.8349572 -0.932664493,13.4805908 -0.891596989,13.1283557 Z M2.28778805,5.28277327 C2.62348944,4.84422678 3.25114136,4.76085435 3.68968785,5.09655573 C4.12823434,5.43225712 4.21160677,6.05990904 3.87590538,6.49845553 C3.6867493,6.74556125 3.50585519,6.99886874 3.33355673,7.2579482 C3.02772205,7.71782165 2.40699296,7.84269474 1.94711951,7.53686006 C1.48724606,7.23102537 1.36237297,6.61029629 1.66820765,6.15042284 C1.86505872,5.85442443 2.0717123,5.56504575 2.28778805,5.28277327 Z M9.01310124,0.158023376 C9.52522186,-0.0487395606 10.1079921,0.198801755 10.3147551,0.710922378 C10.521518,1.223043 10.2739767,1.80581327 9.76185607,2.01257621 C9.47327915,2.12908589 9.18880725,2.25520955 8.90886696,2.39070652 C8.41175197,2.63132059 7.8137044,2.42338552 7.57309033,1.92627053 C7.33247626,1.42915554 7.54041133,0.831107971 8.03752632,0.590493897 C8.35767077,0.435537273 8.68302625,0.291287436 9.01310124,0.158023376 Z M17.3450874,-1 C17.8973722,-1 18.3450874,-0.55228475 18.3450874,0 C18.3450874,0.55228475 17.8973722,1 17.3450874,1 L16.3450874,1 C15.7928027,1 15.3450874,0.55228475 15.3450874,0 C15.3450874,-0.55228475 15.7928027,-1 16.3450874,-1 L17.3450874,-1 Z M25.3450874,-1 C25.8973722,-1 26.3450874,-0.55228475 26.3450874,0 C26.3450874,0.55228475 25.8973722,1 25.3450874,1 L24.3450874,1 C23.7928027,1 23.3450874,0.55228475 23.3450874,0 C23.3450874,-0.55228475 23.7928027,-1 24.3450874,-1 L25.3450874,-1 Z M33.3450874,-1 C33.8973722,-1 34.3450874,-0.55228475 34.3450874,0 C34.3450874,0.55228475 33.8973722,1 33.3450874,1 L32.3450874,1 C31.7928027,1 31.3450874,0.55228475 31.3450874,0 C31.3450874,-0.55228475 31.7928027,-1 32.3450874,-1 L33.3450874,-1 Z M41.3450874,-1 C41.8973722,-1 42.3450874,-0.55228475 42.3450874,0 C42.3450874,0.55228475 41.8973722,1 41.3450874,1 L40.3450874,1 C39.7928027,1 39.3450874,0.55228475 39.3450874,0 C39.3450874,-0.55228475 39.7928027,-1 40.3450874,-1 L41.3450874,-1 Z M49.3450874,-1 C49.8973722,-1 50.3450874,-0.55228475 50.3450874,0 C50.3450874,0.55228475 49.8973722,1 49.3450874,1 L48.3450874,1 C47.7928027,1 47.3450874,0.55228475 47.3450874,0 C47.3450874,-0.55228475 47.7928027,-1 48.3450874,-1 L49.3450874,-1 Z M57.3450874,-1 C57.8973722,-1 58.3450874,-0.55228475 58.3450874,0 C58.3450874,0.55228475 57.8973722,1 57.3450874,1 L56.3450874,1 C55.7928027,1 55.3450874,0.55228475 55.3450874,0 C55.3450874,-0.55228475 55.7928027,-1 56.3450874,-1 L57.3450874,-1 Z M65.3450874,-1 C65.8973722,-1 66.3450874,-0.55228475 66.3450874,0 C66.3450874,0.55228475 65.8973722,1 65.3450874,1 L64.3450874,1 C63.7928027,1 63.3450874,0.55228475 63.3450874,0 C63.3450874,-0.55228475 63.7928027,-1 64.3450874,-1 L65.3450874,-1 Z M73.3450874,-1 C73.8973722,-1 74.3450874,-0.55228475 74.3450874,0 C74.3450874,0.55228475 73.8973722,1 73.3450874,1 L72.3450874,1 C71.7928027,1 71.3450874,0.55228475 71.3450874,0 C71.3450874,-0.55228475 71.7928027,-1 72.3450874,-1 L73.3450874,-1 Z M81.3450874,-1 C81.8973722,-1 82.3450874,-0.55228475 82.3450874,0 C82.3450874,0.55228475 81.8973722,1 81.3450874,1 L80.3450874,1 C79.7928027,1 79.3450874,0.55228475 79.3450874,0 C79.3450874,-0.55228475 79.7928027,-1 80.3450874,-1 L81.3450874,-1 Z M89.3450874,-1 C89.8973722,-1 90.3450874,-0.55228475 90.3450874,0 C90.3450874,0.55228475 89.8973722,1 89.3450874,1 L88.3450874,1 C87.7928027,1 87.3450874,0.55228475 87.3450874,0 C87.3450874,-0.55228475 87.7928027,-1 88.3450874,-1 L89.3450874,-1 Z M97.3450874,-1 C97.8973722,-1 98.3450874,-0.55228475 98.3450874,0 C98.3450874,0.55228475 97.8973722,1 97.3450874,1 L96.3450874,1 C95.7928027,1 95.3450874,0.55228475 95.3450874,0 C95.3450874,-0.55228475 95.7928027,-1 96.3450874,-1 L97.3450874,-1 Z M105.345087,-1 C105.897372,-1 106.345087,-0.55228475 106.345087,0 C106.345087,0.55228475 105.897372,1 105.345087,1 L104.345087,1 C103.792803,1 103.345087,0.55228475 103.345087,0 C103.345087,-0.55228475 103.792803,-1 104.345087,-1 L105.345087,-1 Z M113.345087,-1 C113.897372,-1 114.345087,-0.55228475 114.345087,0 C114.345087,0.55228475 113.897372,1 113.345087,1 L112.345087,1 C111.792803,1 111.345087,0.55228475 111.345087,0 C111.345087,-0.55228475 111.792803,-1 112.345087,-1 L113.345087,-1 Z M121.345087,-1 C121.897372,-1 122.345087,-0.55228475 122.345087,0 C122.345087,0.55228475 121.897372,1 121.345087,1 L120.345087,1 C119.792803,1 119.345087,0.55228475 119.345087,0 C119.345087,-0.55228475 119.792803,-1 120.345087,-1 L121.345087,-1 Z M129.345087,-1 C129.897372,-1 130.345087,-0.55228475 130.345087,0 C130.345087,0.55228475 129.897372,1 129.345087,1 L128.345087,1 C127.792803,1 127.345087,0.55228475 127.345087,0 C127.345087,-0.55228475 127.792803,-1 128.345087,-1 L129.345087,-1 Z M137.345087,-1 C137.897372,-1 138.345087,-0.55228475 138.345087,0 C138.345087,0.55228475 137.897372,1 137.345087,1 L136.345087,1 C135.792803,1 135.345087,0.55228475 135.345087,0 C135.345087,-0.55228475 135.792803,-1 136.345087,-1 L137.345087,-1 Z M145.345087,-1 C145.897372,-1 146.345087,-0.55228475 146.345087,0 C146.345087,0.55228475 145.897372,1 145.345087,1 L144.345087,1 C143.792803,1 143.345087,0.55228475 143.345087,0 C143.345087,-0.55228475 143.792803,-1 144.345087,-1 L145.345087,-1 Z M153.345087,-1 C153.897372,-1 154.345087,-0.55228475 154.345087,0 C154.345087,0.55228475 153.897372,1 153.345087,1 L152.345087,1 C151.792803,1 151.345087,0.55228475 151.345087,0 C151.345087,-0.55228475 151.792803,-1 152.345087,-1 L153.345087,-1 Z M161.345087,-1 C161.897372,-1 162.345087,-0.55228475 162.345087,0 C162.345087,0.55228475 161.897372,1 161.345087,1 L160.345087,1 C159.792803,1 159.345087,0.55228475 159.345087,0 C159.345087,-0.55228475 159.792803,-1 160.345087,-1 L161.345087,-1 Z M169.345087,-1 C169.897372,-1 170.345087,-0.55228475 170.345087,0 C170.345087,0.55228475 169.897372,1 169.345087,1 L168.345087,1 C167.792803,1 167.345087,0.55228475 167.345087,0 C167.345087,-0.55228475 167.792803,-1 168.345087,-1 L169.345087,-1 Z M177.345087,-1 C177.897372,-1 178.345087,-0.55228475 178.345087,0 C178.345087,0.55228475 177.897372,1 177.345087,1 L176.345087,1 C175.792803,1 175.345087,0.55228475 175.345087,0 C175.345087,-0.55228475 175.792803,-1 176.345087,-1 L177.345087,-1 Z" id="Rectangle" fill="#14BA5A" fill-rule="nonzero" opacity="0.5"></path>
            <path d="M78.4462891,36 L79.2226562,33.4511719 L83.1264648,33.4511719 L83.902832,36 L86.3491211,36 L82.5551758,25.2480469 L79.7792969,25.2480469 L76,36 L78.4462891,36 Z M82.5844727,31.546875 L79.7939453,31.546875 C80.5556641,29.0810547 81.0170898,27.5356445 81.1782227,26.9106445 C81.2172852,27.0864258 81.2819824,27.3256836 81.3723145,27.628418 C81.4626465,27.9311523 81.8666992,29.2373047 82.5844727,31.546875 L82.5844727,31.546875 Z M90.1137695,36.1464844 C91.1538086,36.1464844 91.9277344,35.7436523 92.4355469,34.9379883 L92.4355469,34.9379883 L92.5307617,34.9379883 L92.9628906,36 L94.6767578,36 L94.6767578,24.6035156 L92.4355469,24.6035156 L92.4355469,27.2255859 C92.4355469,27.7041016 92.4916992,28.2485352 92.6040039,28.8588867 L92.6040039,28.8588867 L92.5307617,28.8588867 C91.9887695,28.0581055 91.2026367,27.6577148 90.1723633,27.6577148 C89.190918,27.6577148 88.4206543,28.0324707 87.8615723,28.7819824 C87.3024902,29.5314941 87.0229492,30.5776367 87.0229492,31.9204102 C87.0229492,33.2436523 87.2976074,34.2788086 87.8469238,35.0258789 C88.3962402,35.7729492 89.1518555,36.1464844 90.1137695,36.1464844 Z M90.8974609,34.3666992 C90.3798828,34.3666992 89.9819336,34.1652832 89.7036133,33.7624512 C89.425293,33.3596191 89.2861328,32.7553711 89.2861328,31.949707 C89.2861328,31.144043 89.4240723,30.5300293 89.6999512,30.107666 C89.9758301,29.6853027 90.362793,29.4741211 90.8608398,29.4741211 C91.4711914,29.4741211 91.9118652,29.6645508 92.1828613,30.0454102 C92.4538574,30.4262695 92.5893555,31.0561523 92.5893555,31.9350586 L92.5893555,31.9350586 L92.5893555,32.1767578 C92.5649414,32.9726562 92.4196777,33.5366211 92.1535645,33.8686523 C91.8874512,34.2006836 91.46875,34.3666992 90.8974609,34.3666992 Z M99.605957,36.1464844 C100.645996,36.1464844 101.419922,35.7436523 101.927734,34.9379883 L101.927734,34.9379883 L102.022949,34.9379883 L102.455078,36 L104.168945,36 L104.168945,24.6035156 L101.927734,24.6035156 L101.927734,27.2255859 C101.927734,27.7041016 101.983887,28.2485352 102.096191,28.8588867 L102.096191,28.8588867 L102.022949,28.8588867 C101.480957,28.0581055 100.694824,27.6577148 99.6645508,27.6577148 C98.6831055,27.6577148 97.9128418,28.0324707 97.3537598,28.7819824 C96.7946777,29.5314941 96.5151367,30.5776367 96.5151367,31.9204102 C96.5151367,33.2436523 96.7897949,34.2788086 97.3391113,35.0258789 C97.8884277,35.7729492 98.644043,36.1464844 99.605957,36.1464844 Z M100.389648,34.3666992 C99.8720703,34.3666992 99.4741211,34.1652832 99.1958008,33.7624512 C98.9174805,33.3596191 98.7783203,32.7553711 98.7783203,31.949707 C98.7783203,31.144043 98.9162598,30.5300293 99.1921387,30.107666 C99.4680176,29.6853027 99.8549805,29.4741211 100.353027,29.4741211 C100.963379,29.4741211 101.404053,29.6645508 101.675049,30.0454102 C101.946045,30.4262695 102.081543,31.0561523 102.081543,31.9350586 L102.081543,31.9350586 L102.081543,32.1767578 C102.057129,32.9726562 101.911865,33.5366211 101.645752,33.8686523 C101.379639,34.2006836 100.960938,34.3666992 100.389648,34.3666992 Z M110.87793,39.6035156 C111.664062,39.6035156 112.351318,39.3911133 112.939697,38.9663086 C113.528076,38.5415039 113.980957,37.9018555 114.29834,37.0473633 L114.29834,37.0473633 L117.762695,27.8115234 L115.367676,27.8115234 L113.851562,32.418457 C113.695312,32.862793 113.590332,33.3364258 113.536621,33.8393555 L113.536621,33.8393555 L113.492676,33.8393555 C113.443848,33.2924805 113.353516,32.8188477 113.22168,32.418457 L113.22168,32.418457 L111.67627,27.8115234 L109.22998,27.8115234 L112.481934,35.9414062 L112.350098,36.3442383 C112.184082,36.8325195 111.953369,37.1975098 111.657959,37.439209 C111.362549,37.6809082 111.01709,37.8017578 110.621582,37.8017578 C110.304199,37.8017578 110.01123,37.7700195 109.742676,37.706543 L109.742676,37.706543 L109.742676,39.4790039 C110.11377,39.5620117 110.492188,39.6035156 110.87793,39.6035156 Z M122.384277,36.1464844 C123.63916,36.1464844 124.618164,35.7705078 125.321289,35.0185547 C126.024414,34.2666016 126.375977,33.2241211 126.375977,31.8911133 C126.375977,31.0317383 126.214844,30.2822266 125.892578,29.6425781 C125.570312,29.0029297 125.108887,28.512207 124.508301,28.1704102 C123.907715,27.8286133 123.214355,27.6577148 122.428223,27.6577148 C121.163574,27.6577148 120.182129,28.0288086 119.483887,28.7709961 C118.785645,29.5131836 118.436523,30.5532227 118.436523,31.8911133 C118.436523,32.7504883 118.597656,33.5024414 118.919922,34.1469727 C119.242188,34.7915039 119.703613,35.2858887 120.304199,35.630127 C120.904785,35.9743652 121.598145,36.1464844 122.384277,36.1464844 Z M122.413574,34.3520508 C121.812988,34.3520508 121.379639,34.1445312 121.113525,33.7294922 C120.847412,33.3144531 120.714355,32.7016602 120.714355,31.8911133 C120.714355,31.0756836 120.846191,30.4665527 121.109863,30.0637207 C121.373535,29.6608887 121.803223,29.4594727 122.398926,29.4594727 C122.999512,29.4594727 123.431641,29.6621094 123.695312,30.0673828 C123.958984,30.4726562 124.09082,31.0805664 124.09082,31.8911133 C124.09082,32.706543 123.960205,33.3205566 123.698975,33.7331543 C123.437744,34.145752 123.009277,34.3520508 122.413574,34.3520508 Z M131.085449,36.1464844 C131.646973,36.1464844 132.147461,36.0427246 132.586914,35.8352051 C133.026367,35.6276855 133.365723,35.3334961 133.60498,34.9526367 L133.60498,34.9526367 L133.722168,34.9526367 L134.022461,36 L135.736328,36 L135.736328,27.8115234 L133.502441,27.8115234 L133.502441,31.6640625 C133.502441,32.6308594 133.363281,33.322998 133.084961,33.7404785 C132.806641,34.157959 132.35498,34.3666992 131.72998,34.3666992 C131.270996,34.3666992 130.936523,34.2189941 130.726562,33.923584 C130.516602,33.6281738 130.411621,33.1850586 130.411621,32.5942383 L130.411621,32.5942383 L130.411621,27.8115234 L128.177734,27.8115234 L128.177734,33.1508789 C128.177734,34.1176758 128.421875,34.8586426 128.910156,35.3737793 C129.398438,35.888916 130.123535,36.1464844 131.085449,36.1464844 Z M140.313965,36 L140.313965,31.8325195 C140.313965,31.1733398 140.512939,30.6606445 140.910889,30.2944336 C141.308838,29.9282227 141.864258,29.7451172 142.577148,29.7451172 C142.835938,29.7451172 143.055664,29.7695312 143.236328,29.8183594 L143.236328,29.8183594 L143.404785,27.7236328 C143.20459,27.6796875 142.953125,27.6577148 142.650391,27.6577148 C142.142578,27.6577148 141.672607,27.7980957 141.240479,28.0788574 C140.80835,28.3596191 140.465332,28.7294922 140.211426,29.1884766 L140.211426,29.1884766 L140.101562,29.1884766 L139.771973,27.8115234 L138.080078,27.8115234 L138.080078,36 L140.313965,36 Z M80.621582,56.1464844 C81.8764648,56.1464844 82.8554688,55.7705078 83.5585938,55.0185547 C84.2617188,54.2666016 84.6132812,53.2241211 84.6132812,51.8911133 C84.6132812,51.0317383 84.4521484,50.2822266 84.1298828,49.6425781 C83.8076172,49.0029297 83.3461914,48.512207 82.7456055,48.1704102 C82.1450195,47.8286133 81.4516602,47.6577148 80.6655273,47.6577148 C79.4008789,47.6577148 78.4194336,48.0288086 77.7211914,48.7709961 C77.0229492,49.5131836 76.6738281,50.5532227 76.6738281,51.8911133 C76.6738281,52.7504883 76.8349609,53.5024414 77.1572266,54.1469727 C77.4794922,54.7915039 77.940918,55.2858887 78.5415039,55.630127 C79.1420898,55.9743652 79.8354492,56.1464844 80.621582,56.1464844 Z M80.6508789,54.3520508 C80.050293,54.3520508 79.6169434,54.1445312 79.3508301,53.7294922 C79.0847168,53.3144531 78.9516602,52.7016602 78.9516602,51.8911133 C78.9516602,51.0756836 79.0834961,50.4665527 79.347168,50.0637207 C79.6108398,49.6608887 80.0405273,49.4594727 80.6362305,49.4594727 C81.2368164,49.4594727 81.6689453,49.6621094 81.9326172,50.0673828 C82.1962891,50.4726562 82.328125,51.0805664 82.328125,51.8911133 C82.328125,52.706543 82.1975098,53.3205566 81.9362793,53.7331543 C81.6750488,54.145752 81.246582,54.3520508 80.6508789,54.3520508 Z M88.6928711,56 L88.6928711,51.8325195 C88.6928711,51.1733398 88.8918457,50.6606445 89.2897949,50.2944336 C89.6877441,49.9282227 90.2431641,49.7451172 90.9560547,49.7451172 C91.2148438,49.7451172 91.4345703,49.7695312 91.6152344,49.8183594 L91.6152344,49.8183594 L91.7836914,47.7236328 C91.5834961,47.6796875 91.3320312,47.6577148 91.0292969,47.6577148 C90.5214844,47.6577148 90.0515137,47.7980957 89.6193848,48.0788574 C89.1872559,48.3596191 88.8442383,48.7294922 88.590332,49.1884766 L88.590332,49.1884766 L88.4804688,49.1884766 L88.1508789,47.8115234 L86.4589844,47.8115234 L86.4589844,56 L88.6928711,56 Z M95.6655273,59.6035156 C97.159668,59.6035156 98.3059082,59.3398438 99.104248,58.8125 C99.9025879,58.2851562 100.301758,57.5429688 100.301758,56.5859375 C100.301758,55.8388672 100.066162,55.2724609 99.5949707,54.8867188 C99.1237793,54.5009766 98.4389648,54.3081055 97.5405273,54.3081055 L97.5405273,54.3081055 L96.1489258,54.3081055 C95.3286133,54.3081055 94.918457,54.1469727 94.918457,53.824707 C94.918457,53.6098633 95.0332031,53.4145508 95.2626953,53.2387695 L95.2626953,53.2387695 L95.5922852,53.2753906 L95.9951172,53.2973633 C97.0839844,53.2973633 97.9348145,53.052002 98.5476074,52.5612793 C99.1604004,52.0705566 99.4667969,51.3857422 99.4667969,50.5068359 C99.4667969,50.0527344 99.3496094,49.6425781 99.1152344,49.2763672 L99.1152344,49.2763672 L100.396973,48.9467773 L100.396973,47.8115234 L97.5405273,47.8115234 C97.4526367,47.7919922 97.2512207,47.7614746 96.9362793,47.7199707 C96.6213379,47.6784668 96.3491211,47.6577148 96.1196289,47.6577148 C95.0405273,47.6577148 94.2104492,47.9018555 93.6293945,48.3901367 C93.0483398,48.878418 92.7578125,49.5693359 92.7578125,50.4628906 C92.7578125,51.0195312 92.8835449,51.5029297 93.1350098,51.9130859 C93.3864746,52.3232422 93.7270508,52.6210938 94.1567383,52.8066406 C93.8149414,53.0068359 93.5537109,53.2106934 93.3730469,53.4182129 C93.1923828,53.6257324 93.1020508,53.8857422 93.1020508,54.1982422 C93.1020508,54.4472656 93.1875,54.6828613 93.3583984,54.9050293 C93.5292969,55.1271973 93.7294922,55.2871094 93.9589844,55.3847656 C93.3632812,55.5263672 92.9116211,55.7631836 92.6040039,56.0952148 C92.2963867,56.4272461 92.1425781,56.8398438 92.1425781,57.3330078 C92.1425781,58.0507812 92.4440918,58.6086426 93.0471191,59.0065918 C93.6501465,59.404541 94.5229492,59.6035156 95.6655273,59.6035156 Z M96.1196289,51.9350586 C95.7045898,51.9350586 95.395752,51.8056641 95.1931152,51.546875 C94.9904785,51.2880859 94.8891602,50.9365234 94.8891602,50.4921875 C94.8891602,49.5058594 95.2993164,49.0126953 96.1196289,49.0126953 C96.9301758,49.0126953 97.3354492,49.5058594 97.3354492,50.4921875 C97.3354492,50.9365234 97.237793,51.2880859 97.0424805,51.546875 C96.847168,51.8056641 96.5395508,51.9350586 96.1196289,51.9350586 Z M95.7607422,58.1459961 C95.2285156,58.1459961 94.8146973,58.0581055 94.5192871,57.8823242 C94.223877,57.706543 94.0761719,57.4648438 94.0761719,57.1572266 C94.0761719,56.8398438 94.2141113,56.5847168 94.4899902,56.3918457 C94.7658691,56.1989746 95.1088867,56.1025391 95.519043,56.1025391 L95.519043,56.1025391 L96.6762695,56.1025391 C97.237793,56.1025391 97.652832,56.1611328 97.9213867,56.2783203 C98.1899414,56.3955078 98.3242188,56.6079102 98.3242188,56.9155273 C98.3242188,57.2963867 98.097168,57.5966797 97.6430664,57.8164062 C97.1889648,58.0361328 96.5615234,58.1459961 95.7607422,58.1459961 Z M103.736816,56.1464844 C104.376465,56.1464844 104.895264,56.0549316 105.293213,55.8718262 C105.691162,55.6887207 106.078125,55.3603516 106.454102,54.8867188 L106.454102,54.8867188 L106.512695,54.8867188 L106.944824,56 L108.504883,56 L108.504883,50.543457 C108.504883,49.5668945 108.211914,48.8393555 107.625977,48.3608398 C107.040039,47.8823242 106.197754,47.6430664 105.099121,47.6430664 C103.95166,47.6430664 102.906738,47.8896484 101.964355,48.3828125 L101.964355,48.3828125 L102.704102,49.8916016 C103.587891,49.4960938 104.356934,49.2983398 105.01123,49.2983398 C105.86084,49.2983398 106.285645,49.7133789 106.285645,50.543457 L106.285645,50.543457 L106.285645,50.9023438 L104.864746,50.9462891 C103.63916,50.9902344 102.722412,51.2185059 102.114502,51.6311035 C101.506592,52.0437012 101.202637,52.6845703 101.202637,53.5537109 C101.202637,54.3837891 101.428467,55.0234375 101.880127,55.4726562 C102.331787,55.921875 102.950684,56.1464844 103.736816,56.1464844 Z M104.579102,54.5131836 C103.856445,54.5131836 103.495117,54.1982422 103.495117,53.5683594 C103.495117,53.1289062 103.653809,52.8017578 103.971191,52.5869141 C104.288574,52.3720703 104.771973,52.2548828 105.421387,52.2353516 L105.421387,52.2353516 L106.285645,52.2060547 L106.285645,52.8798828 C106.285645,53.3730469 106.130615,53.7685547 105.820557,54.0664062 C105.510498,54.3642578 105.09668,54.5131836 104.579102,54.5131836 Z M113.038574,56 L113.038574,52.1474609 C113.038574,51.1806641 113.177734,50.4885254 113.456055,50.0710449 C113.734375,49.6535645 114.186035,49.4448242 114.811035,49.4448242 C115.27002,49.4448242 115.604492,49.5925293 115.814453,49.8879395 C116.024414,50.1833496 116.129395,50.6264648 116.129395,51.2172852 L116.129395,51.2172852 L116.129395,56 L118.363281,56 L118.363281,50.6606445 C118.363281,49.6889648 118.116699,48.9455566 117.623535,48.4304199 C117.130371,47.9152832 116.407715,47.6577148 115.455566,47.6577148 C114.898926,47.6577148 114.4021,47.7590332 113.965088,47.9616699 C113.528076,48.1643066 113.185059,48.4633789 112.936035,48.8588867 L112.936035,48.8588867 L112.811523,48.8588867 L112.51123,47.8115234 L110.804688,47.8115234 L110.804688,56 L113.038574,56 Z M121.783691,46.793457 C122.188965,46.793457 122.49292,46.6970215 122.695557,46.5041504 C122.898193,46.3112793 122.999512,46.0415039 122.999512,45.6948242 C122.999512,44.9672852 122.594238,44.6035156 121.783691,44.6035156 C120.973145,44.6035156 120.567871,44.9672852 120.567871,45.6948242 C120.567871,46.4272461 120.973145,46.793457 121.783691,46.793457 Z M122.896973,56 L122.896973,47.8115234 L120.663086,47.8115234 L120.663086,56 L122.896973,56 Z M127.459961,56.1464844 C128.62207,56.1464844 129.494873,55.9267578 130.078369,55.4873047 C130.661865,55.0478516 130.953613,54.4082031 130.953613,53.5683594 C130.953613,53.1630859 130.882812,52.8139648 130.741211,52.5209961 C130.599609,52.2280273 130.379883,51.9692383 130.082031,51.7446289 C129.78418,51.5200195 129.31543,51.2783203 128.675781,51.0195312 C127.958008,50.7314453 127.49292,50.5141602 127.280518,50.3676758 C127.068115,50.2211914 126.961914,50.0478516 126.961914,49.8476562 C126.961914,49.4912109 127.291504,49.3129883 127.950684,49.3129883 C128.321777,49.3129883 128.685547,49.3691406 129.041992,49.4814453 C129.398438,49.59375 129.781738,49.737793 130.191895,49.9135742 L130.191895,49.9135742 L130.865723,48.3022461 C129.933105,47.8725586 128.973633,47.6577148 127.987305,47.6577148 C126.952148,47.6577148 126.152588,47.8566895 125.588623,48.2546387 C125.024658,48.6525879 124.742676,49.215332 124.742676,49.9428711 C124.742676,50.3676758 124.809814,50.7253418 124.944092,51.0158691 C125.078369,51.3063965 125.293213,51.5639648 125.588623,51.7885742 C125.884033,52.0131836 126.34668,52.2573242 126.976562,52.5209961 C127.416016,52.706543 127.767578,52.8688965 128.03125,53.0080566 C128.294922,53.1472168 128.480469,53.2717285 128.587891,53.3815918 C128.695312,53.4914551 128.749023,53.6342773 128.749023,53.8100586 C128.749023,54.2788086 128.34375,54.5131836 127.533203,54.5131836 C127.137695,54.5131836 126.679932,54.4472656 126.159912,54.3154297 C125.639893,54.1835938 125.172363,54.0200195 124.757324,53.824707 L124.757324,53.824707 L124.757324,55.6704102 C125.123535,55.8266602 125.516602,55.9450684 125.936523,56.0256348 C126.356445,56.1062012 126.864258,56.1464844 127.459961,56.1464844 Z M134.688965,56.1464844 C135.328613,56.1464844 135.847412,56.0549316 136.245361,55.8718262 C136.643311,55.6887207 137.030273,55.3603516 137.40625,54.8867188 L137.40625,54.8867188 L137.464844,54.8867188 L137.896973,56 L139.457031,56 L139.457031,50.543457 C139.457031,49.5668945 139.164062,48.8393555 138.578125,48.3608398 C137.992188,47.8823242 137.149902,47.6430664 136.05127,47.6430664 C134.903809,47.6430664 133.858887,47.8896484 132.916504,48.3828125 L132.916504,48.3828125 L133.65625,49.8916016 C134.540039,49.4960938 135.309082,49.2983398 135.963379,49.2983398 C136.812988,49.2983398 137.237793,49.7133789 137.237793,50.543457 L137.237793,50.543457 L137.237793,50.9023438 L135.816895,50.9462891 C134.591309,50.9902344 133.674561,51.2185059 133.06665,51.6311035 C132.45874,52.0437012 132.154785,52.6845703 132.154785,53.5537109 C132.154785,54.3837891 132.380615,55.0234375 132.832275,55.4726562 C133.283936,55.921875 133.902832,56.1464844 134.688965,56.1464844 Z M135.53125,54.5131836 C134.808594,54.5131836 134.447266,54.1982422 134.447266,53.5683594 C134.447266,53.1289062 134.605957,52.8017578 134.92334,52.5869141 C135.240723,52.3720703 135.724121,52.2548828 136.373535,52.2353516 L136.373535,52.2353516 L137.237793,52.2060547 L137.237793,52.8798828 C137.237793,53.3730469 137.082764,53.7685547 136.772705,54.0664062 C136.462646,54.3642578 136.048828,54.5131836 135.53125,54.5131836 Z M144.562012,56.1464844 C145.372559,56.1464844 146.056152,56.0219727 146.612793,55.7729492 L146.612793,55.7729492 L146.612793,54.1103516 C146.065918,54.28125 145.597168,54.3666992 145.206543,54.3666992 C144.913574,54.3666992 144.677979,54.2910156 144.499756,54.1396484 C144.321533,53.9882812 144.232422,53.7539062 144.232422,53.4365234 L144.232422,53.4365234 L144.232422,49.4887695 L146.524902,49.4887695 L146.524902,47.8115234 L144.232422,47.8115234 L144.232422,46.0683594 L142.804199,46.0683594 L142.159668,47.796875 L140.929199,48.5439453 L140.929199,49.4887695 L141.998535,49.4887695 L141.998535,53.4365234 C141.998535,54.3398438 142.202393,55.017334 142.610107,55.4689941 C143.017822,55.9206543 143.668457,56.1464844 144.562012,56.1464844 Z M149.388672,46.793457 C149.793945,46.793457 150.0979,46.6970215 150.300537,46.5041504 C150.503174,46.3112793 150.604492,46.0415039 150.604492,45.6948242 C150.604492,44.9672852 150.199219,44.6035156 149.388672,44.6035156 C148.578125,44.6035156 148.172852,44.9672852 148.172852,45.6948242 C148.172852,46.4272461 148.578125,46.793457 149.388672,46.793457 Z M150.501953,56 L150.501953,47.8115234 L148.268066,47.8115234 L148.268066,56 L150.501953,56 Z M156.29541,56.1464844 C157.550293,56.1464844 158.529297,55.7705078 159.232422,55.0185547 C159.935547,54.2666016 160.287109,53.2241211 160.287109,51.8911133 C160.287109,51.0317383 160.125977,50.2822266 159.803711,49.6425781 C159.481445,49.0029297 159.02002,48.512207 158.419434,48.1704102 C157.818848,47.8286133 157.125488,47.6577148 156.339355,47.6577148 C155.074707,47.6577148 154.093262,48.0288086 153.39502,48.7709961 C152.696777,49.5131836 152.347656,50.5532227 152.347656,51.8911133 C152.347656,52.7504883 152.508789,53.5024414 152.831055,54.1469727 C153.15332,54.7915039 153.614746,55.2858887 154.215332,55.630127 C154.815918,55.9743652 155.509277,56.1464844 156.29541,56.1464844 Z M156.324707,54.3520508 C155.724121,54.3520508 155.290771,54.1445312 155.024658,53.7294922 C154.758545,53.3144531 154.625488,52.7016602 154.625488,51.8911133 C154.625488,51.0756836 154.757324,50.4665527 155.020996,50.0637207 C155.284668,49.6608887 155.714355,49.4594727 156.310059,49.4594727 C156.910645,49.4594727 157.342773,49.6621094 157.606445,50.0673828 C157.870117,50.4726562 158.001953,51.0805664 158.001953,51.8911133 C158.001953,52.706543 157.871338,53.3205566 157.610107,53.7331543 C157.348877,54.145752 156.92041,54.3520508 156.324707,54.3520508 Z M164.366699,56 L164.366699,52.1474609 C164.366699,51.1806641 164.505859,50.4885254 164.78418,50.0710449 C165.0625,49.6535645 165.51416,49.4448242 166.13916,49.4448242 C166.598145,49.4448242 166.932617,49.5925293 167.142578,49.8879395 C167.352539,50.1833496 167.45752,50.6264648 167.45752,51.2172852 L167.45752,51.2172852 L167.45752,56 L169.691406,56 L169.691406,50.6606445 C169.691406,49.6889648 169.444824,48.9455566 168.95166,48.4304199 C168.458496,47.9152832 167.73584,47.6577148 166.783691,47.6577148 C166.227051,47.6577148 165.730225,47.7590332 165.293213,47.9616699 C164.856201,48.1643066 164.513184,48.4633789 164.26416,48.8588867 L164.26416,48.8588867 L164.139648,48.8588867 L163.839355,47.8115234 L162.132812,47.8115234 L162.132812,56 L164.366699,56 Z" id="Addyourorganisation" fill="#14BA5A" fill-rule="nonzero"></path>
            <g id="a/back-to-top" transform="translate(22.000000, 20.000000)">
                <circle id="Oval" fill="#14BA5A" fill-rule="nonzero" opacity="0.1" cx="21" cy="21" r="21"></circle>
                <g id="a/icons/32/chevron/up" transform="translate(5.000000, 5.000000)">
                    <g id="Group" transform="translate(8.000000, 15.000000)"></g>
                    <line x1="16.5" y1="8.5" x2="16.5" y2="23.5" id="Line-3" stroke="#14BA5A" stroke-width="2" stroke-linecap="round" stroke-linejoin="round" fill-rule="nonzero"></line>
                    <line x1="16.5" y1="8.5" x2="16.5" y2="23.5" id="Line-3" stroke="#14BA5A" stroke-width="2" stroke-linecap="round" stroke-linejoin="round" fill-rule="nonzero" transform="translate(16.500000, 16.000000) rotate(-90.000000) translate(-16.500000, -16.000000) "></line>
                </g>
            </g>
        </g>
    </g>
</svg>