<?xml version="1.0" encoding="UTF-8"?>
<svg width="443px" height="266px" viewBox="0 0 443 266" version="1.1" xmlns="http://www.w3.org/2000/svg" xmlns:xlink="http://www.w3.org/1999/xlink">
    <title>cloud-native-computing</title>
    <defs>
        <rect id="path-1" x="0" y="0" width="442" height="43.186551"></rect>
        <rect id="path-3" x="0" y="0" width="378.9" height="97"></rect>
        <path d="M237.973366,0 L273.375829,34.7539058 L287.107,51.32 L311.901321,63.1549258 L318.809006,93.158762 L301.051,115.231 L301.051181,116.312308 L300.181,116.312 L299.454518,117.216811 L268.413543,117.216811 L267.686,116.312 L51.786,116.312 L50.3954633,118.041811 L19.3544877,118.041811 L0,93.983762 L6.90768487,63.9799258 L34.8738574,50.6296154 L47.277,56.55 L53.0297321,31.563772 L80.9959046,18.2134615 L108.964313,31.563772 L110.607,38.699 L138.019527,25.6130769 L157.25,34.793 L160.368315,21.2503104 L188.334487,7.9 L216.302896,21.2503104 L216.655,22.783 L237.973366,0 Z" id="path-5"></path>
        <polygon id="path-6" points="66.2117021 51.9920711 52.0410644 51.9920711 52.0410644 124.455983 66.2117021 124.455983"></polygon>
        <path d="M87.8071739,62.0071273 L87.8066616,116.028127 L106.428692,134.648621 L94.6296376,146.447676 L71.0588038,122.878278 L71.2196616,122.717127 L71.1213952,122.717923 L71.1206616,69.4241273 L64.0096616,62.0128696 L71.1206616,62.0221273 L71.1213952,62.0071273 L87.8071739,62.0071273 Z" id="path-7"></path>
        <path d="M173.13075,56.9795728 L188.960149,57.0005728 L188.966951,56.9950771 L188.972149,57.0005728 L188.995375,57.0011066 L188.984149,57.0125728 L200.840656,68.7180461 L123.118204,146.441934 L111.319149,134.642879 L180.892149,65.0685728 L173.13075,56.9795728 Z" id="path-8"></path>
        <polygon id="path-9" points="266.754108 30.4948348 263.333114 43.2758284 253.975986 33.9244421"></polygon>
    </defs>
    <g id="↳-Assets" stroke="none" stroke-width="1" fill="none" fill-rule="evenodd">
        <g id="Artboard" transform="translate(-53.000000, -37.000000)">
            <g id="cloud-native-computing" transform="translate(53.000000, 37.000000)">
                <g id="Rectangle" transform="translate(0.500000, 104.000000)">
                    <mask id="mask-2" fill="white">
                        <use xlink:href="#path-1"></use>
                    </mask>
                    <g id="Mask"></g>
                    <g mask="url(#mask-2)" fill="#14BA5A" fill-rule="nonzero" id="Combined-Shape">
                        <g transform="translate(-2.960954, 10.645987)">
                            <path d="M413.299556,0.334779482 L34.6353673,0.334779482 L0.399429768,34.7882249 L447.535494,34.7882249 L413.299556,0.334779482 Z M412.740259,1.67926763 L444.301766,33.4425483 L3.6321493,33.4425483 L35.1936559,1.67926763 L412.740259,1.67926763 Z"></path>
                        </g>
                    </g>
                </g>
                <polygon id="path30" fill="#006BB8" fill-rule="nonzero" points="442.8 147 0 147 0 266 442.8 266"></polygon>
                <path d="M93.6513672,244 C93.7734375,244 93.8613281,243.980469 93.9150391,243.941406 C93.96875,243.902344 94.0126953,243.821777 94.046875,243.699707 L94.046875,243.699707 L95.453125,238.645996 L97.0424805,243.685059 C97.0864258,243.807129 97.1376953,243.890137 97.1962891,243.934082 C97.2548828,243.978027 97.340332,244 97.4526367,244 L97.4526367,244 L97.9726562,244 C98.0654297,244 98.1325684,243.975586 98.1740723,243.926758 C98.2155762,243.87793 98.2436523,243.777832 98.2583008,243.626465 L98.2583008,243.626465 L99.2983398,236.302246 L99.3862305,236.302246 C99.5717773,236.302246 99.7109375,236.261963 99.8037109,236.181396 C99.8964844,236.10083 99.9428711,235.977539 99.9428711,235.811523 C99.9428711,235.669922 99.9013672,235.551514 99.8183594,235.456299 C99.7353516,235.361084 99.6401367,235.313477 99.5327148,235.313477 L99.5327148,235.313477 L97.1669922,235.313477 C96.8935547,235.313477 96.7067871,235.350098 96.6066895,235.42334 C96.5065918,235.496582 96.456543,235.625977 96.456543,235.811523 C96.456543,235.982422 96.5090332,236.106934 96.6140137,236.185059 C96.7189941,236.263184 96.8837891,236.302246 97.1083984,236.302246 L97.1083984,236.302246 L98.2583008,236.302246 L97.5405273,242.125 L96.1123047,237.71582 C96.0683594,237.583984 96.0158691,237.496094 95.954834,237.452148 C95.8937988,237.408203 95.7924805,237.38623 95.6508789,237.38623 L95.6508789,237.38623 L95.3212891,237.38623 C95.1748047,237.38623 95.0734863,237.406982 95.017334,237.448486 C94.9611816,237.48999 94.9111328,237.588867 94.8671875,237.745117 L94.8671875,237.745117 L93.6074219,242.125 L92.8164062,236.302246 L93.8491211,236.302246 C94.0688477,236.302246 94.2312012,236.263184 94.3361816,236.185059 C94.4411621,236.106934 94.4936523,235.982422 94.4936523,235.811523 C94.4936523,235.625977 94.4436035,235.496582 94.3435059,235.42334 C94.2434082,235.350098 94.059082,235.313477 93.7905273,235.313477 L93.7905273,235.313477 L91.4174805,235.313477 C91.3051758,235.313477 91.2099609,235.359863 91.1318359,235.452637 C91.0537109,235.54541 91.0146484,235.665039 91.0146484,235.811523 C91.0146484,235.972656 91.0622559,236.094727 91.1574707,236.177734 C91.2526855,236.260742 91.3955078,236.302246 91.5859375,236.302246 L91.5859375,236.302246 L91.6738281,236.302246 L92.7871094,243.611816 C92.8066406,243.777832 92.8395996,243.884033 92.8859863,243.93042 C92.932373,243.976807 93.0043945,244 93.1020508,244 L93.1020508,244 L93.6513672,244 Z M104.425293,244.183105 C104.937988,244.183105 105.454346,244.119629 105.974365,243.992676 C106.494385,243.865723 106.998535,243.682617 107.486816,243.443359 C107.711426,243.331055 107.875,243.216309 107.977539,243.099121 C108.080078,242.981934 108.131348,242.852539 108.131348,242.710938 C108.131348,242.574219 108.08252,242.459473 107.984863,242.366699 C107.887207,242.273926 107.765137,242.227539 107.618652,242.227539 C107.477051,242.227539 107.069336,242.380127 106.395508,242.685303 C105.72168,242.990479 105.099121,243.143066 104.527832,243.143066 C103.770996,243.143066 103.174072,242.951416 102.737061,242.568115 C102.300049,242.184814 102.062012,241.641602 102.022949,240.938477 L102.022949,240.938477 L107.054688,240.938477 C107.5625,240.938477 107.873779,240.89209 107.988525,240.799316 C108.103271,240.706543 108.160645,240.523438 108.160645,240.25 C108.160645,239.361328 107.821289,238.604492 107.142578,237.979492 C106.463867,237.354492 105.609375,237.041992 104.579102,237.041992 C103.441406,237.041992 102.518555,237.376465 101.810547,238.04541 C101.102539,238.714355 100.748535,239.588379 100.748535,240.66748 C100.748535,241.727051 101.083008,242.577881 101.751953,243.219971 C102.420898,243.862061 103.312012,244.183105 104.425293,244.183105 Z M106.827637,239.979004 L102.05957,239.979004 C102.201172,239.373535 102.494141,238.899902 102.938477,238.558105 C103.382812,238.216309 103.929688,238.04541 104.579102,238.04541 C105.179688,238.04541 105.686279,238.222412 106.098877,238.576416 C106.511475,238.93042 106.754395,239.397949 106.827637,239.979004 L106.827637,239.979004 Z M121.424805,244.183105 C121.922852,244.183105 122.407471,244.087891 122.878662,243.897461 C123.349854,243.707031 123.785645,243.431152 124.186035,243.069824 L124.186035,243.069824 L124.244629,243.516602 C124.273926,243.672852 124.33252,243.79248 124.42041,243.875488 C124.508301,243.958496 124.620605,244 124.757324,244 L124.757324,244 L125.907227,244 C126.102539,244 126.249023,243.956055 126.34668,243.868164 C126.444336,243.780273 126.493164,243.648438 126.493164,243.472656 C126.493164,243.282227 126.43457,243.150391 126.317383,243.077148 C126.200195,243.003906 125.968262,242.967285 125.621582,242.967285 L125.621582,242.967285 L125.262695,242.967285 L125.262695,239.649414 C125.262695,238.794922 125.042969,238.14917 124.603516,237.712158 C124.164062,237.275146 123.514648,237.056641 122.655273,237.056641 C121.81543,237.056641 121.125732,237.156738 120.586182,237.356934 C120.046631,237.557129 119.776855,237.80127 119.776855,238.089355 C119.776855,238.27002 119.823242,238.417725 119.916016,238.532471 C120.008789,238.647217 120.125977,238.70459 120.267578,238.70459 C120.418945,238.70459 120.729004,238.602051 121.197754,238.396973 C121.666504,238.191895 122.091309,238.089355 122.472168,238.089355 C123.038574,238.089355 123.456055,238.223633 123.724609,238.492188 C123.993164,238.760742 124.127441,239.175781 124.127441,239.737305 L124.127441,239.737305 L124.127441,239.788574 C123.824707,239.710449 123.529297,239.653076 123.241211,239.616455 C122.953125,239.579834 122.66748,239.561523 122.384277,239.561523 C121.310059,239.561523 120.476318,239.773926 119.883057,240.19873 C119.289795,240.623535 118.993164,241.22168 118.993164,241.993164 C118.993164,242.642578 119.216553,243.169922 119.66333,243.575195 C120.110107,243.980469 120.697266,244.183105 121.424805,244.183105 Z M121.60791,243.055176 C121.187988,243.055176 120.842529,242.947754 120.571533,242.73291 C120.300537,242.518066 120.165039,242.244629 120.165039,241.912598 C120.165039,241.48291 120.382324,241.141113 120.816895,240.887207 C121.251465,240.633301 121.844727,240.506348 122.59668,240.506348 C122.845703,240.506348 123.095947,240.5271 123.347412,240.568604 C123.598877,240.610107 123.858887,240.674805 124.127441,240.762695 L124.127441,240.762695 L124.127441,241.553711 C124.127441,241.905273 123.862549,242.243408 123.332764,242.568115 C122.802979,242.892822 122.228027,243.055176 121.60791,243.055176 Z M133.172852,244 C133.402344,244 133.559814,243.962158 133.645264,243.886475 C133.730713,243.810791 133.773438,243.672852 133.773438,243.472656 C133.773438,243.296875 133.728271,243.168701 133.637939,243.088135 C133.547607,243.007568 133.407227,242.967285 133.216797,242.967285 L133.216797,242.967285 L130.785156,242.967285 L130.785156,239.935059 C131.297852,239.349121 131.765381,238.920654 132.187744,238.649658 C132.610107,238.378662 133.011719,238.243164 133.392578,238.243164 C133.602539,238.243164 133.840576,238.317627 134.106689,238.466553 C134.372803,238.615479 134.562012,238.689941 134.674316,238.689941 C134.835449,238.689941 134.983154,238.620361 135.117432,238.481201 C135.251709,238.342041 135.318848,238.182129 135.318848,238.001465 C135.318848,237.723145 135.18457,237.496094 134.916016,237.320312 C134.647461,237.144531 134.295898,237.056641 133.861328,237.056641 C133.280273,237.056641 132.738281,237.198242 132.235352,237.481445 C131.732422,237.764648 131.249023,238.196777 130.785156,238.777832 L130.785156,238.777832 L130.785156,237.532715 C130.785156,237.435059 130.750977,237.360596 130.682617,237.309326 C130.614258,237.258057 130.51416,237.232422 130.382324,237.232422 L130.382324,237.232422 L128.712402,237.232422 C128.51709,237.232422 128.371826,237.275146 128.276611,237.360596 C128.181396,237.446045 128.133789,237.574219 128.133789,237.745117 C128.133789,237.945312 128.192383,238.083252 128.30957,238.158936 C128.426758,238.234619 128.722168,238.272461 129.195801,238.272461 L129.195801,238.272461 L129.693848,238.272461 L129.693848,242.967285 L128.419434,242.967285 C128.209473,242.967285 128.054443,243.008789 127.954346,243.091797 C127.854248,243.174805 127.804199,243.301758 127.804199,243.472656 C127.804199,243.648438 127.853027,243.780273 127.950684,243.868164 C128.04834,243.956055 128.192383,244 128.382812,244 L128.382812,244 L133.172852,244 Z M140.431152,244.183105 C140.943848,244.183105 141.460205,244.119629 141.980225,243.992676 C142.500244,243.865723 143.004395,243.682617 143.492676,243.443359 C143.717285,243.331055 143.880859,243.216309 143.983398,243.099121 C144.085938,242.981934 144.137207,242.852539 144.137207,242.710938 C144.137207,242.574219 144.088379,242.459473 143.990723,242.366699 C143.893066,242.273926 143.770996,242.227539 143.624512,242.227539 C143.48291,242.227539 143.075195,242.380127 142.401367,242.685303 C141.727539,242.990479 141.10498,243.143066 140.533691,243.143066 C139.776855,243.143066 139.179932,242.951416 138.74292,242.568115 C138.305908,242.184814 138.067871,241.641602 138.028809,240.938477 L138.028809,240.938477 L143.060547,240.938477 C143.568359,240.938477 143.879639,240.89209 143.994385,240.799316 C144.109131,240.706543 144.166504,240.523438 144.166504,240.25 C144.166504,239.361328 143.827148,238.604492 143.148438,237.979492 C142.469727,237.354492 141.615234,237.041992 140.584961,237.041992 C139.447266,237.041992 138.524414,237.376465 137.816406,238.04541 C137.108398,238.714355 136.754395,239.588379 136.754395,240.66748 C136.754395,241.727051 137.088867,242.577881 137.757812,243.219971 C138.426758,243.862061 139.317871,244.183105 140.431152,244.183105 Z M142.833496,239.979004 L138.06543,239.979004 C138.207031,239.373535 138.5,238.899902 138.944336,238.558105 C139.388672,238.216309 139.935547,238.04541 140.584961,238.04541 C141.185547,238.04541 141.692139,238.222412 142.104736,238.576416 C142.517334,238.93042 142.760254,239.397949 142.833496,239.979004 L142.833496,239.979004 Z M157.430664,244.183105 C157.928711,244.183105 158.41333,244.087891 158.884521,243.897461 C159.355713,243.707031 159.791504,243.431152 160.191895,243.069824 L160.191895,243.069824 L160.250488,243.516602 C160.279785,243.672852 160.338379,243.79248 160.42627,243.875488 C160.51416,243.958496 160.626465,244 160.763184,244 L160.763184,244 L161.913086,244 C162.108398,244 162.254883,243.956055 162.352539,243.868164 C162.450195,243.780273 162.499023,243.648438 162.499023,243.472656 C162.499023,243.282227 162.44043,243.150391 162.323242,243.077148 C162.206055,243.003906 161.974121,242.967285 161.627441,242.967285 L161.627441,242.967285 L161.268555,242.967285 L161.268555,239.649414 C161.268555,238.794922 161.048828,238.14917 160.609375,237.712158 C160.169922,237.275146 159.520508,237.056641 158.661133,237.056641 C157.821289,237.056641 157.131592,237.156738 156.592041,237.356934 C156.05249,237.557129 155.782715,237.80127 155.782715,238.089355 C155.782715,238.27002 155.829102,238.417725 155.921875,238.532471 C156.014648,238.647217 156.131836,238.70459 156.273438,238.70459 C156.424805,238.70459 156.734863,238.602051 157.203613,238.396973 C157.672363,238.191895 158.097168,238.089355 158.478027,238.089355 C159.044434,238.089355 159.461914,238.223633 159.730469,238.492188 C159.999023,238.760742 160.133301,239.175781 160.133301,239.737305 L160.133301,239.737305 L160.133301,239.788574 C159.830566,239.710449 159.535156,239.653076 159.24707,239.616455 C158.958984,239.579834 158.67334,239.561523 158.390137,239.561523 C157.315918,239.561523 156.482178,239.773926 155.888916,240.19873 C155.295654,240.623535 154.999023,241.22168 154.999023,241.993164 C154.999023,242.642578 155.222412,243.169922 155.669189,243.575195 C156.115967,243.980469 156.703125,244.183105 157.430664,244.183105 Z M157.61377,243.055176 C157.193848,243.055176 156.848389,242.947754 156.577393,242.73291 C156.306396,242.518066 156.170898,242.244629 156.170898,241.912598 C156.170898,241.48291 156.388184,241.141113 156.822754,240.887207 C157.257324,240.633301 157.850586,240.506348 158.602539,240.506348 C158.851562,240.506348 159.101807,240.5271 159.353271,240.568604 C159.604736,240.610107 159.864746,240.674805 160.133301,240.762695 L160.133301,240.762695 L160.133301,241.553711 C160.133301,241.905273 159.868408,242.243408 159.338623,242.568115 C158.808838,242.892822 158.233887,243.055176 157.61377,243.055176 Z M176.751953,244.212402 C177.210938,244.212402 177.647949,244.148926 178.062988,244.021973 C178.478027,243.89502 178.890625,243.697266 179.300781,243.428711 C179.613281,243.233398 179.826904,243.068604 179.94165,242.934326 C180.056396,242.800049 180.11377,242.659668 180.11377,242.513184 C180.11377,242.366699 180.061279,242.243408 179.956299,242.143311 C179.851318,242.043213 179.723145,241.993164 179.571777,241.993164 C179.474121,241.993164 179.310547,242.074951 179.081055,242.238525 C178.851562,242.4021 178.670898,242.518066 178.539062,242.586426 C178.255859,242.747559 177.967773,242.868408 177.674805,242.948975 C177.381836,243.029541 177.09375,243.069824 176.810547,243.069824 C175.941406,243.069824 175.241943,242.753662 174.712158,242.121338 C174.182373,241.489014 173.91748,240.640625 173.91748,239.576172 C173.91748,238.511719 174.178711,237.66333 174.701172,237.031006 C175.223633,236.398682 175.916992,236.08252 176.78125,236.08252 C177.254883,236.08252 177.66748,236.198486 178.019043,236.43042 C178.370605,236.662354 178.592773,236.961426 178.685547,237.327637 C178.705078,237.400879 178.731934,237.505859 178.766113,237.642578 C178.86377,238.101562 179.07373,238.331055 179.395996,238.331055 C179.596191,238.331055 179.735352,238.290771 179.813477,238.210205 C179.891602,238.129639 179.930664,237.974609 179.930664,237.745117 C179.929579,237.752984 179.924696,237.573541 179.916016,237.206787 C179.90625,236.794189 179.901367,236.348633 179.901367,235.870117 C179.901367,235.59668 179.864746,235.416016 179.791504,235.328125 C179.718262,235.240234 179.591309,235.196289 179.410645,235.196289 C179.244629,235.196289 179.117676,235.223145 179.029785,235.276855 C178.941895,235.330566 178.873535,235.42334 178.824707,235.555176 C178.453613,235.398926 178.10083,235.281738 177.766357,235.203613 C177.431885,235.125488 177.103516,235.086426 176.78125,235.086426 C175.575195,235.086426 174.574219,235.520996 173.77832,236.390137 C172.982422,237.259277 172.584473,238.350586 172.584473,239.664062 C172.584473,240.992188 172.977539,242.082275 173.763672,242.934326 C174.549805,243.786377 175.545898,244.212402 176.751953,244.212402 Z M188.141113,244.117188 C188.380371,244.117188 188.532959,244.090332 188.598877,244.036621 C188.664795,243.98291 188.697754,243.885254 188.697754,243.743652 L188.697754,243.743652 L188.697754,236.368164 L188.785645,236.368164 C189.063965,236.368164 189.255615,236.329102 189.360596,236.250977 C189.465576,236.172852 189.518066,236.036133 189.518066,235.84082 C189.518066,235.665039 189.475342,235.533203 189.389893,235.445312 C189.304443,235.357422 189.173828,235.313477 188.998047,235.313477 L188.998047,235.313477 L186.895996,235.313477 C186.568848,235.313477 186.354004,235.351318 186.251465,235.427002 C186.148926,235.502686 186.097656,235.640625 186.097656,235.84082 C186.097656,236.021484 186.157471,236.154541 186.2771,236.23999 C186.396729,236.325439 186.588379,236.368164 186.852051,236.368164 L186.852051,236.368164 L187.657715,236.368164 L187.657715,242.154297 L183.966309,235.782227 C183.844238,235.572266 183.738037,235.44165 183.647705,235.390381 C183.557373,235.339111 183.399902,235.313477 183.175293,235.313477 L183.175293,235.313477 L182.486816,235.313477 C182.38916,235.313477 182.291504,235.315918 182.193848,235.320801 C182.096191,235.325684 182.047363,235.328125 182.047363,235.328125 C181.769043,235.328125 181.567627,235.368408 181.443115,235.448975 C181.318604,235.529541 181.256348,235.660156 181.256348,235.84082 C181.256348,236.036133 181.328369,236.172852 181.472412,236.250977 C181.616455,236.329102 181.893555,236.368164 182.303711,236.368164 L182.303711,236.368164 L182.486816,236.368164 L182.486816,242.967285 L182.347656,242.967285 C182.05957,242.967285 181.865479,243.002686 181.765381,243.073486 C181.665283,243.144287 181.615234,243.277344 181.615234,243.472656 C181.615234,243.648438 181.65918,243.780273 181.74707,243.868164 C181.834961,243.956055 181.966797,244 182.142578,244 L182.142578,244 L184.317871,244 C184.674316,244 184.905029,243.962158 185.01001,243.886475 C185.11499,243.810791 185.16748,243.672852 185.16748,243.472656 C185.16748,243.291992 185.111328,243.162598 184.999023,243.084473 C184.886719,243.006348 184.69873,242.967285 184.435059,242.967285 L184.435059,242.967285 L183.519531,242.967285 L183.519531,236.983398 L187.416016,243.699707 C187.547852,243.924316 187.641846,244.050049 187.697998,244.076904 C187.75415,244.10376 187.901855,244.117188 188.141113,244.117188 Z M194.754883,244.212402 C195.213867,244.212402 195.650879,244.148926 196.065918,244.021973 C196.480957,243.89502 196.893555,243.697266 197.303711,243.428711 C197.616211,243.233398 197.829834,243.068604 197.94458,242.934326 C198.059326,242.800049 198.116699,242.659668 198.116699,242.513184 C198.116699,242.366699 198.064209,242.243408 197.959229,242.143311 C197.854248,242.043213 197.726074,241.993164 197.574707,241.993164 C197.477051,241.993164 197.313477,242.074951 197.083984,242.238525 C196.854492,242.4021 196.673828,242.518066 196.541992,242.586426 C196.258789,242.747559 195.970703,242.868408 195.677734,242.948975 C195.384766,243.029541 195.09668,243.069824 194.813477,243.069824 C193.944336,243.069824 193.244873,242.753662 192.715088,242.121338 C192.185303,241.489014 191.92041,240.640625 191.92041,239.576172 C191.92041,238.511719 192.181641,237.66333 192.704102,237.031006 C193.226562,236.398682 193.919922,236.08252 194.78418,236.08252 C195.257812,236.08252 195.67041,236.198486 196.021973,236.43042 C196.373535,236.662354 196.595703,236.961426 196.688477,237.327637 C196.708008,237.400879 196.734863,237.505859 196.769043,237.642578 C196.866699,238.101562 197.07666,238.331055 197.398926,238.331055 C197.599121,238.331055 197.738281,238.290771 197.816406,238.210205 C197.894531,238.129639 197.933594,237.974609 197.933594,237.745117 C197.932509,237.752984 197.927626,237.573541 197.918945,237.206787 C197.90918,236.794189 197.904297,236.348633 197.904297,235.870117 C197.904297,235.59668 197.867676,235.416016 197.794434,235.328125 C197.721191,235.240234 197.594238,235.196289 197.413574,235.196289 C197.247559,235.196289 197.120605,235.223145 197.032715,235.276855 C196.944824,235.330566 196.876465,235.42334 196.827637,235.555176 C196.456543,235.398926 196.10376,235.281738 195.769287,235.203613 C195.434814,235.125488 195.106445,235.086426 194.78418,235.086426 C193.578125,235.086426 192.577148,235.520996 191.78125,236.390137 C190.985352,237.259277 190.587402,238.350586 190.587402,239.664062 C190.587402,240.992188 190.980469,242.082275 191.766602,242.934326 C192.552734,243.786377 193.548828,244.212402 194.754883,244.212402 Z M203.814941,244 C203.980957,244 204.10791,243.954834 204.195801,243.864502 C204.283691,243.77417 204.327637,243.643555 204.327637,243.472656 C204.327637,243.296875 204.28125,243.168701 204.188477,243.088135 C204.095703,243.007568 203.946777,242.967285 203.741699,242.967285 L203.741699,242.967285 L202.181641,242.967285 L202.181641,239.722656 L204.115234,239.722656 L204.115234,239.935059 C204.115234,240.291504 204.149414,240.530762 204.217773,240.652832 C204.286133,240.774902 204.408203,240.835938 204.583984,240.835938 C204.75,240.835938 204.865967,240.789551 204.931885,240.696777 C204.997803,240.604004 205.030762,240.435547 205.030762,240.191406 L205.030762,240.191406 L205.030762,238.331055 C205.030762,238.125977 204.995361,237.977051 204.924561,237.884277 C204.85376,237.791504 204.740234,237.745117 204.583984,237.745117 C204.408203,237.745117 204.286133,237.806152 204.217773,237.928223 C204.149414,238.050293 204.115234,238.289551 204.115234,238.645996 L204.115234,238.645996 L204.115234,238.836426 L202.181641,238.836426 L202.181641,236.368164 L206.158691,236.368164 L206.158691,237.415527 C206.158691,237.791504 206.195312,238.033203 206.268555,238.140625 C206.341797,238.248047 206.480957,238.301758 206.686035,238.301758 C206.852051,238.301758 206.977783,238.259033 207.063232,238.173584 C207.148682,238.088135 207.191406,237.959961 207.191406,237.789062 L207.191406,237.789062 L207.191406,235.899414 C207.191406,235.708984 207.148682,235.563721 207.063232,235.463623 C206.977783,235.363525 206.852051,235.313477 206.686035,235.313477 L206.686035,235.313477 L200.204102,235.313477 C200.038086,235.313477 199.911133,235.358643 199.823242,235.448975 C199.735352,235.539307 199.691406,235.669922 199.691406,235.84082 C199.691406,236.041016 199.743896,236.178955 199.848877,236.254639 C199.953857,236.330322 200.191895,236.368164 200.562988,236.368164 L200.562988,236.368164 L201.024414,236.368164 L201.024414,242.967285 L200.321289,242.967285 C200.091797,242.967285 199.929443,243.006348 199.834229,243.084473 C199.739014,243.162598 199.691406,243.291992 199.691406,243.472656 C199.691406,243.643555 199.735352,243.77417 199.823242,243.864502 C199.911133,243.954834 200.038086,244 200.204102,244 L200.204102,244 L203.814941,244 Z M218.792969,244.32959 C218.983398,244.32959 219.122559,244.286865 219.210449,244.201416 C219.29834,244.115967 219.354492,243.963379 219.378906,243.743652 C219.769531,243.919434 220.138184,244.048828 220.484863,244.131836 C220.831543,244.214844 221.180664,244.256348 221.532227,244.256348 C222.552734,244.256348 223.368164,244.008545 223.978516,243.512939 C224.588867,243.017334 224.894043,242.359375 224.894043,241.539062 C224.894043,240.845703 224.679199,240.295166 224.249512,239.887451 C223.819824,239.479736 223.180176,239.219727 222.330566,239.107422 L222.330566,239.107422 L221.158691,238.960938 C220.592285,238.882812 220.171143,238.736328 219.895264,238.521484 C219.619385,238.306641 219.481445,238.013672 219.481445,237.642578 C219.481445,237.168945 219.665771,236.785645 220.034424,236.492676 C220.403076,236.199707 220.882812,236.053223 221.473633,236.053223 C221.859375,236.053223 222.203613,236.119141 222.506348,236.250977 C222.809082,236.382812 223.041016,236.570801 223.202148,236.814941 C223.270508,236.91748 223.338867,237.071289 223.407227,237.276367 C223.548828,237.637695 223.749023,237.818359 224.007812,237.818359 C224.183594,237.818359 224.320312,237.770752 224.417969,237.675537 C224.515625,237.580322 224.564453,237.447266 224.564453,237.276367 L224.564453,237.276367 L224.564453,237.203125 L224.461914,235.672363 C224.442383,235.433105 224.391113,235.281738 224.308105,235.218262 C224.225098,235.154785 224.076172,235.123047 223.861328,235.123047 C223.695312,235.123047 223.578125,235.149902 223.509766,235.203613 C223.441406,235.257324 223.402344,235.35498 223.392578,235.496582 C223.016602,235.345215 222.679688,235.234131 222.381836,235.16333 C222.083984,235.092529 221.800781,235.057129 221.532227,235.057129 C220.609375,235.057129 219.839111,235.311035 219.221436,235.818848 C218.60376,236.32666 218.294922,236.954102 218.294922,237.701172 C218.294922,238.40918 218.526855,238.958496 218.990723,239.349121 C219.45459,239.739746 220.191895,240.005859 221.202637,240.147461 L221.202637,240.147461 L222.286621,240.293945 C222.750488,240.362305 223.103271,240.513672 223.344971,240.748047 C223.58667,240.982422 223.70752,241.29248 223.70752,241.678223 C223.70752,242.14209 223.510986,242.522949 223.11792,242.820801 C222.724854,243.118652 222.213379,243.267578 221.583496,243.267578 C221.070801,243.267578 220.630127,243.174805 220.261475,242.989258 C219.892822,242.803711 219.623047,242.540039 219.452148,242.198242 C219.398438,242.09082 219.342285,241.932129 219.283691,241.722168 C219.156738,241.302246 218.946777,241.092285 218.653809,241.092285 C218.443848,241.092285 218.293701,241.141113 218.203369,241.23877 C218.113037,241.336426 218.067871,241.502441 218.067871,241.736816 L218.067871,241.736816 L218.067871,241.868652 L218.163086,243.567871 C218.177734,243.836426 218.235107,244.030518 218.335205,244.150146 C218.435303,244.269775 218.587891,244.32959 218.792969,244.32959 Z M229.442383,244.183105 C229.94043,244.183105 230.425049,244.087891 230.89624,243.897461 C231.367432,243.707031 231.803223,243.431152 232.203613,243.069824 L232.203613,243.069824 L232.262207,243.516602 C232.291504,243.672852 232.350098,243.79248 232.437988,243.875488 C232.525879,243.958496 232.638184,244 232.774902,244 L232.774902,244 L233.924805,244 C234.120117,244 234.266602,243.956055 234.364258,243.868164 C234.461914,243.780273 234.510742,243.648438 234.510742,243.472656 C234.510742,243.282227 234.452148,243.150391 234.334961,243.077148 C234.217773,243.003906 233.98584,242.967285 233.63916,242.967285 L233.63916,242.967285 L233.280273,242.967285 L233.280273,239.649414 C233.280273,238.794922 233.060547,238.14917 232.621094,237.712158 C232.181641,237.275146 231.532227,237.056641 230.672852,237.056641 C229.833008,237.056641 229.143311,237.156738 228.60376,237.356934 C228.064209,237.557129 227.794434,237.80127 227.794434,238.089355 C227.794434,238.27002 227.84082,238.417725 227.933594,238.532471 C228.026367,238.647217 228.143555,238.70459 228.285156,238.70459 C228.436523,238.70459 228.746582,238.602051 229.215332,238.396973 C229.684082,238.191895 230.108887,238.089355 230.489746,238.089355 C231.056152,238.089355 231.473633,238.223633 231.742188,238.492188 C232.010742,238.760742 232.14502,239.175781 232.14502,239.737305 L232.14502,239.737305 L232.14502,239.788574 C231.842285,239.710449 231.546875,239.653076 231.258789,239.616455 C230.970703,239.579834 230.685059,239.561523 230.401855,239.561523 C229.327637,239.561523 228.493896,239.773926 227.900635,240.19873 C227.307373,240.623535 227.010742,241.22168 227.010742,241.993164 C227.010742,242.642578 227.234131,243.169922 227.680908,243.575195 C228.127686,243.980469 228.714844,244.183105 229.442383,244.183105 Z M229.625488,243.055176 C229.205566,243.055176 228.860107,242.947754 228.589111,242.73291 C228.318115,242.518066 228.182617,242.244629 228.182617,241.912598 C228.182617,241.48291 228.399902,241.141113 228.834473,240.887207 C229.269043,240.633301 229.862305,240.506348 230.614258,240.506348 C230.863281,240.506348 231.113525,240.5271 231.36499,240.568604 C231.616455,240.610107 231.876465,240.674805 232.14502,240.762695 L232.14502,240.762695 L232.14502,241.553711 C232.14502,241.905273 231.880127,242.243408 231.350342,242.568115 C230.820557,242.892822 230.245605,243.055176 229.625488,243.055176 Z M238.128906,244 C238.470703,244 238.685547,243.963379 238.773438,243.890137 C238.861328,243.816895 238.905273,243.677734 238.905273,243.472656 C238.905273,243.282227 238.854004,243.150391 238.751465,243.077148 C238.648926,243.003906 238.451172,242.967285 238.158203,242.967285 L238.158203,242.967285 L237.901855,242.967285 L237.901855,239.92041 C237.901855,239.422363 238.092285,239.004883 238.473145,238.667969 C238.854004,238.331055 239.293457,238.162598 239.791504,238.162598 C240.284668,238.162598 240.660645,238.312744 240.919434,238.613037 C241.178223,238.91333 241.307617,239.349121 241.307617,239.92041 L241.307617,239.92041 L241.307617,242.967285 L241.05127,242.967285 C240.768066,242.967285 240.575195,243.003906 240.472656,243.077148 C240.370117,243.150391 240.318848,243.282227 240.318848,243.472656 C240.318848,243.677734 240.362793,243.816895 240.450684,243.890137 C240.538574,243.963379 240.73877,244 241.05127,244 L241.05127,244 L242.669922,244 C242.962891,244 243.166748,243.959717 243.281494,243.87915 C243.39624,243.798584 243.453613,243.663086 243.453613,243.472656 C243.453613,243.296875 243.399902,243.168701 243.29248,243.088135 C243.185059,243.007568 243.009277,242.967285 242.765137,242.967285 L242.765137,242.967285 L242.420898,242.967285 L242.420898,239.649414 C242.420898,238.838867 242.209717,238.204102 241.787354,237.745117 C241.36499,237.286133 240.785156,237.056641 240.047852,237.056641 C239.671875,237.056641 239.309326,237.135986 238.960205,237.294678 C238.611084,237.453369 238.258301,237.69873 237.901855,238.030762 L237.901855,238.030762 L237.901855,237.532715 C237.901855,237.439941 237.865234,237.366699 237.791992,237.312988 C237.71875,237.259277 237.616211,237.232422 237.484375,237.232422 L237.484375,237.232422 L236.437012,237.232422 C236.20752,237.232422 236.041504,237.272705 235.938965,237.353271 C235.836426,237.433838 235.785156,237.564453 235.785156,237.745117 C235.785156,237.94043 235.847412,238.077148 235.971924,238.155273 C236.096436,238.233398 236.324707,238.272461 236.656738,238.272461 L236.656738,238.272461 L236.795898,238.272461 L236.795898,242.967285 L236.64209,242.967285 C236.310059,242.967285 236.08667,243.002686 235.971924,243.073486 C235.857178,243.144287 235.799805,243.277344 235.799805,243.472656 C235.799805,243.65332 235.849854,243.786377 235.949951,243.871826 C236.050049,243.957275 236.200195,244 236.400391,244 L236.400391,244 L238.128906,244 Z M247.921387,244.183105 C248.434082,244.183105 248.910156,244.081787 249.349609,243.87915 C249.789062,243.676514 250.155273,243.39209 250.448242,243.025879 L250.448242,243.025879 L250.448242,243.626465 C250.448242,243.772949 250.468994,243.871826 250.510498,243.923096 C250.552002,243.974365 250.624023,244 250.726562,244 L250.726562,244 L252.140137,244 C252.296387,244 252.420898,243.953613 252.513672,243.86084 C252.606445,243.768066 252.652832,243.638672 252.652832,243.472656 C252.652832,243.296875 252.599121,243.168701 252.491699,243.088135 C252.384277,243.007568 252.210938,242.967285 251.97168,242.967285 L251.97168,242.967285 L251.64209,242.967285 L251.64209,234.712891 C251.64209,234.610352 251.609131,234.534668 251.543213,234.48584 C251.477295,234.437012 251.371094,234.412598 251.224609,234.412598 L251.224609,234.412598 L249.723145,234.412598 C249.532715,234.412598 249.387451,234.456543 249.287354,234.544434 C249.187256,234.632324 249.137207,234.76416 249.137207,234.939941 C249.137207,235.140137 249.199463,235.278076 249.323975,235.35376 C249.448486,235.429443 249.723145,235.467285 250.147949,235.467285 L250.147949,235.467285 L250.536133,235.467285 L250.536133,238.272461 C250.248047,237.925781 249.903809,237.66333 249.503418,237.485107 C249.103027,237.306885 248.651367,237.217773 248.148438,237.217773 C247.157227,237.217773 246.32959,237.553467 245.665527,238.224854 C245.001465,238.89624 244.669434,239.737305 244.669434,240.748047 C244.669434,241.724609 244.980713,242.54126 245.603271,243.197998 C246.22583,243.854736 246.998535,244.183105 247.921387,244.183105 Z M248.236328,243.01123 C247.567383,243.01123 247.015625,242.796387 246.581055,242.366699 C246.146484,241.937012 245.929199,241.385254 245.929199,240.711426 C245.929199,239.993652 246.141602,239.412598 246.566406,238.968262 C246.991211,238.523926 247.547852,238.301758 248.236328,238.301758 C248.915039,238.301758 249.470459,238.521484 249.902588,238.960938 C250.334717,239.400391 250.550781,239.959473 250.550781,240.638184 C250.550781,241.32666 250.333496,241.894287 249.898926,242.341064 C249.464355,242.787842 248.910156,243.01123 248.236328,243.01123 Z M258.021484,244.131836 C258.988281,244.131836 259.807373,243.797363 260.47876,243.128418 C261.150146,242.459473 261.48584,241.644043 261.48584,240.682129 C261.48584,239.705566 261.158691,238.886475 260.504395,238.224854 C259.850098,237.563232 259.032227,237.232422 258.050781,237.232422 C257.533203,237.232422 257.069336,237.322754 256.65918,237.503418 C256.249023,237.684082 255.907227,237.945312 255.633789,238.287109 L255.633789,238.287109 L255.633789,234.712891 C255.633789,234.610352 255.60083,234.534668 255.534912,234.48584 C255.468994,234.437012 255.362793,234.412598 255.216309,234.412598 L255.216309,234.412598 L254.103027,234.412598 C253.912598,234.412598 253.768555,234.456543 253.670898,234.544434 C253.573242,234.632324 253.524414,234.76416 253.524414,234.939941 C253.524414,235.135254 253.585449,235.271973 253.70752,235.350098 C253.82959,235.428223 254.056641,235.467285 254.388672,235.467285 L254.388672,235.467285 L254.527832,235.467285 L254.527832,242.967285 L254.374023,242.967285 C254.041992,242.967285 253.819824,243.002686 253.70752,243.073486 C253.595215,243.144287 253.539062,243.277344 253.539062,243.472656 C253.539062,243.648438 253.585449,243.780273 253.678223,243.868164 C253.770996,243.956055 253.912598,244 254.103027,244 L254.103027,244 L255.443359,244 C255.550781,244 255.627686,243.970703 255.674072,243.912109 C255.720459,243.853516 255.743652,243.758301 255.743652,243.626465 L255.743652,243.626465 L255.743652,243.040527 C255.987793,243.406738 256.300293,243.680176 256.681152,243.86084 C257.062012,244.041504 257.508789,244.131836 258.021484,244.131836 Z M257.918945,242.981934 C257.240234,242.981934 256.684814,242.762207 256.252686,242.322754 C255.820557,241.883301 255.604492,241.321777 255.604492,240.638184 C255.604492,239.95459 255.820557,239.394287 256.252686,238.957275 C256.684814,238.520264 257.240234,238.301758 257.918945,238.301758 C258.592773,238.301758 259.148193,238.521484 259.585205,238.960938 C260.022217,239.400391 260.240723,239.959473 260.240723,240.638184 C260.240723,241.331543 260.025879,241.895508 259.596191,242.330078 C259.166504,242.764648 258.607422,242.981934 257.918945,242.981934 Z M266.524902,244.183105 C267.662598,244.183105 268.587891,243.851074 269.300781,243.187012 C270.013672,242.522949 270.370117,241.668457 270.370117,240.623535 C270.370117,239.583496 270.012451,238.731445 269.297119,238.067383 C268.581787,237.40332 267.657715,237.071289 266.524902,237.071289 C265.39209,237.071289 264.469238,237.4021 263.756348,238.063721 C263.043457,238.725342 262.687012,239.578613 262.687012,240.623535 C262.687012,241.668457 263.043457,242.522949 263.756348,243.187012 C264.469238,243.851074 265.39209,244.183105 266.524902,244.183105 Z M266.524902,243.157715 C265.772949,243.157715 265.157715,242.920898 264.679199,242.447266 C264.200684,241.973633 263.961426,241.365723 263.961426,240.623535 C263.961426,239.88623 264.201904,239.2771 264.682861,238.796143 C265.163818,238.315186 265.777832,238.074707 266.524902,238.074707 C267.271973,238.074707 267.887207,238.315186 268.370605,238.796143 C268.854004,239.2771 269.095703,239.88623 269.095703,240.623535 C269.095703,241.36084 268.855225,241.967529 268.374268,242.443604 C267.893311,242.919678 267.276855,243.157715 266.524902,243.157715 Z M274.164062,244 C274.422852,244 274.612061,243.958496 274.731689,243.875488 C274.851318,243.79248 274.911133,243.663086 274.911133,243.487305 C274.911133,243.321289 274.842773,243.193115 274.706055,243.102783 C274.569336,243.012451 274.378906,242.967285 274.134766,242.967285 L274.134766,242.967285 L273.922363,242.967285 L275.606934,241.165527 L277.452637,242.967285 L277.04248,242.967285 C276.837402,242.967285 276.67627,243.013672 276.559082,243.106445 C276.441895,243.199219 276.383301,243.326172 276.383301,243.487305 C276.383301,243.663086 276.444336,243.79248 276.566406,243.875488 C276.688477,243.958496 276.878906,244 277.137695,244 L277.137695,244 L278.631836,244 C278.998047,244 279.239746,243.963379 279.356934,243.890137 C279.474121,243.816895 279.532715,243.682617 279.532715,243.487305 C279.532715,243.321289 279.481445,243.193115 279.378906,243.102783 C279.276367,243.012451 279.132324,242.967285 278.946777,242.967285 L278.946777,242.967285 L278.873535,242.967285 L276.310059,240.462402 L278.412109,238.272461 L278.617188,238.272461 C278.885742,238.272461 279.081055,238.229736 279.203125,238.144287 C279.325195,238.058838 279.38623,237.925781 279.38623,237.745117 C279.38623,237.59375 279.338623,237.470459 279.243408,237.375244 C279.148193,237.280029 279.024902,237.232422 278.873535,237.232422 L278.873535,237.232422 L276.969238,237.232422 C276.705566,237.232422 276.515137,237.275146 276.397949,237.360596 C276.280762,237.446045 276.222168,237.583984 276.222168,237.774414 C276.222168,237.945312 276.288086,238.071045 276.419922,238.151611 C276.551758,238.232178 276.754395,238.272461 277.027832,238.272461 L277.027832,238.272461 L277.181641,238.272461 L275.680176,239.817871 L274.105469,238.272461 L274.164062,238.272461 C274.417969,238.272461 274.612061,238.228516 274.746338,238.140625 C274.880615,238.052734 274.947754,237.925781 274.947754,237.759766 C274.947754,237.579102 274.887939,237.446045 274.768311,237.360596 C274.648682,237.275146 274.457031,237.232422 274.193359,237.232422 L274.193359,237.232422 L272.691895,237.232422 C272.340332,237.232422 272.102295,237.270264 271.977783,237.345947 C271.853271,237.421631 271.791016,237.55957 271.791016,237.759766 C271.791016,237.950195 271.845947,238.083252 271.955811,238.158936 C272.065674,238.234619 272.262207,238.272461 272.54541,238.272461 L272.54541,238.272461 L272.647949,238.272461 L274.977051,240.535645 L272.604004,242.967285 L272.45752,242.967285 C272.169434,242.967285 271.959473,243.008789 271.827637,243.091797 C271.695801,243.174805 271.629883,243.306641 271.629883,243.487305 C271.629883,243.633789 271.678711,243.755859 271.776367,243.853516 C271.874023,243.951172 271.996094,244 272.142578,244 L272.142578,244 L274.164062,244 Z M293.338867,246.922363 C293.568359,246.922363 293.728271,246.883301 293.818604,246.805176 C293.908936,246.727051 293.954102,246.592773 293.954102,246.402344 C293.954102,246.226562 293.907715,246.094727 293.814941,246.006836 C293.722168,245.918945 293.583008,245.875 293.397461,245.875 L293.397461,245.875 L291.639648,245.875 L291.639648,242.952637 C291.932617,243.294434 292.296387,243.556885 292.730957,243.73999 C293.165527,243.923096 293.641602,244.014648 294.15918,244.014648 C295.130859,244.014648 295.929199,243.70459 296.554199,243.084473 C297.179199,242.464355 297.491699,241.67334 297.491699,240.711426 C297.491699,239.710449 297.162109,238.87793 296.50293,238.213867 C295.84375,237.549805 295.023438,237.217773 294.041992,237.217773 C293.578125,237.217773 293.144775,237.303223 292.741943,237.474121 C292.339111,237.64502 291.97168,237.901367 291.639648,238.243164 L291.639648,238.243164 L291.639648,237.532715 C291.639648,237.430176 291.606689,237.354492 291.540771,237.305664 C291.474854,237.256836 291.368652,237.232422 291.222168,237.232422 L291.222168,237.232422 L290.108887,237.232422 C289.913574,237.232422 289.765869,237.275146 289.665771,237.360596 C289.565674,237.446045 289.515625,237.574219 289.515625,237.745117 C289.515625,237.94043 289.577881,238.077148 289.702393,238.155273 C289.826904,238.233398 290.057617,238.272461 290.394531,238.272461 L290.394531,238.272461 L290.533691,238.272461 L290.533691,245.875 L290.394531,245.875 C290.057617,245.875 289.826904,245.914062 289.702393,245.992188 C289.577881,246.070312 289.515625,246.207031 289.515625,246.402344 C289.515625,246.573242 289.565674,246.702637 289.665771,246.790527 C289.765869,246.878418 289.913574,246.922363 290.108887,246.922363 L290.108887,246.922363 L293.338867,246.922363 Z M293.910156,242.937988 C293.231445,242.937988 292.678467,242.723145 292.251221,242.293457 C291.823975,241.86377 291.610352,241.312012 291.610352,240.638184 C291.610352,239.969238 291.825195,239.419922 292.254883,238.990234 C292.68457,238.560547 293.236328,238.345703 293.910156,238.345703 C294.583984,238.345703 295.139404,238.561768 295.576416,238.993896 C296.013428,239.426025 296.231934,239.974121 296.231934,240.638184 C296.231934,241.316895 296.014648,241.869873 295.580078,242.297119 C295.145508,242.724365 294.588867,242.937988 293.910156,242.937988 Z M304.200684,244 C304.430176,244 304.587646,243.962158 304.673096,243.886475 C304.758545,243.810791 304.80127,243.672852 304.80127,243.472656 C304.80127,243.296875 304.756104,243.168701 304.665771,243.088135 C304.575439,243.007568 304.435059,242.967285 304.244629,242.967285 L304.244629,242.967285 L301.812988,242.967285 L301.812988,239.935059 C302.325684,239.349121 302.793213,238.920654 303.215576,238.649658 C303.637939,238.378662 304.039551,238.243164 304.42041,238.243164 C304.630371,238.243164 304.868408,238.317627 305.134521,238.466553 C305.400635,238.615479 305.589844,238.689941 305.702148,238.689941 C305.863281,238.689941 306.010986,238.620361 306.145264,238.481201 C306.279541,238.342041 306.34668,238.182129 306.34668,238.001465 C306.34668,237.723145 306.212402,237.496094 305.943848,237.320312 C305.675293,237.144531 305.32373,237.056641 304.88916,237.056641 C304.308105,237.056641 303.766113,237.198242 303.263184,237.481445 C302.760254,237.764648 302.276855,238.196777 301.812988,238.777832 L301.812988,238.777832 L301.812988,237.532715 C301.812988,237.435059 301.778809,237.360596 301.710449,237.309326 C301.64209,237.258057 301.541992,237.232422 301.410156,237.232422 L301.410156,237.232422 L299.740234,237.232422 C299.544922,237.232422 299.399658,237.275146 299.304443,237.360596 C299.209229,237.446045 299.161621,237.574219 299.161621,237.745117 C299.161621,237.945312 299.220215,238.083252 299.337402,238.158936 C299.45459,238.234619 299.75,238.272461 300.223633,238.272461 L300.223633,238.272461 L300.72168,238.272461 L300.72168,242.967285 L299.447266,242.967285 C299.237305,242.967285 299.082275,243.008789 298.982178,243.091797 C298.88208,243.174805 298.832031,243.301758 298.832031,243.472656 C298.832031,243.648438 298.880859,243.780273 298.978516,243.868164 C299.076172,243.956055 299.220215,244 299.410645,244 L299.410645,244 L304.200684,244 Z M311.532227,244.183105 C312.669922,244.183105 313.595215,243.851074 314.308105,243.187012 C315.020996,242.522949 315.377441,241.668457 315.377441,240.623535 C315.377441,239.583496 315.019775,238.731445 314.304443,238.067383 C313.589111,237.40332 312.665039,237.071289 311.532227,237.071289 C310.399414,237.071289 309.476562,237.4021 308.763672,238.063721 C308.050781,238.725342 307.694336,239.578613 307.694336,240.623535 C307.694336,241.668457 308.050781,242.522949 308.763672,243.187012 C309.476562,243.851074 310.399414,244.183105 311.532227,244.183105 Z M311.532227,243.157715 C310.780273,243.157715 310.165039,242.920898 309.686523,242.447266 C309.208008,241.973633 308.96875,241.365723 308.96875,240.623535 C308.96875,239.88623 309.209229,239.2771 309.690186,238.796143 C310.171143,238.315186 310.785156,238.074707 311.532227,238.074707 C312.279297,238.074707 312.894531,238.315186 313.37793,238.796143 C313.861328,239.2771 314.103027,239.88623 314.103027,240.623535 C314.103027,241.36084 313.862549,241.967529 313.381592,242.443604 C312.900635,242.919678 312.28418,243.157715 311.532227,243.157715 Z M321.57373,235.84082 C321.88623,235.84082 322.086426,235.793213 322.174316,235.697998 C322.262207,235.602783 322.306152,235.340332 322.306152,234.910645 C322.306152,234.476074 322.258545,234.202637 322.16333,234.090332 C322.068115,233.978027 321.871582,233.921875 321.57373,233.921875 C321.256348,233.921875 321.048828,233.991455 320.951172,234.130615 C320.853516,234.269775 320.804688,234.600586 320.804688,235.123047 C320.804688,235.411133 320.853516,235.602783 320.951172,235.697998 C321.048828,235.793213 321.256348,235.84082 321.57373,235.84082 Z M319.427734,246.893066 C320.091797,246.893066 320.67041,246.799072 321.163574,246.611084 C321.656738,246.423096 322.04248,246.148438 322.320801,245.787109 C322.486816,245.572266 322.606445,245.303711 322.679688,244.981445 C322.75293,244.65918 322.789551,244.187988 322.789551,243.567871 L322.789551,243.567871 L322.789551,237.532715 C322.789551,237.439941 322.751709,237.366699 322.676025,237.312988 C322.600342,237.259277 322.496582,237.232422 322.364746,237.232422 L322.364746,237.232422 L318.329102,237.232422 C318.133789,237.232422 317.987305,237.275146 317.889648,237.360596 C317.791992,237.446045 317.743164,237.574219 317.743164,237.745117 C317.743164,237.945312 317.802979,238.083252 317.922607,238.158936 C318.042236,238.234619 318.338867,238.272461 318.8125,238.272461 L318.8125,238.272461 L321.67627,238.272461 L321.67627,243.538574 C321.67627,244.349121 321.524902,244.919189 321.222168,245.248779 C320.919434,245.578369 320.411621,245.743164 319.69873,245.743164 C319.557129,245.743164 319.347168,245.724854 319.068848,245.688232 C318.790527,245.651611 318.585449,245.633301 318.453613,245.633301 C318.282715,245.633301 318.13501,245.690674 318.010498,245.80542 C317.885986,245.920166 317.82373,246.053223 317.82373,246.20459 C317.82373,246.438965 317.953125,246.612305 318.211914,246.724609 C318.470703,246.836914 318.875977,246.893066 319.427734,246.893066 Z M329.461914,244.183105 C329.974609,244.183105 330.490967,244.119629 331.010986,243.992676 C331.531006,243.865723 332.035156,243.682617 332.523438,243.443359 C332.748047,243.331055 332.911621,243.216309 333.01416,243.099121 C333.116699,242.981934 333.167969,242.852539 333.167969,242.710938 C333.167969,242.574219 333.119141,242.459473 333.021484,242.366699 C332.923828,242.273926 332.801758,242.227539 332.655273,242.227539 C332.513672,242.227539 332.105957,242.380127 331.432129,242.685303 C330.758301,242.990479 330.135742,243.143066 329.564453,243.143066 C328.807617,243.143066 328.210693,242.951416 327.773682,242.568115 C327.33667,242.184814 327.098633,241.641602 327.05957,240.938477 L327.05957,240.938477 L332.091309,240.938477 C332.599121,240.938477 332.9104,240.89209 333.025146,240.799316 C333.139893,240.706543 333.197266,240.523438 333.197266,240.25 C333.197266,239.361328 332.85791,238.604492 332.179199,237.979492 C331.500488,237.354492 330.645996,237.041992 329.615723,237.041992 C328.478027,237.041992 327.555176,237.376465 326.847168,238.04541 C326.13916,238.714355 325.785156,239.588379 325.785156,240.66748 C325.785156,241.727051 326.119629,242.577881 326.788574,243.219971 C327.45752,243.862061 328.348633,244.183105 329.461914,244.183105 Z M331.864258,239.979004 L327.096191,239.979004 C327.237793,239.373535 327.530762,238.899902 327.975098,238.558105 C328.419434,238.216309 328.966309,238.04541 329.615723,238.04541 C330.216309,238.04541 330.7229,238.222412 331.135498,238.576416 C331.548096,238.93042 331.791016,239.397949 331.864258,239.979004 L331.864258,239.979004 Z M338.44873,244.183105 C339.269043,244.183105 340.044189,243.981689 340.77417,243.578857 C341.50415,243.176025 341.869141,242.781738 341.869141,242.395996 C341.869141,242.244629 341.821533,242.121338 341.726318,242.026123 C341.631104,241.930908 341.507812,241.883301 341.356445,241.883301 C341.175781,241.883301 340.926758,242.012695 340.609375,242.271484 C340.453125,242.393555 340.328613,242.483887 340.23584,242.54248 C339.972168,242.723145 339.692627,242.858643 339.397217,242.948975 C339.101807,243.039307 338.790527,243.084473 338.463379,243.084473 C337.745605,243.084473 337.158447,242.85376 336.701904,242.392334 C336.245361,241.930908 336.01709,241.336426 336.01709,240.608887 C336.01709,239.895996 336.255127,239.314941 336.731201,238.865723 C337.207275,238.416504 337.826172,238.191895 338.587891,238.191895 C339.022461,238.191895 339.406982,238.293213 339.741455,238.49585 C340.075928,238.698486 340.360352,238.997559 340.594727,239.393066 C340.731445,239.632324 340.847412,239.789795 340.942627,239.865479 C341.037842,239.941162 341.151367,239.979004 341.283203,239.979004 C341.46875,239.979004 341.60791,239.933838 341.700684,239.843506 C341.793457,239.753174 341.839844,239.617676 341.839844,239.437012 L341.839844,239.437012 L341.839844,238.074707 C341.839844,237.708496 341.802002,237.466797 341.726318,237.349609 C341.650635,237.232422 341.512695,237.173828 341.3125,237.173828 C341.117188,237.173828 340.973145,237.21167 340.880371,237.287354 C340.787598,237.363037 340.741211,237.481445 340.741211,237.642578 L340.741211,237.642578 L340.741211,237.671875 C340.321289,237.461914 339.924561,237.306885 339.551025,237.206787 C339.17749,237.106689 338.805176,237.056641 338.434082,237.056641 C337.379395,237.056641 336.500488,237.397217 335.797363,238.078369 C335.094238,238.759521 334.742676,239.60791 334.742676,240.623535 C334.742676,241.63916 335.095459,242.486328 335.801025,243.165039 C336.506592,243.84375 337.38916,244.183105 338.44873,244.183105 Z M348.094727,244.131836 C348.431641,244.131836 348.791748,244.087891 349.175049,244 C349.55835,243.912109 349.989258,243.772949 350.467773,243.58252 C350.755859,243.470215 350.959717,243.354248 351.079346,243.234619 C351.198975,243.11499 351.258789,242.974609 351.258789,242.813477 C351.258789,242.671875 351.211182,242.552246 351.115967,242.45459 C351.020752,242.356934 350.904785,242.308105 350.768066,242.308105 C350.621582,242.308105 350.238281,242.4375 349.618164,242.696289 C348.998047,242.955078 348.46582,243.084473 348.021484,243.084473 C347.518555,243.084473 347.16333,242.95752 346.955811,242.703613 C346.748291,242.449707 346.644531,241.922363 346.644531,241.121582 L346.644531,241.121582 L346.644531,238.675293 L349.61084,238.675293 C349.815918,238.675293 349.969727,238.632568 350.072266,238.547119 C350.174805,238.46167 350.226074,238.333496 350.226074,238.162598 C350.226074,237.981934 350.171143,237.850098 350.061279,237.76709 C349.951416,237.684082 349.776855,237.642578 349.537598,237.642578 L349.537598,237.642578 L346.644531,237.642578 L346.644531,236.155762 C346.644531,235.721191 346.603027,235.442871 346.52002,235.320801 C346.437012,235.19873 346.288086,235.137695 346.073242,235.137695 C345.882812,235.137695 345.742432,235.187744 345.6521,235.287842 C345.561768,235.387939 345.516602,235.542969 345.516602,235.75293 L345.516602,235.75293 L345.516602,237.642578 L344.688965,237.642578 C344.273926,237.642578 344.00293,237.679199 343.875977,237.752441 C343.749023,237.825684 343.685547,237.962402 343.685547,238.162598 C343.685547,238.343262 343.731934,238.473877 343.824707,238.554443 C343.91748,238.63501 344.066406,238.675293 344.271484,238.675293 L344.271484,238.675293 L345.516602,238.675293 L345.516602,241.348633 C345.516602,241.836914 345.537354,242.198242 345.578857,242.432617 C345.620361,242.666992 345.689941,242.869629 345.787598,243.040527 C345.978027,243.401855 346.267334,243.674072 346.655518,243.857178 C347.043701,244.040283 347.523438,244.131836 348.094727,244.131836 Z M356.539551,244.102539 C356.969238,244.102539 357.317139,243.98291 357.583252,243.743652 C357.849365,243.504395 357.982422,243.189453 357.982422,242.798828 C357.982422,242.408203 357.850586,242.093262 357.586914,241.854004 C357.323242,241.614746 356.974121,241.495117 356.539551,241.495117 C356.114746,241.495117 355.769287,241.617188 355.503174,241.861328 C355.237061,242.105469 355.104004,242.417969 355.104004,242.798828 C355.104004,243.189453 355.23584,243.504395 355.499512,243.743652 C355.763184,243.98291 356.109863,244.102539 356.539551,244.102539 Z" id="WeareaCNCFSandboxproject." fill="#FFFFFF" fill-rule="nonzero"></path>
                <g id="cncf-logo" transform="translate(91.000000, 175.200000)" fill="#FFFFFF" fill-rule="nonzero">
                    <path d="M62.4061782,18.1639604 C64.5469307,18.1639604 66.2335842,17.3206337 67.5958812,15.6339802 L70.3853465,18.4883168 C68.1797228,20.9534257 65.6497426,22.1859802 62.6656634,22.1859802 C59.6815842,22.1859802 57.2813465,21.2777822 55.3352079,19.3965149 C53.3890693,17.5152475 52.4808713,15.1798812 52.4808713,12.3255446 C52.4808713,9.47120792 53.4539406,7.0709703 55.4000792,5.18970297 C57.3462178,3.30843564 59.7464554,2.33536634 62.6007921,2.33536634 C65.7794851,2.33536634 68.4392079,3.56792079 70.5150891,5.96815842 L67.8553663,9.01710891 C66.4930693,7.33045545 64.8064158,6.48712871 62.7954059,6.48712871 C61.1736238,6.48712871 59.8113267,7.00609901 58.6436436,8.0440396 C57.4759604,9.0819802 56.8921188,10.5091485 56.8921188,12.3255446 C56.8921188,14.1419406 57.4110891,15.5691089 58.513901,16.6719208 C59.5518416,17.5801188 60.8492673,18.1639604 62.4061782,18.1639604 L62.4061782,18.1639604 Z" id="Path"></path>
                    <polygon id="Path" points="73.7586535 21.926495 73.7586535 2.65972277 78.0401584 2.65972277 78.0401584 18.0990891 86.2788119 18.0990891 86.2788119 21.926495"></polygon>
                    <path d="M105.091485,19.2667723 C103.145347,21.1480396 100.745109,22.1211089 97.8907723,22.1211089 C95.0364356,22.1211089 92.636198,21.1480396 90.6900594,19.2667723 C88.7439208,17.385505 87.7708515,14.9852673 87.7708515,12.195802 C87.7708515,9.34146535 88.7439208,7.00609901 90.6900594,5.12483168 C92.636198,3.24356436 95.0364356,2.27049505 97.8907723,2.27049505 C100.745109,2.27049505 103.145347,3.24356436 105.091485,5.12483168 C107.037624,7.00609901 108.010693,9.40633663 108.010693,12.195802 C108.010693,15.0501386 107.037624,17.385505 105.091485,19.2667723 Z M103.599446,12.195802 C103.599446,10.5091485 103.015604,9.01710891 101.912792,7.78455446 C100.80998,6.552 99.4476832,5.96815842 97.825901,5.96815842 C96.2041188,5.96815842 94.8418218,6.552 93.7390099,7.78455446 C92.636198,9.01710891 92.0523564,10.4442772 92.0523564,12.195802 C92.0523564,13.8824554 92.636198,15.374495 93.7390099,16.6070495 C94.8418218,17.839604 96.2041188,18.4234455 97.825901,18.4234455 C99.4476832,18.4234455 100.80998,17.839604 101.912792,16.6070495 C103.080475,15.374495 103.599446,13.9473267 103.599446,12.195802 Z" id="Shape"></path>
                    <path d="M116.768317,16.9962772 C117.481901,17.9044752 118.45497,18.3585743 119.687525,18.3585743 C120.920079,18.3585743 121.893149,17.9044752 122.541861,16.9962772 C123.255446,16.0880792 123.579802,14.8555248 123.579802,13.3634851 L123.579802,2.72459406 L127.861307,2.72459406 L127.861307,13.4932277 C127.861307,16.2826931 127.082851,18.4234455 125.525941,19.9154851 C123.96903,21.4075248 122.022891,22.1859802 119.622653,22.1859802 C117.222416,22.1859802 115.211406,21.4075248 113.654495,19.9154851 C112.097584,18.4234455 111.319129,16.2826931 111.319129,13.4932277 L111.319129,2.72459406 L115.600634,2.72459406 L115.600634,13.3634851 C115.665505,14.8555248 116.054733,16.0880792 116.768317,16.9962772 L116.768317,16.9962772 Z" id="Path"></path>
                    <path d="M147.063208,5.18970297 C148.879604,6.87635644 149.852673,9.21172277 149.852673,12.195802 C149.852673,15.1798812 148.944475,17.5801188 147.19295,19.3316436 C145.376554,21.0831683 142.65196,21.926495 139.019168,21.926495 L132.337426,21.926495 L132.337426,2.65972277 L139.148911,2.65972277 C142.587089,2.65972277 145.246812,3.5030495 147.063208,5.18970297 Z M143.949386,16.6719208 C144.987327,15.6988515 145.506297,14.2068119 145.506297,12.3255446 C145.506297,10.4442772 144.987327,8.95223762 143.949386,7.97916832 C142.911446,6.94122772 141.289663,6.42225743 139.08404,6.42225743 L136.683802,6.42225743 L136.683802,18.1639604 L139.408396,18.1639604 C141.354535,18.1639604 142.846574,17.6449901 143.949386,16.6719208 Z" id="Shape"></path>
                    <polygon id="Path" points="174.309149 2.65972277 178.590653 2.65972277 178.590653 21.926495 174.309149 21.926495 165.097426 9.86043564 165.097426 21.926495 160.815921 21.926495 160.815921 2.65972277 164.837941 2.65972277 174.309149 15.0501386"></polygon>
                    <path d="M197.07897,21.926495 L195.262574,17.7747327 L187.153663,17.7747327 L185.337267,21.926495 L180.731406,21.926495 L189.034931,2.65972277 L193.186693,2.65972277 L201.490218,21.926495 L197.07897,21.926495 Z M191.305426,8.43326733 L188.905188,14.012198 L193.705663,14.012198 L191.305426,8.43326733 Z" id="Shape"></path>
                    <polygon id="Path" points="210.701941 6.42225743 210.701941 21.9913663 206.420436 21.9913663 206.420436 6.42225743 200.971248 6.42225743 200.971248 2.72459406 216.216 2.72459406 216.216 6.42225743"></polygon>
                    <polygon id="Path" points="219.26495 2.65972277 223.546455 2.65972277 223.546455 21.926495 219.26495 21.926495"></polygon>
                    <polygon id="Path" points="235.417901 14.920396 240.348119 2.65972277 245.018851 2.65972277 237.299168 21.926495 233.666376 21.926495 225.946693 2.65972277 230.617426 2.65972277"></polygon>
                    <polygon id="Path" points="261.171802 2.65972277 261.171802 6.48712871 251.570851 6.48712871 251.570851 10.4442772 260.198733 10.4442772 260.198733 14.1419406 251.570851 14.1419406 251.570851 18.1639604 261.496158 18.1639604 261.496158 21.9913663 247.289347 21.9913663 247.289347 2.72459406 261.171802 2.72459406"></polygon>
                    <path d="M57.4759604,38.3389307 C58.6436436,38.3389307 59.6167129,37.8848317 60.3951683,36.9117624 L61.9520792,38.5335446 C60.7195248,39.8958416 59.2923564,40.6094257 57.605703,40.6094257 C55.9190495,40.6094257 54.5567525,40.0904554 53.5188119,39.0525149 C52.416,38.0145743 51.8970297,36.6522772 51.8970297,35.0953663 C51.8970297,33.4735842 52.416,32.1761584 53.5188119,31.0733465 C54.6216238,29.9705347 55.9839208,29.4515644 57.5408317,29.4515644 C59.2923564,29.4515644 60.784396,30.1002772 62.0169505,31.4625743 L60.5249109,33.1492277 C59.7464554,32.1761584 58.8382574,31.7220594 57.6705743,31.7220594 C56.7623762,31.7220594 55.9839208,32.0464158 55.3352079,32.6302574 C54.686495,33.214099 54.3621386,33.9925545 54.3621386,35.030495 C54.3621386,36.0684356 54.686495,36.8468911 55.2703366,37.4307327 C55.8541782,38.0794455 56.6326337,38.3389307 57.4759604,38.3389307 L57.4759604,38.3389307 Z" id="Path"></path>
                    <path d="M72.6558416,38.9876436 C71.5530297,40.0255842 70.1907327,40.6094257 68.6338218,40.6094257 C67.0120396,40.6094257 65.7146139,40.0904554 64.611802,38.9876436 C63.5089901,37.949703 62.9900198,36.5874059 62.9900198,35.030495 C62.9900198,33.4735842 63.5089901,32.1112871 64.611802,31.0733465 C65.7146139,30.0354059 67.0769109,29.4515644 68.6338218,29.4515644 C70.255604,29.4515644 71.5530297,29.9705347 72.6558416,31.0733465 C73.7586535,32.1112871 74.2776238,33.4735842 74.2776238,35.030495 C74.2776238,36.5874059 73.7586535,37.949703 72.6558416,38.9876436 Z M71.8773861,35.030495 C71.8773861,34.0574257 71.5530297,33.214099 70.9691881,32.5653861 C70.3204752,31.9166733 69.6068911,31.5274455 68.6986931,31.5274455 C67.790495,31.5274455 67.0120396,31.851802 66.428198,32.5653861 C65.7794851,33.214099 65.52,34.0574257 65.52,35.030495 C65.52,36.0035644 65.8443564,36.7820198 66.428198,37.495604 C67.0769109,38.1443168 67.790495,38.5335446 68.6986931,38.5335446 C69.6068911,38.5335446 70.3853465,38.2091881 70.9691881,37.495604 C71.5530297,36.8468911 71.8773861,36.0035644 71.8773861,35.030495 Z" id="Shape"></path>
                    <polygon id="Path" points="86.0193267 33.668198 83.1001188 39.5714851 81.6729505 39.5714851 78.7537426 33.668198 78.7537426 40.4796832 76.353505 40.4796832 76.353505 29.6461782 79.5970693 29.6461782 82.3865347 35.5494653 85.176 29.6461782 88.4195644 29.6461782 88.4195644 40.4796832 86.0193267 40.4796832"></polygon>
                    <path d="M98.5394851,30.6841188 C99.3179406,31.3328317 99.7071683,32.305901 99.7071683,33.668198 C99.7071683,35.030495 99.3179406,36.0035644 98.5394851,36.5874059 C97.7610297,37.2361188 96.5933465,37.495604 94.9715644,37.495604 L93.544396,37.495604 L93.544396,40.4796832 L91.1441584,40.4796832 L91.1441584,29.6461782 L94.9715644,29.6461782 C96.5933465,29.7110495 97.7610297,30.0354059 98.5394851,30.6841188 L98.5394851,30.6841188 Z M96.7879604,34.9007525 C97.0474455,34.576396 97.2420594,34.122297 97.2420594,33.4735842 C97.2420594,32.8248713 97.0474455,32.4356436 96.6582178,32.1761584 C96.2689901,31.9166733 95.6851485,31.7869307 94.9066931,31.7869307 L93.544396,31.7869307 L93.544396,35.4197228 L95.1661782,35.4197228 C95.9446337,35.4197228 96.463604,35.2251089 96.7879604,34.9007525 Z" id="Shape"></path>
                    <path d="M104.442772,37.6902178 C104.832,38.2091881 105.415842,38.4686733 106.064554,38.4686733 C106.713267,38.4686733 107.297109,38.2091881 107.686337,37.6902178 C108.075564,37.1712475 108.270178,36.5225347 108.270178,35.6143366 L108.270178,29.6461782 L110.670416,29.6461782 L110.670416,35.6792079 C110.670416,37.2361188 110.216317,38.4686733 109.37299,39.312 C108.529663,40.1553267 107.426851,40.5445545 106.064554,40.5445545 C104.702257,40.5445545 103.599446,40.0904554 102.756119,39.2471287 C101.912792,38.403802 101.458693,37.1712475 101.458693,35.6143366 L101.458693,29.5813069 L103.858931,29.5813069 L103.858931,35.5494653 C103.858931,36.5225347 104.053545,37.2361188 104.442772,37.6902178 L104.442772,37.6902178 Z" id="Path"></path>
                    <polygon id="Path" points="117.741386 31.7869307 117.741386 40.4796832 115.341149 40.4796832 115.341149 31.7869307 112.292198 31.7869307 112.292198 29.7110495 120.855208 29.7110495 120.855208 31.7869307"></polygon>
                    <polygon id="Path" points="122.606733 29.7110495 125.00697 29.7110495 125.00697 40.5445545 122.606733 40.5445545"></polygon>
                    <polygon id="Path" points="135.191762 29.7110495 137.592 29.7110495 137.592 40.5445545 135.191762 40.5445545 130.066931 33.7979406 130.066931 40.5445545 127.666693 40.5445545 127.666693 29.7110495 129.937188 29.7110495 135.256634 36.6522772 135.256634 29.7110495"></polygon>
                    <path d="M147.322693,35.030495 L149.722931,35.030495 L149.722931,38.857901 C148.620119,40.0255842 147.19295,40.674297 145.246812,40.674297 C143.689901,40.674297 142.327604,40.1553267 141.224792,39.1173861 C140.12198,38.0794455 139.60301,36.7171485 139.60301,35.1602376 C139.60301,33.5384554 140.12198,32.2410297 141.224792,31.1382178 C142.327604,30.0354059 143.62503,29.5164356 145.181941,29.5164356 C146.738851,29.5164356 148.101149,30.0354059 149.20396,31.0733465 L147.971406,32.8897426 C147.517307,32.4356436 147.063208,32.1761584 146.609109,32.0464158 C146.219881,31.9166733 145.765782,31.7869307 145.311683,31.7869307 C144.403485,31.7869307 143.62503,32.1112871 142.976317,32.6951287 C142.327604,33.3438416 142.003248,34.122297 142.003248,35.1602376 C142.003248,36.1981782 142.327604,36.9766337 142.911446,37.6253465 C143.495287,38.2091881 144.208871,38.5335446 145.052198,38.5335446 C145.895525,38.5335446 146.609109,38.403802 147.128079,38.0794455 L147.128079,35.030495 L147.322693,35.030495 Z" id="Path"></path>
                    <polygon id="Path" points="163.345901 29.7110495 163.345901 31.851802 158.350812 31.851802 158.350812 34.1871683 163.086416 34.1871683 163.086416 36.3279208 158.350812 36.3279208 158.350812 40.5445545 155.950574 40.5445545 155.950574 29.7110495"></polygon>
                    <path d="M174.503762,38.9876436 C173.40095,40.0255842 172.038653,40.6094257 170.481743,40.6094257 C168.85996,40.6094257 167.562535,40.0904554 166.459723,38.9876436 C165.356911,37.949703 164.837941,36.5874059 164.837941,35.030495 C164.837941,33.4735842 165.356911,32.1112871 166.459723,31.0733465 C167.562535,30.0354059 168.924832,29.4515644 170.481743,29.4515644 C172.103525,29.4515644 173.40095,29.9705347 174.503762,31.0733465 C175.606574,32.1112871 176.125545,33.4735842 176.125545,35.030495 C176.125545,36.5874059 175.606574,37.949703 174.503762,38.9876436 Z M173.660436,35.030495 C173.660436,34.0574257 173.336079,33.214099 172.752238,32.5653861 C172.103525,31.9166733 171.389941,31.5274455 170.481743,31.5274455 C169.573545,31.5274455 168.795089,31.851802 168.211248,32.5653861 C167.562535,33.214099 167.30305,34.0574257 167.30305,35.030495 C167.30305,36.0035644 167.627406,36.7820198 168.211248,37.495604 C168.85996,38.1443168 169.573545,38.5335446 170.481743,38.5335446 C171.389941,38.5335446 172.168396,38.2091881 172.752238,37.495604 C173.40095,36.8468911 173.660436,36.0035644 173.660436,35.030495 Z" id="Shape"></path>
                    <path d="M181.055762,37.6902178 C181.44499,38.2091881 182.028832,38.4686733 182.677545,38.4686733 C183.326257,38.4686733 183.910099,38.2091881 184.299327,37.6902178 C184.688554,37.1712475 184.883168,36.5225347 184.883168,35.6143366 L184.883168,29.6461782 L187.283406,29.6461782 L187.283406,35.6792079 C187.283406,37.2361188 186.829307,38.4686733 185.98598,39.312 C185.142653,40.1553267 184.039842,40.5445545 182.677545,40.5445545 C181.315248,40.5445545 180.212436,40.0904554 179.369109,39.2471287 C178.525782,38.403802 178.071683,37.1712475 178.071683,35.6143366 L178.071683,29.5813069 L180.471921,29.5813069 L180.471921,35.5494653 C180.40705,36.5225347 180.666535,37.2361188 181.055762,37.6902178 L181.055762,37.6902178 Z" id="Path"></path>
                    <polygon id="Path" points="197.338455 29.7110495 199.738693 29.7110495 199.738693 40.5445545 197.338455 40.5445545 192.213624 33.7979406 192.213624 40.5445545 189.813386 40.5445545 189.813386 29.7110495 192.083881 29.7110495 197.403327 36.6522772 197.403327 29.7110495"></polygon>
                    <path d="M210.637069,31.1382178 C211.67501,32.1112871 212.19398,33.4087129 212.19398,35.0953663 C212.19398,36.7820198 211.67501,38.0794455 210.701941,39.0525149 C209.728871,40.0255842 208.17196,40.5445545 206.096079,40.5445545 L202.398416,40.5445545 L202.398416,29.7110495 L206.225822,29.7110495 C208.17196,29.7110495 209.664,30.1651485 210.637069,31.1382178 L210.637069,31.1382178 Z M208.885545,37.5604752 C209.469386,36.9766337 209.793743,36.1981782 209.793743,35.1602376 C209.793743,34.122297 209.469386,33.2789703 208.885545,32.6951287 C208.301703,32.1112871 207.393505,31.851802 206.16095,31.851802 L204.798653,31.851802 L204.798653,38.403802 L206.355564,38.403802 C207.458376,38.3389307 208.301703,38.0794455 208.885545,37.5604752 L208.885545,37.5604752 Z" id="Shape"></path>
                    <path d="M221.665188,40.4796832 L220.692119,38.1443168 L216.151129,38.1443168 L215.178059,40.4796832 L212.583208,40.4796832 L217.253941,29.6461782 L219.589307,29.6461782 L224.26004,40.4796832 L221.665188,40.4796832 Z M218.421624,32.8897426 L217.059327,36.0035644 L219.783921,36.0035644 L218.421624,32.8897426 Z" id="Shape"></path>
                    <polygon id="Path" points="229.32 31.7869307 229.32 40.4796832 226.919762 40.4796832 226.919762 31.7869307 223.805941 31.7869307 223.805941 29.7110495 232.36895 29.7110495 232.36895 31.7869307"></polygon>
                    <polygon id="Path" points="234.120475 29.7110495 236.520713 29.7110495 236.520713 40.5445545 234.120475 40.5445545"></polygon>
                    <path d="M248.262416,38.9876436 C247.159604,40.0255842 245.797307,40.6094257 244.240396,40.6094257 C242.618614,40.6094257 241.321188,40.0904554 240.218376,38.9876436 C239.115564,37.949703 238.596594,36.5874059 238.596594,35.030495 C238.596594,33.4735842 239.115564,32.1112871 240.218376,31.0733465 C241.321188,30.0354059 242.683485,29.4515644 244.240396,29.4515644 C245.862178,29.4515644 247.159604,29.9705347 248.262416,31.0733465 C249.365228,32.1112871 249.884198,33.4735842 249.884198,35.030495 C249.884198,36.5874059 249.365228,37.949703 248.262416,38.9876436 Z M247.48396,35.030495 C247.48396,34.0574257 247.159604,33.214099 246.575762,32.5653861 C245.92705,31.9166733 245.213465,31.5274455 244.305267,31.5274455 C243.397069,31.5274455 242.618614,31.851802 242.034772,32.5653861 C241.386059,33.214099 241.126574,34.0574257 241.126574,35.030495 C241.126574,36.0035644 241.450931,36.7820198 242.034772,37.495604 C242.683485,38.1443168 243.397069,38.5335446 244.305267,38.5335446 C245.213465,38.5335446 245.991921,38.2091881 246.575762,37.495604 C247.159604,36.8468911 247.48396,36.0035644 247.48396,35.030495 Z" id="Shape"></path>
                    <polygon id="Path" points="259.485149 29.7110495 261.885386 29.7110495 261.885386 40.5445545 259.485149 40.5445545 254.360317 33.7979406 254.360317 40.5445545 251.960079 40.5445545 251.960079 29.7110495 254.230574 29.7110495 259.55002 36.6522772"></polygon>
                    <polygon id="Path" points="6.16277228 27.7000396 0.259485149 27.7000396 0.259485149 41.582495 14.0770693 41.582495 14.0770693 35.6143366 6.16277228 35.6143366"></polygon>
                    <polygon id="Path" points="35.8738218 27.7649109 35.8738218 35.6143366 27.9595248 35.6143366 27.9595248 35.5494653 27.9595248 41.582495 41.7771089 41.582495 41.7771089 27.7000396 35.8089505 27.7000396"></polygon>
                    <polygon id="Path" points="0.259485149 13.8824554 6.22764356 13.8824554 6.16277228 13.8175842 6.16277228 5.96815842 14.0770693 5.96815842 14.0770693 -1.15234555e-15 0.259485149 -1.15234555e-15"></polygon>
                    <polygon id="Path" points="27.9595248 0 27.9595248 5.96815842 35.8738218 5.96815842 35.8738218 13.8824554 41.7771089 13.8824554 41.7771089 0"></polygon>
                    <g id="Group" opacity="0.8">
                        <polygon id="Path" points="27.1810693 13.8824554 19.2667723 5.96815842 27.9595248 5.96815842 27.9595248 0 14.0770693 0 14.0770693 5.96815842 21.9913663 13.8824554"></polygon>
                        <polygon id="Path" points="20.0452277 27.7000396 14.8555248 27.7000396 21.4075248 34.2520396 22.7049505 35.6143366 14.0770693 35.6143366 14.0770693 41.582495 27.9595248 41.582495 27.9595248 35.5494653 24.0023762 31.6571881"></polygon>
                        <polygon id="Path" points="35.8738218 13.8824554 35.8738218 22.5103366 34.5115248 21.1480396 27.9595248 14.5960396 27.9595248 19.8506139 31.851802 23.7428911 35.8089505 27.7000396 41.7771089 27.7000396 41.7771089 13.8824554"></polygon>
                        <polygon id="Path" points="14.0770693 21.7318812 6.22764356 13.8824554 0.259485149 13.8824554 0.259485149 27.7000396 6.16277228 27.7000396 6.16277228 19.0721584 14.0770693 26.9864554"></polygon>
                    </g>
                </g>
                <g id="Group-14" transform="translate(28.900000, 50.000000)">
                    <mask id="mask-4" fill="white">
                        <use xlink:href="#path-3"></use>
                    </mask>
                    <g id="Mask"></g>
                    <g mask="url(#mask-4)" fill-rule="nonzero" id="Combined-Shape">
                        <g transform="translate(30.600000, 4.500000)">
                            <use fill="#002C66" xlink:href="#path-5"></use>
                            <use fill-opacity="0.6" fill="#006BB8" xlink:href="#path-5"></use>
                        </g>
                    </g>
                </g>
                <g id="Group-2" transform="translate(189.900000, 0.500000)" fill-rule="nonzero">
                    <g id="path342" transform="translate(59.126383, 88.224027) scale(1, -1) translate(-59.126383, -88.224027) ">
                        <use fill="#002C66" xlink:href="#path-6"></use>
                        <use fill-opacity="0.15" fill="#000000" xlink:href="#path-6"></use>
                    </g>
                    <g id="Combined-Shape" transform="translate(85.219177, 104.227402) scale(1, -1) translate(-85.219177, -104.227402) ">
                        <use fill="#002C66" xlink:href="#path-7"></use>
                        <use fill-opacity="0.15" fill="#000000" xlink:href="#path-7"></use>
                    </g>
                    <g id="Combined-Shape" transform="translate(156.079902, 101.710753) scale(1, -1) translate(-156.079902, -101.710753) ">
                        <use fill="#002C66" xlink:href="#path-8"></use>
                        <use fill-opacity="0.15" fill="#000000" xlink:href="#path-8"></use>
                    </g>
                    <g id="Group-4" transform="translate(45.000000, 115.390883) scale(1, -1) translate(-45.000000, -115.390883) translate(0.000000, 90.890883)">
                        <polygon id="path410" fill="#14BA5A" points="3.06983363 0 44.3199884 0 89.9038919 45.9804333 87.3473075 48.51497 42.8188336 3.59993566 3.06983363 3.6"></polygon>
                        <g id="path160" transform="translate(1.000000, 25.650000) scale(1, -1) translate(-1.000000, -25.650000) translate(0.000000, 24.650000)" fill="#3389C6">
                            <polygon transform="translate(23.283070, 12.344204) scale(1, -1) translate(-23.283070, -12.344204) " points="23.3139995 20.9884085 8.30679991 13.7620087 6.01024717 3.7 40.5558926 3.7 38.3223992 13.7620087"></polygon>
                        </g>
                    </g>
                    <polygon id="path414" fill="#002C66" transform="translate(57.047803, 125.561382) scale(1, -1) translate(-57.047803, -125.561382) " points="47.8837602 124.602413 57.9845207 134.729014 66.2118456 126.518916 56.1110851 116.39375"></polygon>
                    <path d="M63.3096715,123.680912 L64.7538677,125.12798 L56.5696103,133.290703 L55.1268496,131.843636 L63.3096715,123.680912 Z M60.3806519,120.744141 L61.8248482,122.192644 L53.5960877,130.401306 L52.153327,128.952803 L60.3806519,120.744141 Z M57.5459501,117.902404 L58.9901464,119.350907 L50.7628215,127.55957 L49.3186252,126.111067 L57.5459501,117.902404 Z" id="Combined-Shape" fill="#FFFFFF" transform="translate(57.036246, 125.596554) scale(1, -1) translate(-57.036246, -125.596554) "></path>
                    <polygon id="path364" fill="#006BB8" transform="translate(87.704673, 54.597510) scale(1, -1) translate(-87.704673, -54.597510) " points="123.368856 51.9912097 90.2600107 18.9297382 52.0404902 57.2023753 85.1493359 90.2652824"></polygon>
                    <path d="M51.6045037,7.4938857 L58.1674139,14.0414352 L64.1293892,8.06510409 L73.4764688,17.3892143 L67.5150677,23.365689 L61.8106359,29.0836152 L64.3157279,31.5829649 L60.0908077,35.8179341 L57.5862587,33.3188857 L50.3828227,40.5410014 L34.4722587,24.6691982 L40.6512587,18.4738857 L42.4876916,11.9304107 L44.8382587,14.2758857 L45.0252278,14.0903886 L51.6045037,7.4938857 Z" id="Combined-Shape" fill="#006BB8" transform="translate(53.974364, 24.017444) scale(1, -1) translate(-53.974364, -24.017444) "></path>
                    <path d="M36.2490795,0 L36.2014417,0.098 L52.0594417,15.917 L52.0628852,15.9161628 L47.5623332,25.1814141 L42.8062474,20.4382486 L42.9044417,20.39 L31.7494417,9.262 L31.7485275,9.2652513 L26.9924417,4.52208578 L36.1444417,0.051 L36.1503114,0.0469435571 L36.1514417,0.048 L36.2490795,0 Z" id="Combined-Shape" fill="#F2F7FB" transform="translate(39.527663, 12.590707) scale(1, -1) translate(-39.527663, -12.590707) "></path>
                    <polygon id="path392" fill="#F2F7FB" transform="translate(68.755268, 35.294233) scale(1, -1) translate(-68.755268, -35.294233) " points="76.8533901 27.1882153 78.1655128 44.6980185 59.3450225 25.8904484"></polygon>
                    <path d="M89.2157677,18.9205504 L99.2350072,28.9645504 L99.3162411,28.9650361 L99.3162411,101.427513 L85.1456034,101.427513 L85.1450072,31.2965504 L80.9870072,27.1292128 L89.2157677,18.9205504 Z" id="Combined-Shape" fill="#3389C6" transform="translate(90.151624, 60.174032) scale(1, -1) translate(-90.151624, -60.174032) "></path>
                </g>
                <g id="path396" fill-rule="nonzero" transform="translate(260.365047, 36.885332) scale(1, -1) translate(-260.365047, -36.885332) ">
                    <use fill="#002C66" xlink:href="#path-9"></use>
                    <use fill-opacity="0.15" fill="#000000" xlink:href="#path-9"></use>
                </g>
                <g id="Group-16" transform="translate(290.800000, 106.017178)">
                    <rect id="Rectangle" fill="#3389C6" x="3.6" y="0" width="36.9" height="6.3"></rect>
                    <polygon id="Rectangle" fill="#3389C6" points="3.6 9.9 40.5 9.9 36.9 40.9 7.2 40.9"></polygon>
                    <path d="M11.25,35.1 C22.9308225,35.1 32.4,25.6308225 32.4,13.95 C32.4,2.26917754 22.9308225,-7.2 11.25,-7.2" id="Oval" stroke="#14BA5A" stroke-width="1.8" transform="translate(21.825000, 13.950000) rotate(90.000000) translate(-21.825000, -13.950000) "></path>
                </g>
            </g>
        </g>
    </g>
</svg>