<svg height="48" viewBox="0 0 48 48" width="48" xmlns="http://www.w3.org/2000/svg"><g fill="none" fill-rule="nonzero"><circle cx="24" cy="24" fill="#14ba5a" r="24"/><path d="m20.7375 14.175 2.8875-1.05v-2.625l-2.8875-1.05c-.2625-.7875-.525-1.575-1.05-2.3625l1.3125-2.625-1.8375-1.8375-2.625 1.3125c-.7875-.525-1.575-.7875-2.3625-1.05l-1.05-2.8875h-2.625l-1.05 2.8875c-.7875.2625-1.575.525-2.3625 1.05l-2.625-1.3125-1.8375 1.8375 1.3125 2.8875c-.525.7875-.7875 1.575-1.05 2.3625l-2.8875.7875v2.625l2.8875 1.05c.2625.7875.525 1.575 1.05 2.3625l-1.3125 2.625 1.8375 1.8375 2.8875-1.3125c.7875.525 1.575.7875 2.3625 1.05l.7875 2.8875h2.625l1.05-2.8875c.7875-.2625 1.575-.525 2.3625-1.05l2.625 1.3125 1.8375-1.8375-1.3125-2.8875c.525-.525.7875-1.3125 1.05-2.1zm-8.925 2.8875c-2.8875 0-5.25-2.3625-5.25-5.25s2.3625-5.25 5.25-5.25 5.25 2.3625 5.25 5.25-2.3625 5.25-5.25 5.25z" fill="#fff" transform="translate(12 12)"/></g></svg>