<svg height="48" viewBox="0 0 48 48" width="48" xmlns="http://www.w3.org/2000/svg"><g fill="none" fill-rule="nonzero"><circle cx="24" cy="24" fill="#14ba5a" r="24"/><g fill="#fffffe" transform="translate(12 14)"><path d="m16.2197187.7711875c-.5319521-.20326701-1.127973.06311879-1.3313437.59503125l-6.703125 17.53125005c-.13760536.3454653-.07856274.7382595.1545239 1.0280045.23308665.289745.60411401.4315617.97103744.3711567s.67290934-.3136754.80081366-.6628487l6.703125-17.53125005c.203267-.53195211-.0631188-1.12797302-.5950313-1.33134375"/><path d="m23.9159375 8.8768125-5.4816094-3.37940625c-.313534-.19333373-.7063938-.20471304-1.0305927-.02985144-.3241989.17486159-.5304836.50939845-.5411484.87759376-.0106649.36819532.1759102.71411147.4894442.90744518l5.2196719 3.21801565c.0051648.0192534.0051648.0395278 0 .0587812l-5.2196719 3.2180156c-.3220013.1893863-.5164052.5381036-.50819.9115799.0082152.3734762.2177648.713308.5477823.8883521.3300176.1750441.7288956.1579275 1.0427046-.0447445l5.4816094-3.3794062.0850781-.0850781c.8476563-.8502267.8476563-2.22599215 0-3.07621878z"/><path d="m7.64796875 8.74740625-5.21967187-3.21801562c-.00516475-.01925341-.00516475-.03952785 0-.05878125l5.21967187-3.21801563c.32200133-.18938624.51640524-.53810359.50819006-.91157984-.00821519-.37347626-.2177648-.71330803-.54778234-.88835211-.33001753-.17504407-.72889558-.15792746-1.04270459.04474445l-5.48160938 3.37940625-.08507812.08507813c-.84765625.85022662-.84765625 2.22599212 0 3.07621874l.08507812.08507813 5.48160938 3.3794062c.48468164.2988681 1.11987413.1482364 1.41874215-.3364453.29886803-.48468161.14823634-1.11987411-.33644528-1.41874215" transform="translate(0 5)"/></g></g></svg>