<svg height="48" viewBox="0 0 48 48" width="48" xmlns="http://www.w3.org/2000/svg"><g fill="none" fill-rule="nonzero"><circle cx="24" cy="24" fill="#14ba5a" r="24"/><path d="m22.3340911 0c-1.729091 0-3.3621213.67242425-4.5268561 1.8371591l-8.44132585 7.49272732c-.76848485.76848488-1.7891288 1.18874998-2.8818182 1.18874998-2.24541668 0-4.07056821-1.81314392-4.07056821-4.0585606s1.82515153-4.05856063 4.07056821-4.05856063c1.0926894 0 2.11333335.42026515 2.9298485 1.23678031l1.35685605 1.20075758 1.813144-1.60901516-1.5129546-1.33284092c-1.22477272-1.22477273-2.85780303-1.89719698-4.58689395-1.89719698-3.5782576 0-6.48409095 2.90583335-6.48409095 6.4600758 0 3.5542424 2.90583335 6.4600758 6.48409095 6.4600758 1.72909092 0 3.36212123-.6724243 4.52685605-1.8371591l8.4413259-7.49272733c.7684848-.76848485 1.7891287-1.18875 2.8818182-1.18875 2.2454166 0 4.0705682 1.81314395 4.0705682 4.05856063s-1.8251516 4.0585606-4.0705682 4.0585606c-1.0806819 0-2.1133334-.4202651-2.9298486-1.23678028l-1.3688636-1.21276516-1.8131439 1.60901516 1.5249621 1.34484848c1.2247727 1.2127652 2.8457955 1.8851894 4.586894 1.8851894 3.5782575 0 6.4840909-2.8938258 6.4840909-6.46007578 0-3.56625002-2.9058334-6.44806822-6.4840909-6.44806822z" fill="#fff" transform="translate(9 18)"/></g></svg>