<?xml version="1.0" encoding="UTF-8"?>
<svg width="464px" height="266px" viewBox="0 0 464 266" version="1.1" xmlns="http://www.w3.org/2000/svg" xmlns:xlink="http://www.w3.org/1999/xlink">
    <title>cloud-native-computing</title>
    <defs>
        <rect id="path-1" x="0" y="0" width="463" height="43.186551"></rect>
        <rect id="path-3" x="0" y="0" width="378.9" height="97"></rect>
        <path d="M237.973366,0 L273.375829,34.7539058 L287.107,51.32 L311.901321,63.1549258 L318.809006,93.158762 L301.051,115.231 L301.051181,116.312308 L300.181,116.312 L299.454518,117.216811 L268.413543,117.216811 L267.686,116.312 L51.786,116.312 L50.3954633,118.041811 L19.3544877,118.041811 L0,93.983762 L6.90768487,63.9799258 L34.8738574,50.6296154 L47.277,56.55 L53.0297321,31.563772 L80.9959046,18.2134615 L108.964313,31.563772 L110.607,38.699 L138.019527,25.6130769 L157.25,34.793 L160.368315,21.2503104 L188.334487,7.9 L216.302896,21.2503104 L216.655,22.783 L237.973366,0 Z" id="path-5"></path>
        <polygon id="path-6" points="66.2117021 51.9920711 52.0410644 51.9920711 52.0410644 124.455983 66.2117021 124.455983"></polygon>
        <path d="M87.8071739,62.0071273 L87.8066616,116.028127 L106.428692,134.648621 L94.6296376,146.447676 L71.0588038,122.878278 L71.2196616,122.717127 L71.1213952,122.717923 L71.1206616,69.4241273 L64.0096616,62.0128696 L71.1206616,62.0221273 L71.1213952,62.0071273 L87.8071739,62.0071273 Z" id="path-7"></path>
        <path d="M173.13075,56.9795728 L188.960149,57.0005728 L188.966951,56.9950771 L188.972149,57.0005728 L188.995375,57.0011066 L188.984149,57.0125728 L200.840656,68.7180461 L123.118204,146.441934 L111.319149,134.642879 L180.892149,65.0685728 L173.13075,56.9795728 Z" id="path-8"></path>
        <polygon id="path-9" points="278.754108 30.4948348 275.333114 43.2758284 265.975986 33.9244421"></polygon>
    </defs>
    <g id="↳-keptn-2.0" stroke="none" stroke-width="1" fill="none" fill-rule="evenodd">
        <g id="Artboard" transform="translate(-41.000000, -37.000000)">
            <g id="cloud-native-computing" transform="translate(41.000000, 37.000000)">
                <g id="Rectangle" transform="translate(0.500000, 104.000000)">
                    <mask id="mask-2" fill="white">
                        <use xlink:href="#path-1"></use>
                    </mask>
                    <g id="Mask"></g>
                    <g mask="url(#mask-2)" fill="#14BA5A" fill-rule="nonzero" id="Combined-Shape">
                        <g transform="translate(9.039046, 10.645987)">
                            <path d="M413.299556,0.334779482 L34.6353673,0.334779482 L0.399429768,34.7882249 L447.535494,34.7882249 L413.299556,0.334779482 Z M412.740259,1.67926763 L444.301766,33.4425483 L3.6321493,33.4425483 L35.1936559,1.67926763 L412.740259,1.67926763 Z"></path>
                        </g>
                    </g>
                </g>
                <polygon id="path30" fill="#006BB8" fill-rule="nonzero" points="454.8 147 12 147 12 266 454.8 266"></polygon>
                <path d="M105.651367,244 C105.773438,244 105.861328,243.980469 105.915039,243.941406 C105.96875,243.902344 106.012695,243.821777 106.046875,243.699707 L106.046875,243.699707 L107.453125,238.645996 L109.04248,243.685059 C109.086426,243.807129 109.137695,243.890137 109.196289,243.934082 C109.254883,243.978027 109.340332,244 109.452637,244 L109.452637,244 L109.972656,244 C110.06543,244 110.132568,243.975586 110.174072,243.926758 C110.215576,243.87793 110.243652,243.777832 110.258301,243.626465 L110.258301,243.626465 L111.29834,236.302246 L111.38623,236.302246 C111.571777,236.302246 111.710938,236.261963 111.803711,236.181396 C111.896484,236.10083 111.942871,235.977539 111.942871,235.811523 C111.942871,235.669922 111.901367,235.551514 111.818359,235.456299 C111.735352,235.361084 111.640137,235.313477 111.532715,235.313477 L111.532715,235.313477 L109.166992,235.313477 C108.893555,235.313477 108.706787,235.350098 108.606689,235.42334 C108.506592,235.496582 108.456543,235.625977 108.456543,235.811523 C108.456543,235.982422 108.509033,236.106934 108.614014,236.185059 C108.718994,236.263184 108.883789,236.302246 109.108398,236.302246 L109.108398,236.302246 L110.258301,236.302246 L109.540527,242.125 L108.112305,237.71582 C108.068359,237.583984 108.015869,237.496094 107.954834,237.452148 C107.893799,237.408203 107.79248,237.38623 107.650879,237.38623 L107.650879,237.38623 L107.321289,237.38623 C107.174805,237.38623 107.073486,237.406982 107.017334,237.448486 C106.961182,237.48999 106.911133,237.588867 106.867188,237.745117 L106.867188,237.745117 L105.607422,242.125 L104.816406,236.302246 L105.849121,236.302246 C106.068848,236.302246 106.231201,236.263184 106.336182,236.185059 C106.441162,236.106934 106.493652,235.982422 106.493652,235.811523 C106.493652,235.625977 106.443604,235.496582 106.343506,235.42334 C106.243408,235.350098 106.059082,235.313477 105.790527,235.313477 L105.790527,235.313477 L103.41748,235.313477 C103.305176,235.313477 103.209961,235.359863 103.131836,235.452637 C103.053711,235.54541 103.014648,235.665039 103.014648,235.811523 C103.014648,235.972656 103.062256,236.094727 103.157471,236.177734 C103.252686,236.260742 103.395508,236.302246 103.585938,236.302246 L103.585938,236.302246 L103.673828,236.302246 L104.787109,243.611816 C104.806641,243.777832 104.8396,243.884033 104.885986,243.93042 C104.932373,243.976807 105.004395,244 105.102051,244 L105.102051,244 L105.651367,244 Z M116.425293,244.183105 C116.937988,244.183105 117.454346,244.119629 117.974365,243.992676 C118.494385,243.865723 118.998535,243.682617 119.486816,243.443359 C119.711426,243.331055 119.875,243.216309 119.977539,243.099121 C120.080078,242.981934 120.131348,242.852539 120.131348,242.710938 C120.131348,242.574219 120.08252,242.459473 119.984863,242.366699 C119.887207,242.273926 119.765137,242.227539 119.618652,242.227539 C119.477051,242.227539 119.069336,242.380127 118.395508,242.685303 C117.72168,242.990479 117.099121,243.143066 116.527832,243.143066 C115.770996,243.143066 115.174072,242.951416 114.737061,242.568115 C114.300049,242.184814 114.062012,241.641602 114.022949,240.938477 L114.022949,240.938477 L119.054688,240.938477 C119.5625,240.938477 119.873779,240.89209 119.988525,240.799316 C120.103271,240.706543 120.160645,240.523438 120.160645,240.25 C120.160645,239.361328 119.821289,238.604492 119.142578,237.979492 C118.463867,237.354492 117.609375,237.041992 116.579102,237.041992 C115.441406,237.041992 114.518555,237.376465 113.810547,238.04541 C113.102539,238.714355 112.748535,239.588379 112.748535,240.66748 C112.748535,241.727051 113.083008,242.577881 113.751953,243.219971 C114.420898,243.862061 115.312012,244.183105 116.425293,244.183105 Z M118.827637,239.979004 L114.05957,239.979004 C114.201172,239.373535 114.494141,238.899902 114.938477,238.558105 C115.382812,238.216309 115.929688,238.04541 116.579102,238.04541 C117.179688,238.04541 117.686279,238.222412 118.098877,238.576416 C118.511475,238.93042 118.754395,239.397949 118.827637,239.979004 L118.827637,239.979004 Z M133.424805,244.183105 C133.922852,244.183105 134.407471,244.087891 134.878662,243.897461 C135.349854,243.707031 135.785645,243.431152 136.186035,243.069824 L136.186035,243.069824 L136.244629,243.516602 C136.273926,243.672852 136.33252,243.79248 136.42041,243.875488 C136.508301,243.958496 136.620605,244 136.757324,244 L136.757324,244 L137.907227,244 C138.102539,244 138.249023,243.956055 138.34668,243.868164 C138.444336,243.780273 138.493164,243.648438 138.493164,243.472656 C138.493164,243.282227 138.43457,243.150391 138.317383,243.077148 C138.200195,243.003906 137.968262,242.967285 137.621582,242.967285 L137.621582,242.967285 L137.262695,242.967285 L137.262695,239.649414 C137.262695,238.794922 137.042969,238.14917 136.603516,237.712158 C136.164062,237.275146 135.514648,237.056641 134.655273,237.056641 C133.81543,237.056641 133.125732,237.156738 132.586182,237.356934 C132.046631,237.557129 131.776855,237.80127 131.776855,238.089355 C131.776855,238.27002 131.823242,238.417725 131.916016,238.532471 C132.008789,238.647217 132.125977,238.70459 132.267578,238.70459 C132.418945,238.70459 132.729004,238.602051 133.197754,238.396973 C133.666504,238.191895 134.091309,238.089355 134.472168,238.089355 C135.038574,238.089355 135.456055,238.223633 135.724609,238.492188 C135.993164,238.760742 136.127441,239.175781 136.127441,239.737305 L136.127441,239.737305 L136.127441,239.788574 C135.824707,239.710449 135.529297,239.653076 135.241211,239.616455 C134.953125,239.579834 134.66748,239.561523 134.384277,239.561523 C133.310059,239.561523 132.476318,239.773926 131.883057,240.19873 C131.289795,240.623535 130.993164,241.22168 130.993164,241.993164 C130.993164,242.642578 131.216553,243.169922 131.66333,243.575195 C132.110107,243.980469 132.697266,244.183105 133.424805,244.183105 Z M133.60791,243.055176 C133.187988,243.055176 132.842529,242.947754 132.571533,242.73291 C132.300537,242.518066 132.165039,242.244629 132.165039,241.912598 C132.165039,241.48291 132.382324,241.141113 132.816895,240.887207 C133.251465,240.633301 133.844727,240.506348 134.59668,240.506348 C134.845703,240.506348 135.095947,240.5271 135.347412,240.568604 C135.598877,240.610107 135.858887,240.674805 136.127441,240.762695 L136.127441,240.762695 L136.127441,241.553711 C136.127441,241.905273 135.862549,242.243408 135.332764,242.568115 C134.802979,242.892822 134.228027,243.055176 133.60791,243.055176 Z M145.172852,244 C145.402344,244 145.559814,243.962158 145.645264,243.886475 C145.730713,243.810791 145.773438,243.672852 145.773438,243.472656 C145.773438,243.296875 145.728271,243.168701 145.637939,243.088135 C145.547607,243.007568 145.407227,242.967285 145.216797,242.967285 L145.216797,242.967285 L142.785156,242.967285 L142.785156,239.935059 C143.297852,239.349121 143.765381,238.920654 144.187744,238.649658 C144.610107,238.378662 145.011719,238.243164 145.392578,238.243164 C145.602539,238.243164 145.840576,238.317627 146.106689,238.466553 C146.372803,238.615479 146.562012,238.689941 146.674316,238.689941 C146.835449,238.689941 146.983154,238.620361 147.117432,238.481201 C147.251709,238.342041 147.318848,238.182129 147.318848,238.001465 C147.318848,237.723145 147.18457,237.496094 146.916016,237.320312 C146.647461,237.144531 146.295898,237.056641 145.861328,237.056641 C145.280273,237.056641 144.738281,237.198242 144.235352,237.481445 C143.732422,237.764648 143.249023,238.196777 142.785156,238.777832 L142.785156,238.777832 L142.785156,237.532715 C142.785156,237.435059 142.750977,237.360596 142.682617,237.309326 C142.614258,237.258057 142.51416,237.232422 142.382324,237.232422 L142.382324,237.232422 L140.712402,237.232422 C140.51709,237.232422 140.371826,237.275146 140.276611,237.360596 C140.181396,237.446045 140.133789,237.574219 140.133789,237.745117 C140.133789,237.945312 140.192383,238.083252 140.30957,238.158936 C140.426758,238.234619 140.722168,238.272461 141.195801,238.272461 L141.195801,238.272461 L141.693848,238.272461 L141.693848,242.967285 L140.419434,242.967285 C140.209473,242.967285 140.054443,243.008789 139.954346,243.091797 C139.854248,243.174805 139.804199,243.301758 139.804199,243.472656 C139.804199,243.648438 139.853027,243.780273 139.950684,243.868164 C140.04834,243.956055 140.192383,244 140.382812,244 L140.382812,244 L145.172852,244 Z M152.431152,244.183105 C152.943848,244.183105 153.460205,244.119629 153.980225,243.992676 C154.500244,243.865723 155.004395,243.682617 155.492676,243.443359 C155.717285,243.331055 155.880859,243.216309 155.983398,243.099121 C156.085938,242.981934 156.137207,242.852539 156.137207,242.710938 C156.137207,242.574219 156.088379,242.459473 155.990723,242.366699 C155.893066,242.273926 155.770996,242.227539 155.624512,242.227539 C155.48291,242.227539 155.075195,242.380127 154.401367,242.685303 C153.727539,242.990479 153.10498,243.143066 152.533691,243.143066 C151.776855,243.143066 151.179932,242.951416 150.74292,242.568115 C150.305908,242.184814 150.067871,241.641602 150.028809,240.938477 L150.028809,240.938477 L155.060547,240.938477 C155.568359,240.938477 155.879639,240.89209 155.994385,240.799316 C156.109131,240.706543 156.166504,240.523438 156.166504,240.25 C156.166504,239.361328 155.827148,238.604492 155.148438,237.979492 C154.469727,237.354492 153.615234,237.041992 152.584961,237.041992 C151.447266,237.041992 150.524414,237.376465 149.816406,238.04541 C149.108398,238.714355 148.754395,239.588379 148.754395,240.66748 C148.754395,241.727051 149.088867,242.577881 149.757812,243.219971 C150.426758,243.862061 151.317871,244.183105 152.431152,244.183105 Z M154.833496,239.979004 L150.06543,239.979004 C150.207031,239.373535 150.5,238.899902 150.944336,238.558105 C151.388672,238.216309 151.935547,238.04541 152.584961,238.04541 C153.185547,238.04541 153.692139,238.222412 154.104736,238.576416 C154.517334,238.93042 154.760254,239.397949 154.833496,239.979004 L154.833496,239.979004 Z M169.430664,244.183105 C169.928711,244.183105 170.41333,244.087891 170.884521,243.897461 C171.355713,243.707031 171.791504,243.431152 172.191895,243.069824 L172.191895,243.069824 L172.250488,243.516602 C172.279785,243.672852 172.338379,243.79248 172.42627,243.875488 C172.51416,243.958496 172.626465,244 172.763184,244 L172.763184,244 L173.913086,244 C174.108398,244 174.254883,243.956055 174.352539,243.868164 C174.450195,243.780273 174.499023,243.648438 174.499023,243.472656 C174.499023,243.282227 174.44043,243.150391 174.323242,243.077148 C174.206055,243.003906 173.974121,242.967285 173.627441,242.967285 L173.627441,242.967285 L173.268555,242.967285 L173.268555,239.649414 C173.268555,238.794922 173.048828,238.14917 172.609375,237.712158 C172.169922,237.275146 171.520508,237.056641 170.661133,237.056641 C169.821289,237.056641 169.131592,237.156738 168.592041,237.356934 C168.05249,237.557129 167.782715,237.80127 167.782715,238.089355 C167.782715,238.27002 167.829102,238.417725 167.921875,238.532471 C168.014648,238.647217 168.131836,238.70459 168.273438,238.70459 C168.424805,238.70459 168.734863,238.602051 169.203613,238.396973 C169.672363,238.191895 170.097168,238.089355 170.478027,238.089355 C171.044434,238.089355 171.461914,238.223633 171.730469,238.492188 C171.999023,238.760742 172.133301,239.175781 172.133301,239.737305 L172.133301,239.737305 L172.133301,239.788574 C171.830566,239.710449 171.535156,239.653076 171.24707,239.616455 C170.958984,239.579834 170.67334,239.561523 170.390137,239.561523 C169.315918,239.561523 168.482178,239.773926 167.888916,240.19873 C167.295654,240.623535 166.999023,241.22168 166.999023,241.993164 C166.999023,242.642578 167.222412,243.169922 167.669189,243.575195 C168.115967,243.980469 168.703125,244.183105 169.430664,244.183105 Z M169.61377,243.055176 C169.193848,243.055176 168.848389,242.947754 168.577393,242.73291 C168.306396,242.518066 168.170898,242.244629 168.170898,241.912598 C168.170898,241.48291 168.388184,241.141113 168.822754,240.887207 C169.257324,240.633301 169.850586,240.506348 170.602539,240.506348 C170.851562,240.506348 171.101807,240.5271 171.353271,240.568604 C171.604736,240.610107 171.864746,240.674805 172.133301,240.762695 L172.133301,240.762695 L172.133301,241.553711 C172.133301,241.905273 171.868408,242.243408 171.338623,242.568115 C170.808838,242.892822 170.233887,243.055176 169.61377,243.055176 Z M188.751953,244.212402 C189.210938,244.212402 189.647949,244.148926 190.062988,244.021973 C190.478027,243.89502 190.890625,243.697266 191.300781,243.428711 C191.613281,243.233398 191.826904,243.068604 191.94165,242.934326 C192.056396,242.800049 192.11377,242.659668 192.11377,242.513184 C192.11377,242.366699 192.061279,242.243408 191.956299,242.143311 C191.851318,242.043213 191.723145,241.993164 191.571777,241.993164 C191.474121,241.993164 191.310547,242.074951 191.081055,242.238525 C190.851562,242.4021 190.670898,242.518066 190.539062,242.586426 C190.255859,242.747559 189.967773,242.868408 189.674805,242.948975 C189.381836,243.029541 189.09375,243.069824 188.810547,243.069824 C187.941406,243.069824 187.241943,242.753662 186.712158,242.121338 C186.182373,241.489014 185.91748,240.640625 185.91748,239.576172 C185.91748,238.511719 186.178711,237.66333 186.701172,237.031006 C187.223633,236.398682 187.916992,236.08252 188.78125,236.08252 C189.254883,236.08252 189.66748,236.198486 190.019043,236.43042 C190.370605,236.662354 190.592773,236.961426 190.685547,237.327637 C190.705078,237.400879 190.731934,237.505859 190.766113,237.642578 C190.86377,238.101562 191.07373,238.331055 191.395996,238.331055 C191.596191,238.331055 191.735352,238.290771 191.813477,238.210205 C191.891602,238.129639 191.930664,237.974609 191.930664,237.745117 C191.929579,237.752984 191.924696,237.573541 191.916016,237.206787 C191.90625,236.794189 191.901367,236.348633 191.901367,235.870117 C191.901367,235.59668 191.864746,235.416016 191.791504,235.328125 C191.718262,235.240234 191.591309,235.196289 191.410645,235.196289 C191.244629,235.196289 191.117676,235.223145 191.029785,235.276855 C190.941895,235.330566 190.873535,235.42334 190.824707,235.555176 C190.453613,235.398926 190.10083,235.281738 189.766357,235.203613 C189.431885,235.125488 189.103516,235.086426 188.78125,235.086426 C187.575195,235.086426 186.574219,235.520996 185.77832,236.390137 C184.982422,237.259277 184.584473,238.350586 184.584473,239.664062 C184.584473,240.992188 184.977539,242.082275 185.763672,242.934326 C186.549805,243.786377 187.545898,244.212402 188.751953,244.212402 Z M200.141113,244.117188 C200.380371,244.117188 200.532959,244.090332 200.598877,244.036621 C200.664795,243.98291 200.697754,243.885254 200.697754,243.743652 L200.697754,243.743652 L200.697754,236.368164 L200.785645,236.368164 C201.063965,236.368164 201.255615,236.329102 201.360596,236.250977 C201.465576,236.172852 201.518066,236.036133 201.518066,235.84082 C201.518066,235.665039 201.475342,235.533203 201.389893,235.445312 C201.304443,235.357422 201.173828,235.313477 200.998047,235.313477 L200.998047,235.313477 L198.895996,235.313477 C198.568848,235.313477 198.354004,235.351318 198.251465,235.427002 C198.148926,235.502686 198.097656,235.640625 198.097656,235.84082 C198.097656,236.021484 198.157471,236.154541 198.2771,236.23999 C198.396729,236.325439 198.588379,236.368164 198.852051,236.368164 L198.852051,236.368164 L199.657715,236.368164 L199.657715,242.154297 L195.966309,235.782227 C195.844238,235.572266 195.738037,235.44165 195.647705,235.390381 C195.557373,235.339111 195.399902,235.313477 195.175293,235.313477 L195.175293,235.313477 L194.486816,235.313477 C194.38916,235.313477 194.291504,235.315918 194.193848,235.320801 C194.096191,235.325684 194.047363,235.328125 194.047363,235.328125 C193.769043,235.328125 193.567627,235.368408 193.443115,235.448975 C193.318604,235.529541 193.256348,235.660156 193.256348,235.84082 C193.256348,236.036133 193.328369,236.172852 193.472412,236.250977 C193.616455,236.329102 193.893555,236.368164 194.303711,236.368164 L194.303711,236.368164 L194.486816,236.368164 L194.486816,242.967285 L194.347656,242.967285 C194.05957,242.967285 193.865479,243.002686 193.765381,243.073486 C193.665283,243.144287 193.615234,243.277344 193.615234,243.472656 C193.615234,243.648438 193.65918,243.780273 193.74707,243.868164 C193.834961,243.956055 193.966797,244 194.142578,244 L194.142578,244 L196.317871,244 C196.674316,244 196.905029,243.962158 197.01001,243.886475 C197.11499,243.810791 197.16748,243.672852 197.16748,243.472656 C197.16748,243.291992 197.111328,243.162598 196.999023,243.084473 C196.886719,243.006348 196.69873,242.967285 196.435059,242.967285 L196.435059,242.967285 L195.519531,242.967285 L195.519531,236.983398 L199.416016,243.699707 C199.547852,243.924316 199.641846,244.050049 199.697998,244.076904 C199.75415,244.10376 199.901855,244.117188 200.141113,244.117188 Z M206.754883,244.212402 C207.213867,244.212402 207.650879,244.148926 208.065918,244.021973 C208.480957,243.89502 208.893555,243.697266 209.303711,243.428711 C209.616211,243.233398 209.829834,243.068604 209.94458,242.934326 C210.059326,242.800049 210.116699,242.659668 210.116699,242.513184 C210.116699,242.366699 210.064209,242.243408 209.959229,242.143311 C209.854248,242.043213 209.726074,241.993164 209.574707,241.993164 C209.477051,241.993164 209.313477,242.074951 209.083984,242.238525 C208.854492,242.4021 208.673828,242.518066 208.541992,242.586426 C208.258789,242.747559 207.970703,242.868408 207.677734,242.948975 C207.384766,243.029541 207.09668,243.069824 206.813477,243.069824 C205.944336,243.069824 205.244873,242.753662 204.715088,242.121338 C204.185303,241.489014 203.92041,240.640625 203.92041,239.576172 C203.92041,238.511719 204.181641,237.66333 204.704102,237.031006 C205.226562,236.398682 205.919922,236.08252 206.78418,236.08252 C207.257812,236.08252 207.67041,236.198486 208.021973,236.43042 C208.373535,236.662354 208.595703,236.961426 208.688477,237.327637 C208.708008,237.400879 208.734863,237.505859 208.769043,237.642578 C208.866699,238.101562 209.07666,238.331055 209.398926,238.331055 C209.599121,238.331055 209.738281,238.290771 209.816406,238.210205 C209.894531,238.129639 209.933594,237.974609 209.933594,237.745117 C209.932509,237.752984 209.927626,237.573541 209.918945,237.206787 C209.90918,236.794189 209.904297,236.348633 209.904297,235.870117 C209.904297,235.59668 209.867676,235.416016 209.794434,235.328125 C209.721191,235.240234 209.594238,235.196289 209.413574,235.196289 C209.247559,235.196289 209.120605,235.223145 209.032715,235.276855 C208.944824,235.330566 208.876465,235.42334 208.827637,235.555176 C208.456543,235.398926 208.10376,235.281738 207.769287,235.203613 C207.434814,235.125488 207.106445,235.086426 206.78418,235.086426 C205.578125,235.086426 204.577148,235.520996 203.78125,236.390137 C202.985352,237.259277 202.587402,238.350586 202.587402,239.664062 C202.587402,240.992188 202.980469,242.082275 203.766602,242.934326 C204.552734,243.786377 205.548828,244.212402 206.754883,244.212402 Z M215.814941,244 C215.980957,244 216.10791,243.954834 216.195801,243.864502 C216.283691,243.77417 216.327637,243.643555 216.327637,243.472656 C216.327637,243.296875 216.28125,243.168701 216.188477,243.088135 C216.095703,243.007568 215.946777,242.967285 215.741699,242.967285 L215.741699,242.967285 L214.181641,242.967285 L214.181641,239.722656 L216.115234,239.722656 L216.115234,239.935059 C216.115234,240.291504 216.149414,240.530762 216.217773,240.652832 C216.286133,240.774902 216.408203,240.835938 216.583984,240.835938 C216.75,240.835938 216.865967,240.789551 216.931885,240.696777 C216.997803,240.604004 217.030762,240.435547 217.030762,240.191406 L217.030762,240.191406 L217.030762,238.331055 C217.030762,238.125977 216.995361,237.977051 216.924561,237.884277 C216.85376,237.791504 216.740234,237.745117 216.583984,237.745117 C216.408203,237.745117 216.286133,237.806152 216.217773,237.928223 C216.149414,238.050293 216.115234,238.289551 216.115234,238.645996 L216.115234,238.645996 L216.115234,238.836426 L214.181641,238.836426 L214.181641,236.368164 L218.158691,236.368164 L218.158691,237.415527 C218.158691,237.791504 218.195312,238.033203 218.268555,238.140625 C218.341797,238.248047 218.480957,238.301758 218.686035,238.301758 C218.852051,238.301758 218.977783,238.259033 219.063232,238.173584 C219.148682,238.088135 219.191406,237.959961 219.191406,237.789062 L219.191406,237.789062 L219.191406,235.899414 C219.191406,235.708984 219.148682,235.563721 219.063232,235.463623 C218.977783,235.363525 218.852051,235.313477 218.686035,235.313477 L218.686035,235.313477 L212.204102,235.313477 C212.038086,235.313477 211.911133,235.358643 211.823242,235.448975 C211.735352,235.539307 211.691406,235.669922 211.691406,235.84082 C211.691406,236.041016 211.743896,236.178955 211.848877,236.254639 C211.953857,236.330322 212.191895,236.368164 212.562988,236.368164 L212.562988,236.368164 L213.024414,236.368164 L213.024414,242.967285 L212.321289,242.967285 C212.091797,242.967285 211.929443,243.006348 211.834229,243.084473 C211.739014,243.162598 211.691406,243.291992 211.691406,243.472656 C211.691406,243.643555 211.735352,243.77417 211.823242,243.864502 C211.911133,243.954834 212.038086,244 212.204102,244 L212.204102,244 L215.814941,244 Z M230.792969,244.32959 C230.983398,244.32959 231.122559,244.286865 231.210449,244.201416 C231.29834,244.115967 231.354492,243.963379 231.378906,243.743652 C231.769531,243.919434 232.138184,244.048828 232.484863,244.131836 C232.831543,244.214844 233.180664,244.256348 233.532227,244.256348 C234.552734,244.256348 235.368164,244.008545 235.978516,243.512939 C236.588867,243.017334 236.894043,242.359375 236.894043,241.539062 C236.894043,240.845703 236.679199,240.295166 236.249512,239.887451 C235.819824,239.479736 235.180176,239.219727 234.330566,239.107422 L234.330566,239.107422 L233.158691,238.960938 C232.592285,238.882812 232.171143,238.736328 231.895264,238.521484 C231.619385,238.306641 231.481445,238.013672 231.481445,237.642578 C231.481445,237.168945 231.665771,236.785645 232.034424,236.492676 C232.403076,236.199707 232.882812,236.053223 233.473633,236.053223 C233.859375,236.053223 234.203613,236.119141 234.506348,236.250977 C234.809082,236.382812 235.041016,236.570801 235.202148,236.814941 C235.270508,236.91748 235.338867,237.071289 235.407227,237.276367 C235.548828,237.637695 235.749023,237.818359 236.007812,237.818359 C236.183594,237.818359 236.320312,237.770752 236.417969,237.675537 C236.515625,237.580322 236.564453,237.447266 236.564453,237.276367 L236.564453,237.276367 L236.564453,237.203125 L236.461914,235.672363 C236.442383,235.433105 236.391113,235.281738 236.308105,235.218262 C236.225098,235.154785 236.076172,235.123047 235.861328,235.123047 C235.695312,235.123047 235.578125,235.149902 235.509766,235.203613 C235.441406,235.257324 235.402344,235.35498 235.392578,235.496582 C235.016602,235.345215 234.679688,235.234131 234.381836,235.16333 C234.083984,235.092529 233.800781,235.057129 233.532227,235.057129 C232.609375,235.057129 231.839111,235.311035 231.221436,235.818848 C230.60376,236.32666 230.294922,236.954102 230.294922,237.701172 C230.294922,238.40918 230.526855,238.958496 230.990723,239.349121 C231.45459,239.739746 232.191895,240.005859 233.202637,240.147461 L233.202637,240.147461 L234.286621,240.293945 C234.750488,240.362305 235.103271,240.513672 235.344971,240.748047 C235.58667,240.982422 235.70752,241.29248 235.70752,241.678223 C235.70752,242.14209 235.510986,242.522949 235.11792,242.820801 C234.724854,243.118652 234.213379,243.267578 233.583496,243.267578 C233.070801,243.267578 232.630127,243.174805 232.261475,242.989258 C231.892822,242.803711 231.623047,242.540039 231.452148,242.198242 C231.398438,242.09082 231.342285,241.932129 231.283691,241.722168 C231.156738,241.302246 230.946777,241.092285 230.653809,241.092285 C230.443848,241.092285 230.293701,241.141113 230.203369,241.23877 C230.113037,241.336426 230.067871,241.502441 230.067871,241.736816 L230.067871,241.736816 L230.067871,241.868652 L230.163086,243.567871 C230.177734,243.836426 230.235107,244.030518 230.335205,244.150146 C230.435303,244.269775 230.587891,244.32959 230.792969,244.32959 Z M241.442383,244.183105 C241.94043,244.183105 242.425049,244.087891 242.89624,243.897461 C243.367432,243.707031 243.803223,243.431152 244.203613,243.069824 L244.203613,243.069824 L244.262207,243.516602 C244.291504,243.672852 244.350098,243.79248 244.437988,243.875488 C244.525879,243.958496 244.638184,244 244.774902,244 L244.774902,244 L245.924805,244 C246.120117,244 246.266602,243.956055 246.364258,243.868164 C246.461914,243.780273 246.510742,243.648438 246.510742,243.472656 C246.510742,243.282227 246.452148,243.150391 246.334961,243.077148 C246.217773,243.003906 245.98584,242.967285 245.63916,242.967285 L245.63916,242.967285 L245.280273,242.967285 L245.280273,239.649414 C245.280273,238.794922 245.060547,238.14917 244.621094,237.712158 C244.181641,237.275146 243.532227,237.056641 242.672852,237.056641 C241.833008,237.056641 241.143311,237.156738 240.60376,237.356934 C240.064209,237.557129 239.794434,237.80127 239.794434,238.089355 C239.794434,238.27002 239.84082,238.417725 239.933594,238.532471 C240.026367,238.647217 240.143555,238.70459 240.285156,238.70459 C240.436523,238.70459 240.746582,238.602051 241.215332,238.396973 C241.684082,238.191895 242.108887,238.089355 242.489746,238.089355 C243.056152,238.089355 243.473633,238.223633 243.742188,238.492188 C244.010742,238.760742 244.14502,239.175781 244.14502,239.737305 L244.14502,239.737305 L244.14502,239.788574 C243.842285,239.710449 243.546875,239.653076 243.258789,239.616455 C242.970703,239.579834 242.685059,239.561523 242.401855,239.561523 C241.327637,239.561523 240.493896,239.773926 239.900635,240.19873 C239.307373,240.623535 239.010742,241.22168 239.010742,241.993164 C239.010742,242.642578 239.234131,243.169922 239.680908,243.575195 C240.127686,243.980469 240.714844,244.183105 241.442383,244.183105 Z M241.625488,243.055176 C241.205566,243.055176 240.860107,242.947754 240.589111,242.73291 C240.318115,242.518066 240.182617,242.244629 240.182617,241.912598 C240.182617,241.48291 240.399902,241.141113 240.834473,240.887207 C241.269043,240.633301 241.862305,240.506348 242.614258,240.506348 C242.863281,240.506348 243.113525,240.5271 243.36499,240.568604 C243.616455,240.610107 243.876465,240.674805 244.14502,240.762695 L244.14502,240.762695 L244.14502,241.553711 C244.14502,241.905273 243.880127,242.243408 243.350342,242.568115 C242.820557,242.892822 242.245605,243.055176 241.625488,243.055176 Z M250.128906,244 C250.470703,244 250.685547,243.963379 250.773438,243.890137 C250.861328,243.816895 250.905273,243.677734 250.905273,243.472656 C250.905273,243.282227 250.854004,243.150391 250.751465,243.077148 C250.648926,243.003906 250.451172,242.967285 250.158203,242.967285 L250.158203,242.967285 L249.901855,242.967285 L249.901855,239.92041 C249.901855,239.422363 250.092285,239.004883 250.473145,238.667969 C250.854004,238.331055 251.293457,238.162598 251.791504,238.162598 C252.284668,238.162598 252.660645,238.312744 252.919434,238.613037 C253.178223,238.91333 253.307617,239.349121 253.307617,239.92041 L253.307617,239.92041 L253.307617,242.967285 L253.05127,242.967285 C252.768066,242.967285 252.575195,243.003906 252.472656,243.077148 C252.370117,243.150391 252.318848,243.282227 252.318848,243.472656 C252.318848,243.677734 252.362793,243.816895 252.450684,243.890137 C252.538574,243.963379 252.73877,244 253.05127,244 L253.05127,244 L254.669922,244 C254.962891,244 255.166748,243.959717 255.281494,243.87915 C255.39624,243.798584 255.453613,243.663086 255.453613,243.472656 C255.453613,243.296875 255.399902,243.168701 255.29248,243.088135 C255.185059,243.007568 255.009277,242.967285 254.765137,242.967285 L254.765137,242.967285 L254.420898,242.967285 L254.420898,239.649414 C254.420898,238.838867 254.209717,238.204102 253.787354,237.745117 C253.36499,237.286133 252.785156,237.056641 252.047852,237.056641 C251.671875,237.056641 251.309326,237.135986 250.960205,237.294678 C250.611084,237.453369 250.258301,237.69873 249.901855,238.030762 L249.901855,238.030762 L249.901855,237.532715 C249.901855,237.439941 249.865234,237.366699 249.791992,237.312988 C249.71875,237.259277 249.616211,237.232422 249.484375,237.232422 L249.484375,237.232422 L248.437012,237.232422 C248.20752,237.232422 248.041504,237.272705 247.938965,237.353271 C247.836426,237.433838 247.785156,237.564453 247.785156,237.745117 C247.785156,237.94043 247.847412,238.077148 247.971924,238.155273 C248.096436,238.233398 248.324707,238.272461 248.656738,238.272461 L248.656738,238.272461 L248.795898,238.272461 L248.795898,242.967285 L248.64209,242.967285 C248.310059,242.967285 248.08667,243.002686 247.971924,243.073486 C247.857178,243.144287 247.799805,243.277344 247.799805,243.472656 C247.799805,243.65332 247.849854,243.786377 247.949951,243.871826 C248.050049,243.957275 248.200195,244 248.400391,244 L248.400391,244 L250.128906,244 Z M259.921387,244.183105 C260.434082,244.183105 260.910156,244.081787 261.349609,243.87915 C261.789062,243.676514 262.155273,243.39209 262.448242,243.025879 L262.448242,243.025879 L262.448242,243.626465 C262.448242,243.772949 262.468994,243.871826 262.510498,243.923096 C262.552002,243.974365 262.624023,244 262.726562,244 L262.726562,244 L264.140137,244 C264.296387,244 264.420898,243.953613 264.513672,243.86084 C264.606445,243.768066 264.652832,243.638672 264.652832,243.472656 C264.652832,243.296875 264.599121,243.168701 264.491699,243.088135 C264.384277,243.007568 264.210938,242.967285 263.97168,242.967285 L263.97168,242.967285 L263.64209,242.967285 L263.64209,234.712891 C263.64209,234.610352 263.609131,234.534668 263.543213,234.48584 C263.477295,234.437012 263.371094,234.412598 263.224609,234.412598 L263.224609,234.412598 L261.723145,234.412598 C261.532715,234.412598 261.387451,234.456543 261.287354,234.544434 C261.187256,234.632324 261.137207,234.76416 261.137207,234.939941 C261.137207,235.140137 261.199463,235.278076 261.323975,235.35376 C261.448486,235.429443 261.723145,235.467285 262.147949,235.467285 L262.147949,235.467285 L262.536133,235.467285 L262.536133,238.272461 C262.248047,237.925781 261.903809,237.66333 261.503418,237.485107 C261.103027,237.306885 260.651367,237.217773 260.148438,237.217773 C259.157227,237.217773 258.32959,237.553467 257.665527,238.224854 C257.001465,238.89624 256.669434,239.737305 256.669434,240.748047 C256.669434,241.724609 256.980713,242.54126 257.603271,243.197998 C258.22583,243.854736 258.998535,244.183105 259.921387,244.183105 Z M260.236328,243.01123 C259.567383,243.01123 259.015625,242.796387 258.581055,242.366699 C258.146484,241.937012 257.929199,241.385254 257.929199,240.711426 C257.929199,239.993652 258.141602,239.412598 258.566406,238.968262 C258.991211,238.523926 259.547852,238.301758 260.236328,238.301758 C260.915039,238.301758 261.470459,238.521484 261.902588,238.960938 C262.334717,239.400391 262.550781,239.959473 262.550781,240.638184 C262.550781,241.32666 262.333496,241.894287 261.898926,242.341064 C261.464355,242.787842 260.910156,243.01123 260.236328,243.01123 Z M270.021484,244.131836 C270.988281,244.131836 271.807373,243.797363 272.47876,243.128418 C273.150146,242.459473 273.48584,241.644043 273.48584,240.682129 C273.48584,239.705566 273.158691,238.886475 272.504395,238.224854 C271.850098,237.563232 271.032227,237.232422 270.050781,237.232422 C269.533203,237.232422 269.069336,237.322754 268.65918,237.503418 C268.249023,237.684082 267.907227,237.945312 267.633789,238.287109 L267.633789,238.287109 L267.633789,234.712891 C267.633789,234.610352 267.60083,234.534668 267.534912,234.48584 C267.468994,234.437012 267.362793,234.412598 267.216309,234.412598 L267.216309,234.412598 L266.103027,234.412598 C265.912598,234.412598 265.768555,234.456543 265.670898,234.544434 C265.573242,234.632324 265.524414,234.76416 265.524414,234.939941 C265.524414,235.135254 265.585449,235.271973 265.70752,235.350098 C265.82959,235.428223 266.056641,235.467285 266.388672,235.467285 L266.388672,235.467285 L266.527832,235.467285 L266.527832,242.967285 L266.374023,242.967285 C266.041992,242.967285 265.819824,243.002686 265.70752,243.073486 C265.595215,243.144287 265.539062,243.277344 265.539062,243.472656 C265.539062,243.648438 265.585449,243.780273 265.678223,243.868164 C265.770996,243.956055 265.912598,244 266.103027,244 L266.103027,244 L267.443359,244 C267.550781,244 267.627686,243.970703 267.674072,243.912109 C267.720459,243.853516 267.743652,243.758301 267.743652,243.626465 L267.743652,243.626465 L267.743652,243.040527 C267.987793,243.406738 268.300293,243.680176 268.681152,243.86084 C269.062012,244.041504 269.508789,244.131836 270.021484,244.131836 Z M269.918945,242.981934 C269.240234,242.981934 268.684814,242.762207 268.252686,242.322754 C267.820557,241.883301 267.604492,241.321777 267.604492,240.638184 C267.604492,239.95459 267.820557,239.394287 268.252686,238.957275 C268.684814,238.520264 269.240234,238.301758 269.918945,238.301758 C270.592773,238.301758 271.148193,238.521484 271.585205,238.960938 C272.022217,239.400391 272.240723,239.959473 272.240723,240.638184 C272.240723,241.331543 272.025879,241.895508 271.596191,242.330078 C271.166504,242.764648 270.607422,242.981934 269.918945,242.981934 Z M278.524902,244.183105 C279.662598,244.183105 280.587891,243.851074 281.300781,243.187012 C282.013672,242.522949 282.370117,241.668457 282.370117,240.623535 C282.370117,239.583496 282.012451,238.731445 281.297119,238.067383 C280.581787,237.40332 279.657715,237.071289 278.524902,237.071289 C277.39209,237.071289 276.469238,237.4021 275.756348,238.063721 C275.043457,238.725342 274.687012,239.578613 274.687012,240.623535 C274.687012,241.668457 275.043457,242.522949 275.756348,243.187012 C276.469238,243.851074 277.39209,244.183105 278.524902,244.183105 Z M278.524902,243.157715 C277.772949,243.157715 277.157715,242.920898 276.679199,242.447266 C276.200684,241.973633 275.961426,241.365723 275.961426,240.623535 C275.961426,239.88623 276.201904,239.2771 276.682861,238.796143 C277.163818,238.315186 277.777832,238.074707 278.524902,238.074707 C279.271973,238.074707 279.887207,238.315186 280.370605,238.796143 C280.854004,239.2771 281.095703,239.88623 281.095703,240.623535 C281.095703,241.36084 280.855225,241.967529 280.374268,242.443604 C279.893311,242.919678 279.276855,243.157715 278.524902,243.157715 Z M286.164062,244 C286.422852,244 286.612061,243.958496 286.731689,243.875488 C286.851318,243.79248 286.911133,243.663086 286.911133,243.487305 C286.911133,243.321289 286.842773,243.193115 286.706055,243.102783 C286.569336,243.012451 286.378906,242.967285 286.134766,242.967285 L286.134766,242.967285 L285.922363,242.967285 L287.606934,241.165527 L289.452637,242.967285 L289.04248,242.967285 C288.837402,242.967285 288.67627,243.013672 288.559082,243.106445 C288.441895,243.199219 288.383301,243.326172 288.383301,243.487305 C288.383301,243.663086 288.444336,243.79248 288.566406,243.875488 C288.688477,243.958496 288.878906,244 289.137695,244 L289.137695,244 L290.631836,244 C290.998047,244 291.239746,243.963379 291.356934,243.890137 C291.474121,243.816895 291.532715,243.682617 291.532715,243.487305 C291.532715,243.321289 291.481445,243.193115 291.378906,243.102783 C291.276367,243.012451 291.132324,242.967285 290.946777,242.967285 L290.946777,242.967285 L290.873535,242.967285 L288.310059,240.462402 L290.412109,238.272461 L290.617188,238.272461 C290.885742,238.272461 291.081055,238.229736 291.203125,238.144287 C291.325195,238.058838 291.38623,237.925781 291.38623,237.745117 C291.38623,237.59375 291.338623,237.470459 291.243408,237.375244 C291.148193,237.280029 291.024902,237.232422 290.873535,237.232422 L290.873535,237.232422 L288.969238,237.232422 C288.705566,237.232422 288.515137,237.275146 288.397949,237.360596 C288.280762,237.446045 288.222168,237.583984 288.222168,237.774414 C288.222168,237.945312 288.288086,238.071045 288.419922,238.151611 C288.551758,238.232178 288.754395,238.272461 289.027832,238.272461 L289.027832,238.272461 L289.181641,238.272461 L287.680176,239.817871 L286.105469,238.272461 L286.164062,238.272461 C286.417969,238.272461 286.612061,238.228516 286.746338,238.140625 C286.880615,238.052734 286.947754,237.925781 286.947754,237.759766 C286.947754,237.579102 286.887939,237.446045 286.768311,237.360596 C286.648682,237.275146 286.457031,237.232422 286.193359,237.232422 L286.193359,237.232422 L284.691895,237.232422 C284.340332,237.232422 284.102295,237.270264 283.977783,237.345947 C283.853271,237.421631 283.791016,237.55957 283.791016,237.759766 C283.791016,237.950195 283.845947,238.083252 283.955811,238.158936 C284.065674,238.234619 284.262207,238.272461 284.54541,238.272461 L284.54541,238.272461 L284.647949,238.272461 L286.977051,240.535645 L284.604004,242.967285 L284.45752,242.967285 C284.169434,242.967285 283.959473,243.008789 283.827637,243.091797 C283.695801,243.174805 283.629883,243.306641 283.629883,243.487305 C283.629883,243.633789 283.678711,243.755859 283.776367,243.853516 C283.874023,243.951172 283.996094,244 284.142578,244 L284.142578,244 L286.164062,244 Z M305.338867,246.922363 C305.568359,246.922363 305.728271,246.883301 305.818604,246.805176 C305.908936,246.727051 305.954102,246.592773 305.954102,246.402344 C305.954102,246.226562 305.907715,246.094727 305.814941,246.006836 C305.722168,245.918945 305.583008,245.875 305.397461,245.875 L305.397461,245.875 L303.639648,245.875 L303.639648,242.952637 C303.932617,243.294434 304.296387,243.556885 304.730957,243.73999 C305.165527,243.923096 305.641602,244.014648 306.15918,244.014648 C307.130859,244.014648 307.929199,243.70459 308.554199,243.084473 C309.179199,242.464355 309.491699,241.67334 309.491699,240.711426 C309.491699,239.710449 309.162109,238.87793 308.50293,238.213867 C307.84375,237.549805 307.023438,237.217773 306.041992,237.217773 C305.578125,237.217773 305.144775,237.303223 304.741943,237.474121 C304.339111,237.64502 303.97168,237.901367 303.639648,238.243164 L303.639648,238.243164 L303.639648,237.532715 C303.639648,237.430176 303.606689,237.354492 303.540771,237.305664 C303.474854,237.256836 303.368652,237.232422 303.222168,237.232422 L303.222168,237.232422 L302.108887,237.232422 C301.913574,237.232422 301.765869,237.275146 301.665771,237.360596 C301.565674,237.446045 301.515625,237.574219 301.515625,237.745117 C301.515625,237.94043 301.577881,238.077148 301.702393,238.155273 C301.826904,238.233398 302.057617,238.272461 302.394531,238.272461 L302.394531,238.272461 L302.533691,238.272461 L302.533691,245.875 L302.394531,245.875 C302.057617,245.875 301.826904,245.914062 301.702393,245.992188 C301.577881,246.070312 301.515625,246.207031 301.515625,246.402344 C301.515625,246.573242 301.565674,246.702637 301.665771,246.790527 C301.765869,246.878418 301.913574,246.922363 302.108887,246.922363 L302.108887,246.922363 L305.338867,246.922363 Z M305.910156,242.937988 C305.231445,242.937988 304.678467,242.723145 304.251221,242.293457 C303.823975,241.86377 303.610352,241.312012 303.610352,240.638184 C303.610352,239.969238 303.825195,239.419922 304.254883,238.990234 C304.68457,238.560547 305.236328,238.345703 305.910156,238.345703 C306.583984,238.345703 307.139404,238.561768 307.576416,238.993896 C308.013428,239.426025 308.231934,239.974121 308.231934,240.638184 C308.231934,241.316895 308.014648,241.869873 307.580078,242.297119 C307.145508,242.724365 306.588867,242.937988 305.910156,242.937988 Z M316.200684,244 C316.430176,244 316.587646,243.962158 316.673096,243.886475 C316.758545,243.810791 316.80127,243.672852 316.80127,243.472656 C316.80127,243.296875 316.756104,243.168701 316.665771,243.088135 C316.575439,243.007568 316.435059,242.967285 316.244629,242.967285 L316.244629,242.967285 L313.812988,242.967285 L313.812988,239.935059 C314.325684,239.349121 314.793213,238.920654 315.215576,238.649658 C315.637939,238.378662 316.039551,238.243164 316.42041,238.243164 C316.630371,238.243164 316.868408,238.317627 317.134521,238.466553 C317.400635,238.615479 317.589844,238.689941 317.702148,238.689941 C317.863281,238.689941 318.010986,238.620361 318.145264,238.481201 C318.279541,238.342041 318.34668,238.182129 318.34668,238.001465 C318.34668,237.723145 318.212402,237.496094 317.943848,237.320312 C317.675293,237.144531 317.32373,237.056641 316.88916,237.056641 C316.308105,237.056641 315.766113,237.198242 315.263184,237.481445 C314.760254,237.764648 314.276855,238.196777 313.812988,238.777832 L313.812988,238.777832 L313.812988,237.532715 C313.812988,237.435059 313.778809,237.360596 313.710449,237.309326 C313.64209,237.258057 313.541992,237.232422 313.410156,237.232422 L313.410156,237.232422 L311.740234,237.232422 C311.544922,237.232422 311.399658,237.275146 311.304443,237.360596 C311.209229,237.446045 311.161621,237.574219 311.161621,237.745117 C311.161621,237.945312 311.220215,238.083252 311.337402,238.158936 C311.45459,238.234619 311.75,238.272461 312.223633,238.272461 L312.223633,238.272461 L312.72168,238.272461 L312.72168,242.967285 L311.447266,242.967285 C311.237305,242.967285 311.082275,243.008789 310.982178,243.091797 C310.88208,243.174805 310.832031,243.301758 310.832031,243.472656 C310.832031,243.648438 310.880859,243.780273 310.978516,243.868164 C311.076172,243.956055 311.220215,244 311.410645,244 L311.410645,244 L316.200684,244 Z M323.532227,244.183105 C324.669922,244.183105 325.595215,243.851074 326.308105,243.187012 C327.020996,242.522949 327.377441,241.668457 327.377441,240.623535 C327.377441,239.583496 327.019775,238.731445 326.304443,238.067383 C325.589111,237.40332 324.665039,237.071289 323.532227,237.071289 C322.399414,237.071289 321.476562,237.4021 320.763672,238.063721 C320.050781,238.725342 319.694336,239.578613 319.694336,240.623535 C319.694336,241.668457 320.050781,242.522949 320.763672,243.187012 C321.476562,243.851074 322.399414,244.183105 323.532227,244.183105 Z M323.532227,243.157715 C322.780273,243.157715 322.165039,242.920898 321.686523,242.447266 C321.208008,241.973633 320.96875,241.365723 320.96875,240.623535 C320.96875,239.88623 321.209229,239.2771 321.690186,238.796143 C322.171143,238.315186 322.785156,238.074707 323.532227,238.074707 C324.279297,238.074707 324.894531,238.315186 325.37793,238.796143 C325.861328,239.2771 326.103027,239.88623 326.103027,240.623535 C326.103027,241.36084 325.862549,241.967529 325.381592,242.443604 C324.900635,242.919678 324.28418,243.157715 323.532227,243.157715 Z M333.57373,235.84082 C333.88623,235.84082 334.086426,235.793213 334.174316,235.697998 C334.262207,235.602783 334.306152,235.340332 334.306152,234.910645 C334.306152,234.476074 334.258545,234.202637 334.16333,234.090332 C334.068115,233.978027 333.871582,233.921875 333.57373,233.921875 C333.256348,233.921875 333.048828,233.991455 332.951172,234.130615 C332.853516,234.269775 332.804688,234.600586 332.804688,235.123047 C332.804688,235.411133 332.853516,235.602783 332.951172,235.697998 C333.048828,235.793213 333.256348,235.84082 333.57373,235.84082 Z M331.427734,246.893066 C332.091797,246.893066 332.67041,246.799072 333.163574,246.611084 C333.656738,246.423096 334.04248,246.148438 334.320801,245.787109 C334.486816,245.572266 334.606445,245.303711 334.679688,244.981445 C334.75293,244.65918 334.789551,244.187988 334.789551,243.567871 L334.789551,243.567871 L334.789551,237.532715 C334.789551,237.439941 334.751709,237.366699 334.676025,237.312988 C334.600342,237.259277 334.496582,237.232422 334.364746,237.232422 L334.364746,237.232422 L330.329102,237.232422 C330.133789,237.232422 329.987305,237.275146 329.889648,237.360596 C329.791992,237.446045 329.743164,237.574219 329.743164,237.745117 C329.743164,237.945312 329.802979,238.083252 329.922607,238.158936 C330.042236,238.234619 330.338867,238.272461 330.8125,238.272461 L330.8125,238.272461 L333.67627,238.272461 L333.67627,243.538574 C333.67627,244.349121 333.524902,244.919189 333.222168,245.248779 C332.919434,245.578369 332.411621,245.743164 331.69873,245.743164 C331.557129,245.743164 331.347168,245.724854 331.068848,245.688232 C330.790527,245.651611 330.585449,245.633301 330.453613,245.633301 C330.282715,245.633301 330.13501,245.690674 330.010498,245.80542 C329.885986,245.920166 329.82373,246.053223 329.82373,246.20459 C329.82373,246.438965 329.953125,246.612305 330.211914,246.724609 C330.470703,246.836914 330.875977,246.893066 331.427734,246.893066 Z M341.461914,244.183105 C341.974609,244.183105 342.490967,244.119629 343.010986,243.992676 C343.531006,243.865723 344.035156,243.682617 344.523438,243.443359 C344.748047,243.331055 344.911621,243.216309 345.01416,243.099121 C345.116699,242.981934 345.167969,242.852539 345.167969,242.710938 C345.167969,242.574219 345.119141,242.459473 345.021484,242.366699 C344.923828,242.273926 344.801758,242.227539 344.655273,242.227539 C344.513672,242.227539 344.105957,242.380127 343.432129,242.685303 C342.758301,242.990479 342.135742,243.143066 341.564453,243.143066 C340.807617,243.143066 340.210693,242.951416 339.773682,242.568115 C339.33667,242.184814 339.098633,241.641602 339.05957,240.938477 L339.05957,240.938477 L344.091309,240.938477 C344.599121,240.938477 344.9104,240.89209 345.025146,240.799316 C345.139893,240.706543 345.197266,240.523438 345.197266,240.25 C345.197266,239.361328 344.85791,238.604492 344.179199,237.979492 C343.500488,237.354492 342.645996,237.041992 341.615723,237.041992 C340.478027,237.041992 339.555176,237.376465 338.847168,238.04541 C338.13916,238.714355 337.785156,239.588379 337.785156,240.66748 C337.785156,241.727051 338.119629,242.577881 338.788574,243.219971 C339.45752,243.862061 340.348633,244.183105 341.461914,244.183105 Z M343.864258,239.979004 L339.096191,239.979004 C339.237793,239.373535 339.530762,238.899902 339.975098,238.558105 C340.419434,238.216309 340.966309,238.04541 341.615723,238.04541 C342.216309,238.04541 342.7229,238.222412 343.135498,238.576416 C343.548096,238.93042 343.791016,239.397949 343.864258,239.979004 L343.864258,239.979004 Z M350.44873,244.183105 C351.269043,244.183105 352.044189,243.981689 352.77417,243.578857 C353.50415,243.176025 353.869141,242.781738 353.869141,242.395996 C353.869141,242.244629 353.821533,242.121338 353.726318,242.026123 C353.631104,241.930908 353.507812,241.883301 353.356445,241.883301 C353.175781,241.883301 352.926758,242.012695 352.609375,242.271484 C352.453125,242.393555 352.328613,242.483887 352.23584,242.54248 C351.972168,242.723145 351.692627,242.858643 351.397217,242.948975 C351.101807,243.039307 350.790527,243.084473 350.463379,243.084473 C349.745605,243.084473 349.158447,242.85376 348.701904,242.392334 C348.245361,241.930908 348.01709,241.336426 348.01709,240.608887 C348.01709,239.895996 348.255127,239.314941 348.731201,238.865723 C349.207275,238.416504 349.826172,238.191895 350.587891,238.191895 C351.022461,238.191895 351.406982,238.293213 351.741455,238.49585 C352.075928,238.698486 352.360352,238.997559 352.594727,239.393066 C352.731445,239.632324 352.847412,239.789795 352.942627,239.865479 C353.037842,239.941162 353.151367,239.979004 353.283203,239.979004 C353.46875,239.979004 353.60791,239.933838 353.700684,239.843506 C353.793457,239.753174 353.839844,239.617676 353.839844,239.437012 L353.839844,239.437012 L353.839844,238.074707 C353.839844,237.708496 353.802002,237.466797 353.726318,237.349609 C353.650635,237.232422 353.512695,237.173828 353.3125,237.173828 C353.117188,237.173828 352.973145,237.21167 352.880371,237.287354 C352.787598,237.363037 352.741211,237.481445 352.741211,237.642578 L352.741211,237.642578 L352.741211,237.671875 C352.321289,237.461914 351.924561,237.306885 351.551025,237.206787 C351.17749,237.106689 350.805176,237.056641 350.434082,237.056641 C349.379395,237.056641 348.500488,237.397217 347.797363,238.078369 C347.094238,238.759521 346.742676,239.60791 346.742676,240.623535 C346.742676,241.63916 347.095459,242.486328 347.801025,243.165039 C348.506592,243.84375 349.38916,244.183105 350.44873,244.183105 Z M360.094727,244.131836 C360.431641,244.131836 360.791748,244.087891 361.175049,244 C361.55835,243.912109 361.989258,243.772949 362.467773,243.58252 C362.755859,243.470215 362.959717,243.354248 363.079346,243.234619 C363.198975,243.11499 363.258789,242.974609 363.258789,242.813477 C363.258789,242.671875 363.211182,242.552246 363.115967,242.45459 C363.020752,242.356934 362.904785,242.308105 362.768066,242.308105 C362.621582,242.308105 362.238281,242.4375 361.618164,242.696289 C360.998047,242.955078 360.46582,243.084473 360.021484,243.084473 C359.518555,243.084473 359.16333,242.95752 358.955811,242.703613 C358.748291,242.449707 358.644531,241.922363 358.644531,241.121582 L358.644531,241.121582 L358.644531,238.675293 L361.61084,238.675293 C361.815918,238.675293 361.969727,238.632568 362.072266,238.547119 C362.174805,238.46167 362.226074,238.333496 362.226074,238.162598 C362.226074,237.981934 362.171143,237.850098 362.061279,237.76709 C361.951416,237.684082 361.776855,237.642578 361.537598,237.642578 L361.537598,237.642578 L358.644531,237.642578 L358.644531,236.155762 C358.644531,235.721191 358.603027,235.442871 358.52002,235.320801 C358.437012,235.19873 358.288086,235.137695 358.073242,235.137695 C357.882812,235.137695 357.742432,235.187744 357.6521,235.287842 C357.561768,235.387939 357.516602,235.542969 357.516602,235.75293 L357.516602,235.75293 L357.516602,237.642578 L356.688965,237.642578 C356.273926,237.642578 356.00293,237.679199 355.875977,237.752441 C355.749023,237.825684 355.685547,237.962402 355.685547,238.162598 C355.685547,238.343262 355.731934,238.473877 355.824707,238.554443 C355.91748,238.63501 356.066406,238.675293 356.271484,238.675293 L356.271484,238.675293 L357.516602,238.675293 L357.516602,241.348633 C357.516602,241.836914 357.537354,242.198242 357.578857,242.432617 C357.620361,242.666992 357.689941,242.869629 357.787598,243.040527 C357.978027,243.401855 358.267334,243.674072 358.655518,243.857178 C359.043701,244.040283 359.523438,244.131836 360.094727,244.131836 Z M368.539551,244.102539 C368.969238,244.102539 369.317139,243.98291 369.583252,243.743652 C369.849365,243.504395 369.982422,243.189453 369.982422,242.798828 C369.982422,242.408203 369.850586,242.093262 369.586914,241.854004 C369.323242,241.614746 368.974121,241.495117 368.539551,241.495117 C368.114746,241.495117 367.769287,241.617188 367.503174,241.861328 C367.237061,242.105469 367.104004,242.417969 367.104004,242.798828 C367.104004,243.189453 367.23584,243.504395 367.499512,243.743652 C367.763184,243.98291 368.109863,244.102539 368.539551,244.102539 Z" id="WeareaCNCFSandboxproject." fill="#FFFFFF" fill-rule="nonzero"></path>
                <g id="cncf-logo" transform="translate(103.000000, 175.200000)" fill="#FFFFFF" fill-rule="nonzero">
                    <path d="M62.4061782,18.1639604 C64.5469307,18.1639604 66.2335842,17.3206337 67.5958812,15.6339802 L70.3853465,18.4883168 C68.1797228,20.9534257 65.6497426,22.1859802 62.6656634,22.1859802 C59.6815842,22.1859802 57.2813465,21.2777822 55.3352079,19.3965149 C53.3890693,17.5152475 52.4808713,15.1798812 52.4808713,12.3255446 C52.4808713,9.47120792 53.4539406,7.0709703 55.4000792,5.18970297 C57.3462178,3.30843564 59.7464554,2.33536634 62.6007921,2.33536634 C65.7794851,2.33536634 68.4392079,3.56792079 70.5150891,5.96815842 L67.8553663,9.01710891 C66.4930693,7.33045545 64.8064158,6.48712871 62.7954059,6.48712871 C61.1736238,6.48712871 59.8113267,7.00609901 58.6436436,8.0440396 C57.4759604,9.0819802 56.8921188,10.5091485 56.8921188,12.3255446 C56.8921188,14.1419406 57.4110891,15.5691089 58.513901,16.6719208 C59.5518416,17.5801188 60.8492673,18.1639604 62.4061782,18.1639604 L62.4061782,18.1639604 Z" id="Path"></path>
                    <polygon id="Path" points="73.7586535 21.926495 73.7586535 2.65972277 78.0401584 2.65972277 78.0401584 18.0990891 86.2788119 18.0990891 86.2788119 21.926495"></polygon>
                    <path d="M105.091485,19.2667723 C103.145347,21.1480396 100.745109,22.1211089 97.8907723,22.1211089 C95.0364356,22.1211089 92.636198,21.1480396 90.6900594,19.2667723 C88.7439208,17.385505 87.7708515,14.9852673 87.7708515,12.195802 C87.7708515,9.34146535 88.7439208,7.00609901 90.6900594,5.12483168 C92.636198,3.24356436 95.0364356,2.27049505 97.8907723,2.27049505 C100.745109,2.27049505 103.145347,3.24356436 105.091485,5.12483168 C107.037624,7.00609901 108.010693,9.40633663 108.010693,12.195802 C108.010693,15.0501386 107.037624,17.385505 105.091485,19.2667723 Z M103.599446,12.195802 C103.599446,10.5091485 103.015604,9.01710891 101.912792,7.78455446 C100.80998,6.552 99.4476832,5.96815842 97.825901,5.96815842 C96.2041188,5.96815842 94.8418218,6.552 93.7390099,7.78455446 C92.636198,9.01710891 92.0523564,10.4442772 92.0523564,12.195802 C92.0523564,13.8824554 92.636198,15.374495 93.7390099,16.6070495 C94.8418218,17.839604 96.2041188,18.4234455 97.825901,18.4234455 C99.4476832,18.4234455 100.80998,17.839604 101.912792,16.6070495 C103.080475,15.374495 103.599446,13.9473267 103.599446,12.195802 Z" id="Shape"></path>
                    <path d="M116.768317,16.9962772 C117.481901,17.9044752 118.45497,18.3585743 119.687525,18.3585743 C120.920079,18.3585743 121.893149,17.9044752 122.541861,16.9962772 C123.255446,16.0880792 123.579802,14.8555248 123.579802,13.3634851 L123.579802,2.72459406 L127.861307,2.72459406 L127.861307,13.4932277 C127.861307,16.2826931 127.082851,18.4234455 125.525941,19.9154851 C123.96903,21.4075248 122.022891,22.1859802 119.622653,22.1859802 C117.222416,22.1859802 115.211406,21.4075248 113.654495,19.9154851 C112.097584,18.4234455 111.319129,16.2826931 111.319129,13.4932277 L111.319129,2.72459406 L115.600634,2.72459406 L115.600634,13.3634851 C115.665505,14.8555248 116.054733,16.0880792 116.768317,16.9962772 L116.768317,16.9962772 Z" id="Path"></path>
                    <path d="M147.063208,5.18970297 C148.879604,6.87635644 149.852673,9.21172277 149.852673,12.195802 C149.852673,15.1798812 148.944475,17.5801188 147.19295,19.3316436 C145.376554,21.0831683 142.65196,21.926495 139.019168,21.926495 L132.337426,21.926495 L132.337426,2.65972277 L139.148911,2.65972277 C142.587089,2.65972277 145.246812,3.5030495 147.063208,5.18970297 Z M143.949386,16.6719208 C144.987327,15.6988515 145.506297,14.2068119 145.506297,12.3255446 C145.506297,10.4442772 144.987327,8.95223762 143.949386,7.97916832 C142.911446,6.94122772 141.289663,6.42225743 139.08404,6.42225743 L136.683802,6.42225743 L136.683802,18.1639604 L139.408396,18.1639604 C141.354535,18.1639604 142.846574,17.6449901 143.949386,16.6719208 Z" id="Shape"></path>
                    <polygon id="Path" points="174.309149 2.65972277 178.590653 2.65972277 178.590653 21.926495 174.309149 21.926495 165.097426 9.86043564 165.097426 21.926495 160.815921 21.926495 160.815921 2.65972277 164.837941 2.65972277 174.309149 15.0501386"></polygon>
                    <path d="M197.07897,21.926495 L195.262574,17.7747327 L187.153663,17.7747327 L185.337267,21.926495 L180.731406,21.926495 L189.034931,2.65972277 L193.186693,2.65972277 L201.490218,21.926495 L197.07897,21.926495 Z M191.305426,8.43326733 L188.905188,14.012198 L193.705663,14.012198 L191.305426,8.43326733 Z" id="Shape"></path>
                    <polygon id="Path" points="210.701941 6.42225743 210.701941 21.9913663 206.420436 21.9913663 206.420436 6.42225743 200.971248 6.42225743 200.971248 2.72459406 216.216 2.72459406 216.216 6.42225743"></polygon>
                    <polygon id="Path" points="219.26495 2.65972277 223.546455 2.65972277 223.546455 21.926495 219.26495 21.926495"></polygon>
                    <polygon id="Path" points="235.417901 14.920396 240.348119 2.65972277 245.018851 2.65972277 237.299168 21.926495 233.666376 21.926495 225.946693 2.65972277 230.617426 2.65972277"></polygon>
                    <polygon id="Path" points="261.171802 2.65972277 261.171802 6.48712871 251.570851 6.48712871 251.570851 10.4442772 260.198733 10.4442772 260.198733 14.1419406 251.570851 14.1419406 251.570851 18.1639604 261.496158 18.1639604 261.496158 21.9913663 247.289347 21.9913663 247.289347 2.72459406 261.171802 2.72459406"></polygon>
                    <path d="M57.4759604,38.3389307 C58.6436436,38.3389307 59.6167129,37.8848317 60.3951683,36.9117624 L61.9520792,38.5335446 C60.7195248,39.8958416 59.2923564,40.6094257 57.605703,40.6094257 C55.9190495,40.6094257 54.5567525,40.0904554 53.5188119,39.0525149 C52.416,38.0145743 51.8970297,36.6522772 51.8970297,35.0953663 C51.8970297,33.4735842 52.416,32.1761584 53.5188119,31.0733465 C54.6216238,29.9705347 55.9839208,29.4515644 57.5408317,29.4515644 C59.2923564,29.4515644 60.784396,30.1002772 62.0169505,31.4625743 L60.5249109,33.1492277 C59.7464554,32.1761584 58.8382574,31.7220594 57.6705743,31.7220594 C56.7623762,31.7220594 55.9839208,32.0464158 55.3352079,32.6302574 C54.686495,33.214099 54.3621386,33.9925545 54.3621386,35.030495 C54.3621386,36.0684356 54.686495,36.8468911 55.2703366,37.4307327 C55.8541782,38.0794455 56.6326337,38.3389307 57.4759604,38.3389307 L57.4759604,38.3389307 Z" id="Path"></path>
                    <path d="M72.6558416,38.9876436 C71.5530297,40.0255842 70.1907327,40.6094257 68.6338218,40.6094257 C67.0120396,40.6094257 65.7146139,40.0904554 64.611802,38.9876436 C63.5089901,37.949703 62.9900198,36.5874059 62.9900198,35.030495 C62.9900198,33.4735842 63.5089901,32.1112871 64.611802,31.0733465 C65.7146139,30.0354059 67.0769109,29.4515644 68.6338218,29.4515644 C70.255604,29.4515644 71.5530297,29.9705347 72.6558416,31.0733465 C73.7586535,32.1112871 74.2776238,33.4735842 74.2776238,35.030495 C74.2776238,36.5874059 73.7586535,37.949703 72.6558416,38.9876436 Z M71.8773861,35.030495 C71.8773861,34.0574257 71.5530297,33.214099 70.9691881,32.5653861 C70.3204752,31.9166733 69.6068911,31.5274455 68.6986931,31.5274455 C67.790495,31.5274455 67.0120396,31.851802 66.428198,32.5653861 C65.7794851,33.214099 65.52,34.0574257 65.52,35.030495 C65.52,36.0035644 65.8443564,36.7820198 66.428198,37.495604 C67.0769109,38.1443168 67.790495,38.5335446 68.6986931,38.5335446 C69.6068911,38.5335446 70.3853465,38.2091881 70.9691881,37.495604 C71.5530297,36.8468911 71.8773861,36.0035644 71.8773861,35.030495 Z" id="Shape"></path>
                    <polygon id="Path" points="86.0193267 33.668198 83.1001188 39.5714851 81.6729505 39.5714851 78.7537426 33.668198 78.7537426 40.4796832 76.353505 40.4796832 76.353505 29.6461782 79.5970693 29.6461782 82.3865347 35.5494653 85.176 29.6461782 88.4195644 29.6461782 88.4195644 40.4796832 86.0193267 40.4796832"></polygon>
                    <path d="M98.5394851,30.6841188 C99.3179406,31.3328317 99.7071683,32.305901 99.7071683,33.668198 C99.7071683,35.030495 99.3179406,36.0035644 98.5394851,36.5874059 C97.7610297,37.2361188 96.5933465,37.495604 94.9715644,37.495604 L93.544396,37.495604 L93.544396,40.4796832 L91.1441584,40.4796832 L91.1441584,29.6461782 L94.9715644,29.6461782 C96.5933465,29.7110495 97.7610297,30.0354059 98.5394851,30.6841188 L98.5394851,30.6841188 Z M96.7879604,34.9007525 C97.0474455,34.576396 97.2420594,34.122297 97.2420594,33.4735842 C97.2420594,32.8248713 97.0474455,32.4356436 96.6582178,32.1761584 C96.2689901,31.9166733 95.6851485,31.7869307 94.9066931,31.7869307 L93.544396,31.7869307 L93.544396,35.4197228 L95.1661782,35.4197228 C95.9446337,35.4197228 96.463604,35.2251089 96.7879604,34.9007525 Z" id="Shape"></path>
                    <path d="M104.442772,37.6902178 C104.832,38.2091881 105.415842,38.4686733 106.064554,38.4686733 C106.713267,38.4686733 107.297109,38.2091881 107.686337,37.6902178 C108.075564,37.1712475 108.270178,36.5225347 108.270178,35.6143366 L108.270178,29.6461782 L110.670416,29.6461782 L110.670416,35.6792079 C110.670416,37.2361188 110.216317,38.4686733 109.37299,39.312 C108.529663,40.1553267 107.426851,40.5445545 106.064554,40.5445545 C104.702257,40.5445545 103.599446,40.0904554 102.756119,39.2471287 C101.912792,38.403802 101.458693,37.1712475 101.458693,35.6143366 L101.458693,29.5813069 L103.858931,29.5813069 L103.858931,35.5494653 C103.858931,36.5225347 104.053545,37.2361188 104.442772,37.6902178 L104.442772,37.6902178 Z" id="Path"></path>
                    <polygon id="Path" points="117.741386 31.7869307 117.741386 40.4796832 115.341149 40.4796832 115.341149 31.7869307 112.292198 31.7869307 112.292198 29.7110495 120.855208 29.7110495 120.855208 31.7869307"></polygon>
                    <polygon id="Path" points="122.606733 29.7110495 125.00697 29.7110495 125.00697 40.5445545 122.606733 40.5445545"></polygon>
                    <polygon id="Path" points="135.191762 29.7110495 137.592 29.7110495 137.592 40.5445545 135.191762 40.5445545 130.066931 33.7979406 130.066931 40.5445545 127.666693 40.5445545 127.666693 29.7110495 129.937188 29.7110495 135.256634 36.6522772 135.256634 29.7110495"></polygon>
                    <path d="M147.322693,35.030495 L149.722931,35.030495 L149.722931,38.857901 C148.620119,40.0255842 147.19295,40.674297 145.246812,40.674297 C143.689901,40.674297 142.327604,40.1553267 141.224792,39.1173861 C140.12198,38.0794455 139.60301,36.7171485 139.60301,35.1602376 C139.60301,33.5384554 140.12198,32.2410297 141.224792,31.1382178 C142.327604,30.0354059 143.62503,29.5164356 145.181941,29.5164356 C146.738851,29.5164356 148.101149,30.0354059 149.20396,31.0733465 L147.971406,32.8897426 C147.517307,32.4356436 147.063208,32.1761584 146.609109,32.0464158 C146.219881,31.9166733 145.765782,31.7869307 145.311683,31.7869307 C144.403485,31.7869307 143.62503,32.1112871 142.976317,32.6951287 C142.327604,33.3438416 142.003248,34.122297 142.003248,35.1602376 C142.003248,36.1981782 142.327604,36.9766337 142.911446,37.6253465 C143.495287,38.2091881 144.208871,38.5335446 145.052198,38.5335446 C145.895525,38.5335446 146.609109,38.403802 147.128079,38.0794455 L147.128079,35.030495 L147.322693,35.030495 Z" id="Path"></path>
                    <polygon id="Path" points="163.345901 29.7110495 163.345901 31.851802 158.350812 31.851802 158.350812 34.1871683 163.086416 34.1871683 163.086416 36.3279208 158.350812 36.3279208 158.350812 40.5445545 155.950574 40.5445545 155.950574 29.7110495"></polygon>
                    <path d="M174.503762,38.9876436 C173.40095,40.0255842 172.038653,40.6094257 170.481743,40.6094257 C168.85996,40.6094257 167.562535,40.0904554 166.459723,38.9876436 C165.356911,37.949703 164.837941,36.5874059 164.837941,35.030495 C164.837941,33.4735842 165.356911,32.1112871 166.459723,31.0733465 C167.562535,30.0354059 168.924832,29.4515644 170.481743,29.4515644 C172.103525,29.4515644 173.40095,29.9705347 174.503762,31.0733465 C175.606574,32.1112871 176.125545,33.4735842 176.125545,35.030495 C176.125545,36.5874059 175.606574,37.949703 174.503762,38.9876436 Z M173.660436,35.030495 C173.660436,34.0574257 173.336079,33.214099 172.752238,32.5653861 C172.103525,31.9166733 171.389941,31.5274455 170.481743,31.5274455 C169.573545,31.5274455 168.795089,31.851802 168.211248,32.5653861 C167.562535,33.214099 167.30305,34.0574257 167.30305,35.030495 C167.30305,36.0035644 167.627406,36.7820198 168.211248,37.495604 C168.85996,38.1443168 169.573545,38.5335446 170.481743,38.5335446 C171.389941,38.5335446 172.168396,38.2091881 172.752238,37.495604 C173.40095,36.8468911 173.660436,36.0035644 173.660436,35.030495 Z" id="Shape"></path>
                    <path d="M181.055762,37.6902178 C181.44499,38.2091881 182.028832,38.4686733 182.677545,38.4686733 C183.326257,38.4686733 183.910099,38.2091881 184.299327,37.6902178 C184.688554,37.1712475 184.883168,36.5225347 184.883168,35.6143366 L184.883168,29.6461782 L187.283406,29.6461782 L187.283406,35.6792079 C187.283406,37.2361188 186.829307,38.4686733 185.98598,39.312 C185.142653,40.1553267 184.039842,40.5445545 182.677545,40.5445545 C181.315248,40.5445545 180.212436,40.0904554 179.369109,39.2471287 C178.525782,38.403802 178.071683,37.1712475 178.071683,35.6143366 L178.071683,29.5813069 L180.471921,29.5813069 L180.471921,35.5494653 C180.40705,36.5225347 180.666535,37.2361188 181.055762,37.6902178 L181.055762,37.6902178 Z" id="Path"></path>
                    <polygon id="Path" points="197.338455 29.7110495 199.738693 29.7110495 199.738693 40.5445545 197.338455 40.5445545 192.213624 33.7979406 192.213624 40.5445545 189.813386 40.5445545 189.813386 29.7110495 192.083881 29.7110495 197.403327 36.6522772 197.403327 29.7110495"></polygon>
                    <path d="M210.637069,31.1382178 C211.67501,32.1112871 212.19398,33.4087129 212.19398,35.0953663 C212.19398,36.7820198 211.67501,38.0794455 210.701941,39.0525149 C209.728871,40.0255842 208.17196,40.5445545 206.096079,40.5445545 L202.398416,40.5445545 L202.398416,29.7110495 L206.225822,29.7110495 C208.17196,29.7110495 209.664,30.1651485 210.637069,31.1382178 L210.637069,31.1382178 Z M208.885545,37.5604752 C209.469386,36.9766337 209.793743,36.1981782 209.793743,35.1602376 C209.793743,34.122297 209.469386,33.2789703 208.885545,32.6951287 C208.301703,32.1112871 207.393505,31.851802 206.16095,31.851802 L204.798653,31.851802 L204.798653,38.403802 L206.355564,38.403802 C207.458376,38.3389307 208.301703,38.0794455 208.885545,37.5604752 L208.885545,37.5604752 Z" id="Shape"></path>
                    <path d="M221.665188,40.4796832 L220.692119,38.1443168 L216.151129,38.1443168 L215.178059,40.4796832 L212.583208,40.4796832 L217.253941,29.6461782 L219.589307,29.6461782 L224.26004,40.4796832 L221.665188,40.4796832 Z M218.421624,32.8897426 L217.059327,36.0035644 L219.783921,36.0035644 L218.421624,32.8897426 Z" id="Shape"></path>
                    <polygon id="Path" points="229.32 31.7869307 229.32 40.4796832 226.919762 40.4796832 226.919762 31.7869307 223.805941 31.7869307 223.805941 29.7110495 232.36895 29.7110495 232.36895 31.7869307"></polygon>
                    <polygon id="Path" points="234.120475 29.7110495 236.520713 29.7110495 236.520713 40.5445545 234.120475 40.5445545"></polygon>
                    <path d="M248.262416,38.9876436 C247.159604,40.0255842 245.797307,40.6094257 244.240396,40.6094257 C242.618614,40.6094257 241.321188,40.0904554 240.218376,38.9876436 C239.115564,37.949703 238.596594,36.5874059 238.596594,35.030495 C238.596594,33.4735842 239.115564,32.1112871 240.218376,31.0733465 C241.321188,30.0354059 242.683485,29.4515644 244.240396,29.4515644 C245.862178,29.4515644 247.159604,29.9705347 248.262416,31.0733465 C249.365228,32.1112871 249.884198,33.4735842 249.884198,35.030495 C249.884198,36.5874059 249.365228,37.949703 248.262416,38.9876436 Z M247.48396,35.030495 C247.48396,34.0574257 247.159604,33.214099 246.575762,32.5653861 C245.92705,31.9166733 245.213465,31.5274455 244.305267,31.5274455 C243.397069,31.5274455 242.618614,31.851802 242.034772,32.5653861 C241.386059,33.214099 241.126574,34.0574257 241.126574,35.030495 C241.126574,36.0035644 241.450931,36.7820198 242.034772,37.495604 C242.683485,38.1443168 243.397069,38.5335446 244.305267,38.5335446 C245.213465,38.5335446 245.991921,38.2091881 246.575762,37.495604 C247.159604,36.8468911 247.48396,36.0035644 247.48396,35.030495 Z" id="Shape"></path>
                    <polygon id="Path" points="259.485149 29.7110495 261.885386 29.7110495 261.885386 40.5445545 259.485149 40.5445545 254.360317 33.7979406 254.360317 40.5445545 251.960079 40.5445545 251.960079 29.7110495 254.230574 29.7110495 259.55002 36.6522772"></polygon>
                    <polygon id="Path" points="6.16277228 27.7000396 0.259485149 27.7000396 0.259485149 41.582495 14.0770693 41.582495 14.0770693 35.6143366 6.16277228 35.6143366"></polygon>
                    <polygon id="Path" points="35.8738218 27.7649109 35.8738218 35.6143366 27.9595248 35.6143366 27.9595248 35.5494653 27.9595248 41.582495 41.7771089 41.582495 41.7771089 27.7000396 35.8089505 27.7000396"></polygon>
                    <polygon id="Path" points="0.259485149 13.8824554 6.22764356 13.8824554 6.16277228 13.8175842 6.16277228 5.96815842 14.0770693 5.96815842 14.0770693 -1.15234555e-15 0.259485149 -1.15234555e-15"></polygon>
                    <polygon id="Path" points="27.9595248 0 27.9595248 5.96815842 35.8738218 5.96815842 35.8738218 13.8824554 41.7771089 13.8824554 41.7771089 0"></polygon>
                    <g id="Group" opacity="0.8">
                        <polygon id="Path" points="27.1810693 13.8824554 19.2667723 5.96815842 27.9595248 5.96815842 27.9595248 0 14.0770693 0 14.0770693 5.96815842 21.9913663 13.8824554"></polygon>
                        <polygon id="Path" points="20.0452277 27.7000396 14.8555248 27.7000396 21.4075248 34.2520396 22.7049505 35.6143366 14.0770693 35.6143366 14.0770693 41.582495 27.9595248 41.582495 27.9595248 35.5494653 24.0023762 31.6571881"></polygon>
                        <polygon id="Path" points="35.8738218 13.8824554 35.8738218 22.5103366 34.5115248 21.1480396 27.9595248 14.5960396 27.9595248 19.8506139 31.851802 23.7428911 35.8089505 27.7000396 41.7771089 27.7000396 41.7771089 13.8824554"></polygon>
                        <polygon id="Path" points="14.0770693 21.7318812 6.22764356 13.8824554 0.259485149 13.8824554 0.259485149 27.7000396 6.16277228 27.7000396 6.16277228 19.0721584 14.0770693 26.9864554"></polygon>
                    </g>
                </g>
                <g id="Group-14" transform="translate(40.900000, 50.000000)">
                    <mask id="mask-4" fill="white">
                        <use xlink:href="#path-3"></use>
                    </mask>
                    <g id="Mask"></g>
                    <g mask="url(#mask-4)" fill-rule="nonzero" id="Combined-Shape">
                        <g transform="translate(30.600000, 4.500000)">
                            <use fill="#002C66" xlink:href="#path-5"></use>
                            <use fill-opacity="0.6" fill="#006BB8" xlink:href="#path-5"></use>
                        </g>
                    </g>
                </g>
                <g id="Group-2" transform="translate(201.900000, 0.500000)" fill-rule="nonzero">
                    <g id="path342" transform="translate(59.126383, 88.224027) scale(1, -1) translate(-59.126383, -88.224027) ">
                        <use fill="#002C66" xlink:href="#path-6"></use>
                        <use fill-opacity="0.15" fill="#000000" xlink:href="#path-6"></use>
                    </g>
                    <g id="Combined-Shape" transform="translate(85.219177, 104.227402) scale(1, -1) translate(-85.219177, -104.227402) ">
                        <use fill="#002C66" xlink:href="#path-7"></use>
                        <use fill-opacity="0.15" fill="#000000" xlink:href="#path-7"></use>
                    </g>
                    <g id="Combined-Shape" transform="translate(156.079902, 101.710753) scale(1, -1) translate(-156.079902, -101.710753) ">
                        <use fill="#002C66" xlink:href="#path-8"></use>
                        <use fill-opacity="0.15" fill="#000000" xlink:href="#path-8"></use>
                    </g>
                    <g id="Group-4" transform="translate(45.000000, 115.390883) scale(1, -1) translate(-45.000000, -115.390883) translate(0.000000, 90.890883)">
                        <polygon id="path410" fill="#14BA5A" points="3.06983363 0 44.3199884 0 89.9038919 45.9804333 87.3473075 48.51497 42.8188336 3.59993566 3.06983363 3.6"></polygon>
                        <g id="path160" transform="translate(1.000000, 25.650000) scale(1, -1) translate(-1.000000, -25.650000) translate(0.000000, 24.650000)" fill="#3389C6">
                            <polygon transform="translate(23.283070, 12.344204) scale(1, -1) translate(-23.283070, -12.344204) " points="23.3139995 20.9884085 8.30679991 13.7620087 6.01024717 3.7 40.5558926 3.7 38.3223992 13.7620087"></polygon>
                        </g>
                    </g>
                    <polygon id="path414" fill="#002C66" transform="translate(57.047803, 125.561382) scale(1, -1) translate(-57.047803, -125.561382) " points="47.8837602 124.602413 57.9845207 134.729014 66.2118456 126.518916 56.1110851 116.39375"></polygon>
                    <path d="M63.3096715,123.680912 L64.7538677,125.12798 L56.5696103,133.290703 L55.1268496,131.843636 L63.3096715,123.680912 Z M60.3806519,120.744141 L61.8248482,122.192644 L53.5960877,130.401306 L52.153327,128.952803 L60.3806519,120.744141 Z M57.5459501,117.902404 L58.9901464,119.350907 L50.7628215,127.55957 L49.3186252,126.111067 L57.5459501,117.902404 Z" id="Combined-Shape" fill="#FFFFFF" transform="translate(57.036246, 125.596554) scale(1, -1) translate(-57.036246, -125.596554) "></path>
                    <polygon id="path364" fill="#006BB8" transform="translate(87.704673, 54.597510) scale(1, -1) translate(-87.704673, -54.597510) " points="123.368856 51.9912097 90.2600107 18.9297382 52.0404902 57.2023753 85.1493359 90.2652824"></polygon>
                    <path d="M51.6045037,7.4938857 L58.1674139,14.0414352 L64.1293892,8.06510409 L73.4764688,17.3892143 L67.5150677,23.365689 L61.8106359,29.0836152 L64.3157279,31.5829649 L60.0908077,35.8179341 L57.5862587,33.3188857 L50.3828227,40.5410014 L34.4722587,24.6691982 L40.6512587,18.4738857 L42.4876916,11.9304107 L44.8382587,14.2758857 L45.0252278,14.0903886 L51.6045037,7.4938857 Z" id="Combined-Shape" fill="#006BB8" transform="translate(53.974364, 24.017444) scale(1, -1) translate(-53.974364, -24.017444) "></path>
                    <path d="M36.2490795,0 L36.2014417,0.098 L52.0594417,15.917 L52.0628852,15.9161628 L47.5623332,25.1814141 L42.8062474,20.4382486 L42.9044417,20.39 L31.7494417,9.262 L31.7485275,9.2652513 L26.9924417,4.52208578 L36.1444417,0.051 L36.1503114,0.0469435571 L36.1514417,0.048 L36.2490795,0 Z" id="Combined-Shape" fill="#F2F7FB" transform="translate(39.527663, 12.590707) scale(1, -1) translate(-39.527663, -12.590707) "></path>
                    <polygon id="path392" fill="#F2F7FB" transform="translate(68.755268, 35.294233) scale(1, -1) translate(-68.755268, -35.294233) " points="76.8533901 27.1882153 78.1655128 44.6980185 59.3450225 25.8904484"></polygon>
                    <path d="M89.2157677,18.9205504 L99.2350072,28.9645504 L99.3162411,28.9650361 L99.3162411,101.427513 L85.1456034,101.427513 L85.1450072,31.2965504 L80.9870072,27.1292128 L89.2157677,18.9205504 Z" id="Combined-Shape" fill="#3389C6" transform="translate(90.151624, 60.174032) scale(1, -1) translate(-90.151624, -60.174032) "></path>
                </g>
                <g id="path396" fill-rule="nonzero" transform="translate(272.365047, 36.885332) scale(1, -1) translate(-272.365047, -36.885332) ">
                    <use fill="#002C66" xlink:href="#path-9"></use>
                    <use fill-opacity="0.15" fill="#000000" xlink:href="#path-9"></use>
                </g>
                <g id="Group-16" transform="translate(302.800000, 106.017178)">
                    <rect id="Rectangle" fill="#3389C6" x="3.6" y="0" width="36.9" height="6.3"></rect>
                    <polygon id="Rectangle" fill="#3389C6" points="3.6 9.9 40.5 9.9 36.9 40.9 7.2 40.9"></polygon>
                    <path d="M11.25,35.1 C22.9308225,35.1 32.4,25.6308225 32.4,13.95 C32.4,2.26917754 22.9308225,-7.2 11.25,-7.2" id="Oval" stroke="#14BA5A" stroke-width="1.8" transform="translate(21.825000, 13.950000) rotate(90.000000) translate(-21.825000, -13.950000) "></path>
                </g>
            </g>
        </g>
    </g>
</svg>