<?xml version="1.0" encoding="UTF-8"?>
<svg width="24px" height="24px" viewBox="0 0 24 24" version="1.1" xmlns="http://www.w3.org/2000/svg" xmlns:xlink="http://www.w3.org/1999/xlink">
    <title>icon-slack</title>
    <g id="icon-slack" stroke="none" stroke-width="1" fill="none" fill-rule="evenodd">
        <g id="Group" transform="translate(1.000000, 1.000000)" fill="#FFFFFF" fill-rule="nonzero">
            <g id="icons/32/slack">
                <path d="M21.0786573,7.97596663 C18.8117406,0.416216629 15.535574,-1.3469917 7.97582398,0.920841629 C0.416990646,3.18821663 -1.34713435,6.4643833 0.920698979,14.0241333 C3.18899065,21.5829666 6.46469898,23.3470916 14.0239906,21.0792583 C21.5837406,18.8109666 23.346949,15.5352583 21.0791156,7.97596663 M17.255699,12.8833416 L15.8302823,13.3604666 L16.3243656,14.8363 C16.5242122,15.4334348 16.2021464,16.0795159 15.6050115,16.2793625 C15.0078766,16.479209 14.3617955,16.1571432 14.161949,15.5600083 L13.6678656,14.0850916 L10.728574,15.0695916 L11.222199,16.5445083 C11.3629793,16.9337177 11.2818185,17.3686513 11.0101437,17.6808946 C10.7384689,17.9931378 10.3189372,18.1336636 9.91399932,18.0480576 C9.50906148,17.9624516 9.18229901,17.6641554 9.06024065,17.268675 L8.56569898,15.7937583 L7.14028231,16.2713416 C6.54795029,16.4554173 5.91708236,16.1324866 5.72003705,15.5443419 C5.52299174,14.9561971 5.8319838,14.3183864 6.41565731,14.1084666 L7.84199065,13.6308833 L6.89369898,10.8015916 L5.46828231,11.2796333 C5.18140881,11.3757546 4.86809568,11.3539334 4.59731618,11.2189735 C4.32653669,11.0840136 4.12048883,10.8469786 4.02453231,10.56005 C3.92841098,10.2731765 3.95023216,9.95986333 4.0851921,9.68908383 C4.22015203,9.41830434 4.45718697,9.21225648 4.74411565,9.11629996 L6.16953231,8.63871663 L5.67544898,7.1642583 C5.54608899,6.77789787 5.63267629,6.35187338 5.90259427,6.04666416 C6.17251225,5.74145494 6.58475395,5.60342954 6.98403187,5.6845808 C7.38330979,5.76573206 7.70896411,6.05373117 7.83832398,6.44009163 L8.33194898,7.9150083 L11.271699,6.9305083 L10.7776156,5.45559163 C10.604809,4.86682451 10.9284776,4.24679859 11.5103333,4.0519836 C12.0921889,3.85716862 12.7239427,4.15730316 12.9404906,4.73142496 L13.4341156,6.20634163 L14.8595323,5.7287583 C15.2458927,5.59939835 15.6719172,5.68598567 15.9771264,5.95590364 C16.2823356,6.22582162 16.420361,6.63806328 16.3392097,7.03734118 C16.2580585,7.43661908 15.9700594,7.7622734 15.583699,7.8916333 L14.1582823,8.36829996 L15.1061156,11.1985083 L16.5315323,10.7204666 C17.1216737,10.5437906 17.7455255,10.8673418 17.9410707,11.4515021 C18.1366159,12.0356625 17.8332752,12.6695875 17.255699,12.8838 L17.255699,12.8833416 Z M9.05611565,10.077425 L10.003949,12.9067166 L12.943699,11.9222166 L11.996324,9.09292496 L9.05657398,10.077425 L9.05611565,10.077425 Z"></path>
            </g>
        </g>
    </g>
</svg>