<?xml version="1.0" encoding="UTF-8"?>
<svg width="24px" height="24px" viewBox="0 0 24 24" version="1.1" xmlns="http://www.w3.org/2000/svg" xmlns:xlink="http://www.w3.org/1999/xlink">
    <title>icon-twitter</title>
    <g id="icon-twitter" stroke="none" stroke-width="1" fill="none" fill-rule="evenodd">
        <g id="Group" transform="translate(1.000000, 1.000000)" fill="#FFFFFF" fill-rule="nonzero">
            <g id="icons/32/twitter">
                <path d="M22,4.23270833 C21.178449,4.60689472 20.3042992,4.85267688 19.408125,4.96145833 C20.3569941,4.37576821 21.0619096,3.46654114 21.3927083,2.40166667 C20.5093003,2.93949623 19.5388123,3.31903662 18.5249167,3.52320833 C17.7040417,2.62395833 16.53025,2.0625 15.230875,2.0625 C12.7398333,2.0625 10.7190417,4.134625 10.7190417,6.69075 C10.7190417,7.05329167 10.758,7.40575 10.8354583,7.74491667 C7.084,7.55104167 3.75879167,5.71083333 1.53129167,2.90720833 C1.12950104,3.6176498 0.919132512,4.42027206 0.920791667,5.23645833 C0.920791667,6.84154167 1.717375,8.25825 2.92829167,9.08875 C2.20984635,9.06497965 1.5079697,8.8667805 0.883208333,8.51125 L0.883208333,8.56808333 C0.883208333,10.8111667 2.43925,12.6825417 4.50541667,13.1060417 C4.11852841,13.2157303 3.71817601,13.2706534 3.31604167,13.2692083 C3.02545833,13.2692083 2.74129167,13.24125 2.46629167,13.1867083 C3.04104167,15.024625 4.706625,16.363875 6.6825,16.399625 C5.13791667,17.6417083 3.19091667,18.3819167 1.07708333,18.3819167 C0.712708333,18.3819167 0.352916667,18.360375 0,18.3182083 C1.997875,19.6290417 4.371125,20.3958333 6.919,20.3958333 C15.2217083,20.3958333 19.7610417,13.344375 19.7610417,7.22791667 C19.7610417,7.02670833 19.7569167,6.8255 19.749125,6.62841667 C20.636241,5.97042311 21.3985326,5.15908158 22,4.23270833"></path>
            </g>
        </g>
    </g>
</svg>