<?xml version="1.0" encoding="UTF-8"?>
<svg width="200px" height="63px" viewBox="0 0 200 63" version="1.1" xmlns="http://www.w3.org/2000/svg" xmlns:xlink="http://www.w3.org/1999/xlink">
    <title>keptn-logo-white</title>
    <g id="↳-keptn-2.0" stroke="none" stroke-width="1" fill="none" fill-rule="evenodd">
        <g id="KEPTN-Home" transform="translate(-161.000000, -165.000000)" fill="#FFFFFF" fill-rule="nonzero">
            <g id="keptn-logo-white" transform="translate(161.000000, 164.000000)">
                <path d="M137.255643,27.8003222 C139.27037,27.8003222 141.141188,28.0864775 142.724188,28.8018658 C144.307187,29.3741765 145.746278,30.3757201 146.897551,31.5203414 C148.048823,32.6649627 148.912278,34.0957393 149.487914,35.8126712 C150.351369,37.3865255 150.639187,39.2465351 150.639187,41.2496223 C150.639187,43.2527096 150.351369,44.9696415 149.919641,46.6865734 C149.344005,48.4035054 148.62446,49.6912043 147.761005,50.9789033 C146.753642,52.1235246 145.602369,53.1250682 144.163278,53.6973788 C142.724188,54.4127671 141.141188,54.6989224 139.27037,54.6989224 C138.119097,54.6989224 136.967825,54.5558448 135.816552,54.2696895 C134.809188,53.9835341 133.945734,53.6973788 133.226189,53.2681458 L133.226189,63.2835821 L127.182007,63.2835821 L127.182007,29.2310988 C128.33328,28.9449435 129.91628,28.5157105 131.643189,28.2295552 C133.370098,27.9433999 135.384825,27.8003222 137.255643,27.8003222 Z M109.769009,27.6572446 C113.366736,27.6572446 116.101008,28.8018658 118.115736,30.9480308 C120.130463,33.0941957 121.137826,36.3849819 121.137826,40.8203894 L121.137826,41.9650106 C121.137826,42.3942436 121.137826,42.6803989 120.993917,43.1096319 L104.012646,43.1096319 C104.156555,45.1127192 104.876101,46.8296511 106.171282,47.9742724 C107.466464,49.1188937 109.337282,49.6912043 111.927645,49.6912043 C113.366736,49.6912043 114.661918,49.5481267 115.957099,49.2619713 C117.108372,48.975816 118.115736,48.6896607 118.835281,48.4035054 L119.698735,53.2681458 C119.410917,53.4112235 118.97919,53.5543012 118.259645,53.8404565 C117.684008,53.9835341 116.964463,54.1266118 116.244918,54.4127671 C115.525372,54.5558448 114.661918,54.6989224 113.798463,54.8420001 C112.935009,54.9850778 112.071554,54.9850778 111.2081,54.9850778 C108.905555,54.9850778 106.890828,54.6989224 105.307828,53.9835341 C103.580919,53.2681458 102.285737,52.4096799 101.134465,51.1219809 C99.9831919,49.9773596 99.2636465,48.546583 98.6880102,46.8296511 C97.9684648,45.1127192 97.6806467,43.3957872 97.6806467,41.3927 C97.6806467,39.1034574 97.9684648,37.1003702 98.6880102,35.3834382 C99.4075556,33.6665063 100.27101,32.2357297 101.422283,31.0911084 C102.573555,29.9464871 103.868737,29.0880212 105.307828,28.5157105 C106.746919,27.9433999 108.186009,27.6572446 109.769009,27.6572446 Z M162.295822,20.5033615 L162.295822,28.3726329 L171.506003,28.3726329 L171.506003,33.380351 L162.295822,33.380351 L162.295822,43.8250202 C162.295822,45.8281075 162.58364,47.4019617 163.303186,48.2604277 C164.022731,49.1188937 165.030094,49.5481267 166.757003,49.5481267 C167.908276,49.5481267 168.77173,49.405049 169.635185,49.2619713 C170.498639,48.975816 171.218185,48.8327384 171.649912,48.546583 L172.657275,53.2681458 C171.93773,53.5543012 171.074276,53.8404565 169.923003,54.1266118 C168.77173,54.4127671 167.476549,54.5558448 165.893549,54.5558448 C164.022731,54.5558448 162.439731,54.2696895 161.288458,53.8404565 C159.993277,53.2681458 159.129822,52.6958352 158.266368,51.6942916 C157.546822,50.6927479 156.971186,49.6912043 156.683368,48.2604277 C156.39555,46.9727288 156.251641,45.3988745 156.251641,43.6819426 L156.251641,21.5049051 L162.295822,20.5033615 Z M188.919001,27.8003222 C191.077637,27.8003222 192.804546,28.0864775 194.243637,28.6587882 C195.682728,29.2310988 196.834,30.0895648 197.697455,31.0911084 C198.560909,32.092652 199.136546,33.380351 199.424364,34.8111276 C199.712182,36.2419042 200,37.8157585 200,39.6757681 L200,54.2696895 L193.955819,54.2696895 L193.955819,40.6773117 C193.955819,39.2465351 193.81191,38.1019138 193.668001,37.1003702 C193.524092,36.0988265 193.236273,35.3834382 192.804546,34.6680499 C192.372819,34.0957393 191.797183,33.6665063 191.077637,33.380351 C190.358092,33.0941957 189.494637,32.951118 188.487274,32.951118 C187.767729,32.951118 186.904274,32.951118 186.04082,33.0941957 C185.177365,33.2372733 184.601729,33.2372733 184.170002,33.380351 L184.170002,54.2696895 L178.12582,54.2696895 L178.269729,29.2310988 C179.421002,28.9449435 181.004002,28.5157105 182.730911,28.2295552 C184.601729,27.9433999 186.616456,27.8003222 188.919001,27.8003222 Z M49.9028333,14.9233328 L50.9101969,19.7879732 L23.1357451,54.1266118 L18.0989274,54.1266118 L49.9028333,14.9233328 Z M51.9175604,24.6526137 L53.9322875,33.5234287 C54.2201056,34.5249723 53.9322875,35.6695936 53.2127421,36.5280595 L53.2127421,36.5280595 L40.1170161,52.8389129 C39.3974708,53.5543012 38.3901072,54.1266118 37.2388346,54.1266118 L37.2388346,54.1266118 L28.1725628,54.1266118 L51.9175604,24.6526137 Z M78.5407395,15.3525657 L78.5407395,38.1019138 C79.2602849,37.2434478 80.1237394,36.3849819 80.9871938,35.5265159 C81.8506483,34.6680499 82.7141027,33.6665063 83.5775572,32.8080403 C84.4410117,31.9495744 85.160557,30.9480308 86.0240115,30.0895648 C86.887466,29.2310988 87.4631023,28.5157105 87.8948295,27.9433999 L95.0902833,27.9433999 C93.3633744,29.8034095 91.6364655,31.8064967 89.7656475,33.6665063 C87.8948295,35.6695936 85.7361933,38.2449915 83.8653754,40.105001 L95.6659196,54.1266118 L88.6143749,54.1266118 L78.5407395,42.1080883 L78.5407395,54.1266118 L72.4965583,54.1266118 L72.4965583,16.3541094 L78.5407395,15.3525657 Z M44.5781975,9.34330399 L47.6002881,10.7740806 C47.7441972,10.9171583 47.8881063,10.9171583 48.0320153,11.0602359 L48.0320153,11.0602359 L13.9255642,53.2681458 C13.9255642,53.1250682 13.7816552,52.9819905 13.6377461,52.8389129 L13.6377461,52.8389129 L11.4791099,50.1204373 L44.5781975,9.34330399 Z M136.680006,32.951118 C136.10437,32.951118 135.528734,32.951118 134.953097,33.0941957 C134.377461,33.0941957 133.801825,33.2372733 133.082279,33.380351 L133.082279,48.11735 C133.657916,48.4035054 134.377461,48.8327384 135.240916,49.1188937 C136.10437,49.405049 137.111734,49.5481267 137.975188,49.5481267 C140.133824,49.5481267 141.716824,48.8327384 142.724188,47.4019617 C144.019369,45.8281075 144.451097,43.8250202 144.451097,41.3927 C144.451097,38.6742244 143.87546,36.6711372 142.580279,35.0972829 C141.429006,33.6665063 139.414279,32.951118 136.680006,32.951118 Z M37.3827437,5.90944013 L40.8365615,7.62637206 L9.03265563,46.9727288 L6.58620134,43.9680979 L37.3827437,5.90944013 Z M25.7261085,1.76018797 C26.733472,1.33095498 27.8847446,1.33095498 28.8921082,1.76018797 L28.8921082,1.76018797 L33.7850168,4.1925082 L22.991836,17.6418083 C22.5601088,16.6402647 21.8405634,15.7817987 20.977109,15.0664104 C17.9550184,12.4910125 13.6377461,13.0633232 11.0473827,16.067954 C8.45701933,19.0725849 9.03265563,23.5079924 12.0547462,25.9403126 C12.9182007,26.6557009 13.9255642,27.0849339 14.9329278,27.3710892 L14.9329278,27.3710892 L4.13974704,40.8203894 L0.829838281,36.5280595 C0.110292899,35.6695936 -0.177525254,34.5249723 0.110292899,33.5234287 L0.110292899,33.5234287 L4.85929242,13.2064008 C5.0032015,12.7771678 5.14711057,12.3479349 5.43492873,11.9187019 C5.86665595,11.4894689 6.29838318,11.0602359 6.87401949,10.7740806 L6.87401949,10.7740806 Z M110.056827,32.8080403 C109.193373,32.8080403 108.329918,32.951118 107.610373,33.380351 C106.890828,33.6665063 106.315191,34.238817 105.883464,34.8111276 C105.451737,35.3834382 105.02001,35.9557489 104.732191,36.6711372 C104.444373,37.3865255 104.300464,38.1019138 104.156555,38.8173021 L115.237554,38.6742244 C115.237554,37.8157585 115.093645,37.1003702 114.949736,36.3849819 C114.661918,35.6695936 114.3741,34.9542053 113.942372,34.5249723 C113.510645,33.9526616 112.935009,33.5234287 112.359372,33.2372733 C111.783736,32.951118 110.920282,32.8080403 110.056827,32.8080403 Z M13.9255642,18.5002743 C15.0768368,17.2125753 16.9476548,16.92642 18.3867456,18.0710413 C19.8258364,19.0725849 19.9697454,21.0756722 18.8184728,22.5064488 L18.8184728,22.5064488 L18.687651,22.645383 C17.5292133,23.8133818 15.7430826,24.0379097 14.3572915,22.9356818 C13.0621098,21.7910605 12.7742916,19.9310509 13.9255642,18.5002743 Z" id="keptn_logo"></path>
            </g>
        </g>
    </g>
</svg>