<?xml version="1.0" encoding="utf-8"?>
<!-- Generator: Adobe Illustrator 23.0.1, SVG Export Plug-In . SVG Version: 6.00 Build 0)  -->
<svg version="1.1" baseProfile="basic" id="Layer_1"
	 xmlns="http://www.w3.org/2000/svg" xmlns:xlink="http://www.w3.org/1999/xlink" x="0px" y="0px" viewBox="0 0 24 24"
	 xml:space="preserve">
<style type="text/css">
	.st0{fill:#FFFFFF;}
</style>
<title>Slack icon</title>
<path class="st0" d="M9.9,11l1,3.1l3.2-1.1l-1-3.1L9.9,11C9.9,11,9.9,11,9.9,11z"/>
<path class="st0" d="M18.8,14.1l-1.6,0.5l0.5,1.6c0.2,0.6-0.1,1.4-0.8,1.6c-0.1,0-0.3,0.1-0.4,0.1c-0.5,0-1-0.3-1.2-0.8l-0.5-1.6
	l-3.2,1.1l0.5,1.6c0.2,0.7-0.1,1.4-0.8,1.6c-0.1,0-0.3,0.1-0.4,0.1c-0.5,0-1-0.3-1.2-0.9l-0.5-1.6l-1.6,0.5c-0.2,0-0.3,0.1-0.4,0.1
	c-0.5,0-1-0.3-1.2-0.9c-0.2-0.7,0.1-1.4,0.8-1.6l1.6-0.5l-1-3.1l-1.6,0.5c-0.1,0-0.3,0.1-0.4,0.1c-0.5,0-1-0.3-1.1-0.8
	c-0.2-0.6,0.1-1.4,0.8-1.6l1.6-0.5L6.2,7.8C6,7.1,6.3,6.4,7,6.2C7.7,6,8.4,6.4,8.6,7l0.5,1.6l3.2-1.1l-0.5-1.6
	c-0.2-0.6,0.1-1.3,0.8-1.6c0.7-0.2,1.4,0.1,1.6,0.8l0.5,1.6l1.6-0.5C16.9,6,17.6,6.4,17.8,7C18,7.7,17.7,8.4,17,8.6l-1.6,0.5l1,3.1
	l1.6-0.5c0.7-0.2,1.4,0.1,1.6,0.8C19.8,13.2,19.5,13.9,18.8,14.1C18.8,14.1,18.8,14.1,18.8,14.1z M23,8.7C20.5,0.5,16.9-1.5,8.7,1
	C0.5,3.5-1.5,7.1,1,15.3c2.5,8.2,6,10.2,14.3,7.7C23.5,20.5,25.5,16.9,23,8.7z"/>
</svg>
