<?xml version="1.0" encoding="UTF-8"?>
<svg width="170px" height="126px" viewBox="0 0 170 126" version="1.1" xmlns="http://www.w3.org/2000/svg" xmlns:xlink="http://www.w3.org/1999/xlink">
    <title>capabilities-02</title>
    <defs>
        <rect id="path-1" x="0" y="3.78364007e-13" width="72" height="22.968"></rect>
        <rect id="path-3" x="0" y="3.78364007e-13" width="66" height="22.968"></rect>
    </defs>
    <g id="capabilities-02" stroke="none" stroke-width="1" fill="none" fill-rule="evenodd">
        <g id="Group" transform="translate(76.519017, 68.384693) scale(1, -1) translate(-76.519017, -68.384693) translate(18.019017, 7.884693)">
            <line x1="52.1059833" y1="117.609693" x2="52.3031111" y2="44.6265487" id="path138" stroke="#14BA5A" stroke-width="1.22626664"></line>
            <line x1="24.9742443" y1="74.1074264" x2="24.9742443" y2="44.5607306" id="path142" stroke="#3389C6" stroke-width="1.22626664"></line>
            <line x1="75.4383773" y1="74.4583211" x2="75.4383773" y2="44.571478" id="path146" stroke="#3389C6" stroke-width="1.22626664"></line>
            <path d="M67.355077,27.2461335 C70.4591889,27.2461335 73.2105969,28.7271734 74.9635568,31.0139414 C76.1529016,29.4624196 77.8018643,28.2818006 79.7087627,27.6830013 L96.5307437,44.6268796 L7.11366241,44.6268796 L24.0774913,27.5399741 C26.1461811,28.0656117 27.9449399,29.2657404 29.231894,30.8903894 C30.9890779,28.6727894 33.6998299,27.2461335 36.7485018,27.2461335 C39.8721497,27.2461335 42.6393976,28.7467094 44.3902456,31.0588214 C46.1416216,28.7467094 48.9083415,27.2461335 52.0319894,27.2461335 C55.1677813,27.2461335 57.9434773,28.7572694 59.6932692,31.0846934 C61.4435892,28.7572694 64.2192851,27.2461335 67.355077,27.2461335 Z" id="Combined-Shape" fill="#006BB8" fill-rule="nonzero"></path>
            <polygon id="path150" stroke="#14BA5A" stroke-width="0.952" fill="#FFFFFF" transform="translate(52.233022, 90.436693) rotate(45.000000) translate(-52.233022, -90.436693) " points="30.9830215 69.1866934 73.4830215 69.1866934 73.4830215 111.686693 30.9830215 111.686693"></polygon>
            <polygon id="path152" fill="#3389C6" fill-rule="nonzero" points="13.7753502 52.2351471 36.1740208 52.2351471 36.1740208 70.0851471 13.7753502 70.0851471"></polygon>
            <polygon id="path156" fill="#006BB8" fill-rule="nonzero" points="79.437155 29.5233033 80.5148945 28.4455637 101.856785 49.788557 100.781251 50.8651934"></polygon>
            <g id="g166" transform="translate(74.525089, 51.385588)" fill="#3389C6" fill-rule="nonzero">
                <polygon id="path168" points="23.1653328 2.77111667e-13 0.731362648 2.77111667e-13 0.731362648 22.4339701"></polygon>
            </g>
            <polygon id="path172" fill="#F2F7FB" fill-rule="nonzero" points="69.5608912 40.4892202 72.2977098 39.1710025 72.9739169 36.2102523 71.0798751 33.8352542 68.0430103 33.8352542 66.1489686 36.2102523 66.8251757 39.1710025"></polygon>
            <polygon id="path176" fill="#F2F7FB" fill-rule="nonzero" points="51.946634 40.4892202 54.6823495 39.1710025 55.3596597 36.2102523 53.465618 33.8352542 50.42765 33.8352542 48.5347114 36.2102523 49.2109185 39.1710025"></polygon>
            <polygon id="path180" fill="#F2F7FB" fill-rule="nonzero" points="34.0318894 40.4892202 36.7676049 39.1710025 37.443812 36.2102523 35.5497702 33.8352542 32.5129054 33.8352542 30.6188637 36.2102523 31.2961739 39.1710025"></polygon>
            <g id="Group-70" transform="translate(80.980983, 21.884693) scale(1, -1) translate(-80.980983, -21.884693) translate(44.980983, 9.884693)">
                <g id="Group-44" transform="translate(0.000000, 0.200000)">
                    <mask id="mask-2" fill="white">
                        <use xlink:href="#path-1"></use>
                    </mask>
                    <g id="Mask"></g>
                    <g mask="url(#mask-2)" id="g52">
                        <g transform="translate(-114.760000, -2.696000)">
                            <g transform="translate(130.131999, 15.904000) scale(1, -1) translate(-130.131999, -15.904000) translate(0.131999, 13.404000)">
                                <g id="g58" transform="translate(0.049738, 0.170174)" stroke="#7AAFD5" stroke-width="1.58399996">
                                    <path d="M0,0 C3.10411192,0 5.85551985,1.48103996 7.60900781,3.76780791 C9.36143977,1.48103996 12.1133757,0 15.2174876,0 C18.3215995,0 21.0730075,1.48103996 22.8259674,3.76780791 C24.5789274,1.48103996 27.3303353,0 30.4344472,0 C33.5633752,0 36.3337911,1.50532796 38.084639,3.8232479 C39.835487,1.50532796 42.6059029,0 45.7353589,0 C48.7840308,0 51.4942547,1.42665596 53.2509107,3.64425591 C55.0080946,1.42665596 57.7188466,0 60.7675185,0 C63.8911664,0 66.6584143,1.50057596 68.4092623,3.8126879 C70.1606382,1.50057596 72.9273582,0 76.0510061,0 C79.186798,0 81.962494,1.51113596 83.7122859,3.8385599 C85.4626059,1.51113596 88.2383018,0 91.3740937,0 C94.4782056,0 97.2296136,1.48103996 98.9825735,3.76780791 C100.735533,1.48103996 103.486941,0 106.591053,0 C109.695165,0 112.446573,1.48103996 114.199533,3.76780791 C115.952493,1.48103996 118.704429,0 121.808541,0 C124.937469,0 127.707885,1.50532796 129.458733,3.8232479 C131.209053,1.50532796 133.979997,0 137.108925,0 C140.157596,0 142.86782,1.42665596 144.625004,3.64425591 C146.38166,1.42665596 149.09294,0 152.141084,0 C155.26526,0 158.031452,1.50057596 159.783356,3.8126879 C161.534204,1.50057596 164.300924,0 167.424572,0 C170.507564,0 173.24366,1.46044796 174.998204,3.72081591 C176.752748,1.46044796 179.488844,0 182.571835,0 C185.675947,0 188.427355,1.48103996 190.180315,3.76780791 C191.933275,1.48103996 194.684683,0 197.788795,0 C200.892907,0 203.644315,1.48103996 205.397275,3.76780791 C207.150763,1.48103996 209.902171,0 213.005755,0 C216.135211,0 218.905627,1.50532796 220.656474,3.8232479 C222.406794,1.50532796 225.17721,0 228.306666,0 C231.35481,0 234.065562,1.42665596 235.822746,3.64425591 C237.579402,1.42665596 240.290154,0 243.338826,0 C246.463002,0 249.229722,1.50057596 250.98057,3.8126879 C252.731946,1.50057596 255.498666,0 258.622842,0" id="path60"></path>
                                </g>
                            </g>
                        </g>
                    </g>
                </g>
            </g>
            <g id="Group-70" transform="translate(33.980983, 12.884693) scale(1, -1) translate(-33.980983, -12.884693) translate(0.980983, 0.884693)">
                <g id="Group-44" transform="translate(0.000000, 0.200000)">
                    <mask id="mask-4" fill="white">
                        <use xlink:href="#path-3"></use>
                    </mask>
                    <g id="Mask"></g>
                    <g mask="url(#mask-4)" id="g52">
                        <g transform="translate(-101.760000, -2.696000)">
                            <g transform="translate(130.131999, 15.904000) scale(1, -1) translate(-130.131999, -15.904000) translate(0.131999, 13.404000)">
                                <g id="g58" transform="translate(0.049738, 0.170174)" stroke="#7AAFD5" stroke-width="1.58399996">
                                    <path d="M0,0 C3.10411192,0 5.85551985,1.48103996 7.60900781,3.76780791 C9.36143977,1.48103996 12.1133757,0 15.2174876,0 C18.3215995,0 21.0730075,1.48103996 22.8259674,3.76780791 C24.5789274,1.48103996 27.3303353,0 30.4344472,0 C33.5633752,0 36.3337911,1.50532796 38.084639,3.8232479 C39.835487,1.50532796 42.6059029,0 45.7353589,0 C48.7840308,0 51.4942547,1.42665596 53.2509107,3.64425591 C55.0080946,1.42665596 57.7188466,0 60.7675185,0 C63.8911664,0 66.6584143,1.50057596 68.4092623,3.8126879 C70.1606382,1.50057596 72.9273582,0 76.0510061,0 C79.186798,0 81.962494,1.51113596 83.7122859,3.8385599 C85.4626059,1.51113596 88.2383018,0 91.3740937,0 C94.4782056,0 97.2296136,1.48103996 98.9825735,3.76780791 C100.735533,1.48103996 103.486941,0 106.591053,0 C109.695165,0 112.446573,1.48103996 114.199533,3.76780791 C115.952493,1.48103996 118.704429,0 121.808541,0 C124.937469,0 127.707885,1.50532796 129.458733,3.8232479 C131.209053,1.50532796 133.979997,0 137.108925,0 C140.157596,0 142.86782,1.42665596 144.625004,3.64425591 C146.38166,1.42665596 149.09294,0 152.141084,0 C155.26526,0 158.031452,1.50057596 159.783356,3.8126879 C161.534204,1.50057596 164.300924,0 167.424572,0 C170.507564,0 173.24366,1.46044796 174.998204,3.72081591 C176.752748,1.46044796 179.488844,0 182.571835,0 C185.675947,0 188.427355,1.48103996 190.180315,3.76780791 C191.933275,1.48103996 194.684683,0 197.788795,0 C200.892907,0 203.644315,1.48103996 205.397275,3.76780791 C207.150763,1.48103996 209.902171,0 213.005755,0 C216.135211,0 218.905627,1.50532796 220.656474,3.8232479 C222.406794,1.50532796 225.17721,0 228.306666,0 C231.35481,0 234.065562,1.42665596 235.822746,3.64425591 C237.579402,1.42665596 240.290154,0 243.338826,0 C246.463002,0 249.229722,1.50057596 250.98057,3.8126879 C252.731946,1.50057596 255.498666,0 258.622842,0" id="path60"></path>
                                </g>
                            </g>
                        </g>
                    </g>
                </g>
            </g>
            <g id="gitops" transform="translate(52.066770, 90.384693) scale(1, -1) translate(-52.066770, -90.384693) translate(33.566770, 71.884693)">
                <rect id="Rectangle" fill="#006BB8" transform="translate(18.500000, 18.500000) rotate(45.000000) translate(-18.500000, -18.500000) " x="6" y="6" width="25" height="25"></rect>
                <path d="M18.9142136,8.9 C20.3501539,8.9 21.5142136,10.0640597 21.5142136,11.5 C21.5142136,12.5175549 20.9296684,13.3985819 20.0780579,13.8256011 L20.0771068,23.13 L23.5737933,19.6338072 C23.4074853,19.2911466 23.3142136,18.9064657 23.3142136,18.5 C23.3142136,17.0640597 24.4782732,15.9 25.9142136,15.9 C27.3501539,15.9 28.5142136,17.0640597 28.5142136,18.5 C28.5142136,19.9359403 27.3501539,21.1 25.9142136,21.1 C25.6209056,21.1 25.3389413,21.051432 25.0759241,20.9618995 L21.3757712,24.6607068 C21.4655219,24.9240103 21.5142136,25.2063189 21.5142136,25.5 C21.5142136,26.9359403 20.3501539,28.1 18.9142136,28.1 C18.6209056,28.1 18.3389413,28.051432 18.0759241,27.9618995 L11.4713203,34.5652642 L10.0571068,33.1510507 L16.5737933,26.6338072 C16.4074853,26.2911466 16.3142136,25.9064657 16.3142136,25.5 C16.3142136,24.3569945 17.0517765,23.386256 18.0769281,23.037759 L18.0769281,13.962241 C17.0517765,13.613744 16.3142136,12.6430055 16.3142136,11.5 C16.3142136,10.0640597 17.4782732,8.9 18.9142136,8.9 Z" id="Combined-Shape" fill="#FFFFFF" fill-rule="nonzero"></path>
            </g>
        </g>
    </g>
</svg>