<?xml version="1.0" encoding="UTF-8"?>
<svg width="170px" height="126px" viewBox="0 0 170 126" version="1.1" xmlns="http://www.w3.org/2000/svg" xmlns:xlink="http://www.w3.org/1999/xlink">
    <title>capabilities-04</title>
    <g id="capabilities-04" stroke="none" stroke-width="1" fill="none" fill-rule="evenodd">
        <g id="Group" transform="translate(0.000000, 4.000000)">
            <path d="M44.0838498,86.4065253 L46.6042304,83.8861448 L45.4840612,82.7659757 L42.9636807,85.2863562 L44.0838498,86.4065253 Z M48.2844841,82.2058911 L50.8048646,79.6855105 L49.6846955,78.5653414 L47.164315,81.0857219 L48.2844841,82.2058911 Z M52.4851184,78.0052568 L55.0054989,75.4848763 L53.8853298,74.3647071 L51.3649492,76.8850877 L52.4851184,78.0052568 Z M56.6857526,73.8046225 L59.2061332,71.284242 L58.085964,70.1640729 L55.5655835,72.6844534 L56.6857526,73.8046225 Z M60.8863869,69.6039883 L63.4067674,67.0836077 L62.2865983,65.9634386 L59.7662178,68.4838191 L60.8863869,69.6039883 Z M65.0870212,65.403354 L67.6074017,62.8829735 L66.4872326,61.7628043 L63.9668521,64.2831848 L65.0870212,65.403354 Z M67.7692458,60.0825506 L65.2488653,57.56217 L64.1286961,58.6823392 L66.6490767,61.2027197 L67.7692458,60.0825506 Z M63.5686115,55.8819163 L61.048231,53.3615358 L59.9280619,54.4817049 L62.4484424,57.0020854 L63.5686115,55.8819163 Z M59.3679772,51.681282 L56.8475967,49.1609015 L55.7274276,50.2810706 L58.2478081,52.8014512 L59.3679772,51.681282 Z M55.167343,47.4806478 L52.6469624,44.9602672 L51.5267933,46.0804364 L54.0471738,48.6008169 L55.167343,47.4806478 Z M50.9667087,43.2800135 L50.2876879,42.6009927 L50.2876879,43.7211618 L52.1290476,41.8798021 L51.0088785,40.759633 L48.6074342,43.1610772 L49.8465396,44.4001826 L50.9667087,43.2800135 Z M53.8093013,40.1995483 L56.3296819,37.6791678 L55.2095127,36.5589987 L52.6891322,39.0793792 L53.8093013,40.1995483 Z M58.0099356,35.9989141 L60.5303161,33.4785335 L59.410147,32.3583644 L56.8897665,34.8787449 L58.0099356,35.9989141 Z M62.2105699,31.7982798 L64.7309504,29.2778993 L63.6107813,28.1577301 L61.0904007,30.6781107 L62.2105699,31.7982798 Z M66.4112041,27.5976455 L67.3403318,26.6685179 L66.2201627,26.6685179 L67.8114155,28.2597707 L68.9315847,27.1396016 L66.7802472,24.9882642 L65.291035,26.4774764 L66.4112041,27.5976455 Z M69.4916693,29.9400245 L72.0120498,32.460405 L73.1322189,31.3402359 L70.6118384,28.8198553 L69.4916693,29.9400245 Z M74.8124727,33.0204896 L73.6923036,34.1406587 L76.6509406,37.0992958 L77.3328532,36.4173831 L76.2126841,35.297214 L76.090856,35.4190421 L76.6509406,35.9791266 L77.2110252,35.4190421 L74.8124727,33.0204896 Z M79.013107,34.7371294 L81.5334875,32.2167489 L80.4133184,31.0965797 L77.8929378,33.6169603 L79.013107,34.7371294 Z M83.2137412,30.5364951 L85.7341218,28.0161146 L84.6139526,26.8959455 L82.0935721,29.416326 L83.2137412,30.5364951 Z M87.4143755,26.3358609 L89.934756,23.8154803 L88.8145869,22.6953112 L86.2942064,25.2156917 L87.4143755,26.3358609 Z M90.4948406,23.0726432 L93.0152212,25.5930237 L94.1353903,24.4728546 L91.6150098,21.9524741 L90.4948406,23.0726432 Z M94.6954749,27.2732775 L97.2158554,29.793658 L98.3360246,28.6734889 L95.815644,26.1531083 L94.6954749,27.2732775 Z M98.8961092,31.4739117 L101.41649,33.9942923 L102.536659,32.8741231 L100.016278,30.3537426 L98.8961092,31.4739117 Z M103.096743,35.674546 L105.617124,38.1949265 L106.737293,37.0747574 L104.216913,34.5543769 L103.096743,35.674546 Z M107.297378,39.8751803 L109.817758,42.3955608 L110.937927,41.2753917 L108.417547,38.7550111 L107.297378,39.8751803 Z M109.969212,42.9556454 L107.448832,45.4760259 L108.569001,46.5961951 L111.089381,44.0758145 L109.969212,42.9556454 Z M105.768578,47.1562797 L103.248197,49.6766602 L104.368366,50.7968293 L106.888747,48.2764488 L105.768578,47.1562797 Z M102.232344,52.4770831 L104.752725,54.9974636 L105.872894,53.8772945 L103.352514,51.356914 L102.232344,52.4770831 Z M106.432979,56.6777174 L108.953359,59.1980979 L110.073528,58.0779288 L107.553148,55.5575482 L106.432979,56.6777174 Z M110.633613,60.8783516 L113.153993,63.3987322 L114.274163,62.278563 L111.753782,59.7581825 L110.633613,60.8783516 Z M114.834247,65.0789859 L117.354628,67.5993664 L118.474797,66.4791973 L115.954416,63.9588168 L114.834247,65.0789859 Z M119.034881,69.2796202 L121.555262,71.8000007 L122.675431,70.6798316 L120.155051,68.159451 L119.034881,69.2796202 Z M123.235516,73.4802544 L125.755896,76.000635 L126.876065,74.8804658 L124.355685,72.3600853 L123.235516,73.4802544 Z M127.43615,77.6808887 L129.956531,80.2012692 L131.0767,79.0811001 L128.556319,76.5607196 L127.43615,77.6808887 Z M131.636784,81.881523 L134.157165,84.4019035 L135.277334,83.2817344 L132.756953,80.7613539 L131.636784,81.881523 Z M135.837419,86.0821573 L138.357799,88.6025378 L139.477968,87.4823687 L136.957588,84.9619881 L135.837419,86.0821573 Z M137.503204,89.1626224 L134.982824,91.6830029 L136.102993,92.8031721 L138.623373,90.2827915 L137.503204,89.1626224 Z M133.30257,93.3632567 L130.78219,95.8836372 L131.902359,97.0038063 L134.422739,94.4834258 L133.30257,93.3632567 Z M129.101936,97.5638909 L126.581555,100.084271 L127.701724,101.204441 L130.222105,98.6840601 L129.101936,97.5638909 Z M124.901302,101.764525 L122.380921,104.284906 L123.50109,105.405075 L126.021471,102.884694 L124.901302,101.764525 Z M120.700667,105.965159 L118.180287,108.48554 L119.300456,109.605709 L121.820836,107.085329 L120.700667,105.965159 Z M116.500033,110.165794 L113.979652,112.686174 L115.099822,113.806343 L117.620202,111.285963 L116.500033,110.165794 Z M112.299399,114.366428 L109.779018,116.886809 L110.899187,118.006978 L113.419568,115.486597 L112.299399,114.366428 Z M109.218934,116.713771 L106.698553,114.19339 L105.578384,115.313559 L108.098764,117.83394 L109.218934,116.713771 Z M105.018299,112.513136 L102.497919,109.992756 L101.37775,111.112925 L103.89813,113.633305 L105.018299,112.513136 Z M100.817665,108.312502 L98.2972845,105.792122 L97.1771154,106.912291 L99.6974959,109.432671 L100.817665,108.312502 Z M96.6170307,104.111868 L94.0966502,101.591487 L92.9764811,102.711656 L95.4968616,105.232037 L96.6170307,104.111868 Z M92.4163965,99.9112336 L89.8960159,97.390853 L88.7758468,98.5110222 L91.2962273,101.031403 L92.4163965,99.9112336 Z M87.0955931,96.8307684 L88.2157622,95.7105993 L86.80346,94.2982971 L84.5752125,96.5265445 L85.6953817,97.6467137 L87.3635446,95.9785508 L86.2433754,95.9785508 L87.0955931,96.8307684 Z M82.8949588,98.2067983 L80.3745783,100.727179 L81.4947474,101.847348 L84.0151279,99.3269674 L82.8949588,98.2067983 Z M78.6943245,102.407433 L76.173944,104.927813 L77.2941131,106.047982 L79.8144937,103.527602 L78.6943245,102.407433 Z M74.4936903,106.608067 L71.9733097,109.128447 L73.0934789,110.248616 L75.6138594,107.728236 L74.4936903,106.608067 Z M70.293056,110.808701 L69.3507597,111.750997 L70.4709288,111.750997 L68.8928446,110.172913 L67.7726754,111.293082 L69.9108442,113.431251 L71.4132251,111.92887 L70.293056,110.808701 Z M67.2125908,108.492659 L64.6922103,105.972279 L63.5720412,107.092448 L66.0924217,109.612829 L67.2125908,108.492659 Z M63.0119566,104.292025 L60.491576,101.771645 L59.3714069,102.891814 L61.8917874,105.412194 L63.0119566,104.292025 Z M58.8113223,100.091391 L56.2909418,97.5710103 L55.1707726,98.6911795 L57.6911532,101.21156 L58.8113223,100.091391 Z M54.610688,95.8907566 L52.0903075,93.3703761 L50.9701384,94.4905452 L53.4905189,97.0109257 L54.610688,95.8907566 Z M50.4100537,91.6901223 L47.8896732,89.1697418 L46.7695041,90.2899109 L49.2898846,92.8102915 L50.4100537,91.6901223 Z M46.2094195,87.4894881 L45.0765318,86.3566004 L43.9563627,87.4767696 L45.0892503,88.6096572 L46.2094195,87.4894881 Z" id="Path-6" fill="#14BA5A" fill-rule="nonzero" transform="translate(91.220824, 69.979726) scale(1, -1) translate(-91.220824, -69.979726) "></path>
            <g id="Group-32" transform="translate(102.333272, 60.202121) scale(-1, 1) rotate(225.000000) translate(-102.333272, -60.202121) translate(79.833272, 44.702121)">
                <g id="g136" transform="translate(21.509548, 7.699744)" stroke="#006BB8" stroke-width="0.725657471">
                    <line x1="0.505143073" y1="22.7314383" x2="0.505143073" y2="0.286416123" id="path138"></line>
                </g>
                <g id="g140" transform="translate(7.827242, 7.736468)" stroke="#006BB8" stroke-width="0.725657471">
                    <line x1="0.505143073" y1="15.6594353" x2="0.505143073" y2="0.250045821" id="path142"></line>
                </g>
                <g id="g144" transform="translate(30.936073, 7.658323)" stroke="#006BB8" stroke-width="0.725657471">
                    <line x1="0.505143073" y1="15.1542922" x2="0.505143073" y2="0.327837855" id="path146"></line>
                </g>
                <polygon id="path148" fill="#006BB8" fill-rule="nonzero" points="8.08228917 5.05143072e-05 33.1474885 5.05143072e-05 33.1474885 7.9863625 8.08228917 7.9863625"></polygon>
                <polygon id="path150" fill="#3389C6" fill-rule="nonzero" points="17.1182885 11.4703343 27.3752186 11.4703343 27.3752186 28.5163873 17.1182885 28.5163873"></polygon>
                <polygon id="path152" fill="#3389C6" fill-rule="nonzero" points="3.20412251 11.4703343 13.4610526 11.4703343 13.4610526 21.7272644 3.20412251 21.7272644"></polygon>
                <g id="g154" transform="translate(33.272360, 0.564851)" fill="#006BB8" fill-rule="nonzero">
                    <polygon id="path156" points="0 0.505143073 0.493524783 0.0116182907 10.2665278 9.78512647 9.77401332 10.2781461"></polygon>
                </g>
                <g id="g158" transform="translate(25.088941, -0.000000)" fill="#006BB8" fill-rule="nonzero">
                    <polygon id="path160" points="8.08228917 0 0.153563494 7.98631199 16.0110148 7.98631199"></polygon>
                </g>
                <g id="g162" transform="translate(-0.000000, -0.000000)" fill="#006BB8" fill-rule="nonzero">
                    <polygon id="path164" points="8.08228917 0 0.153563494 7.98631199 16.0110148 7.98631199"></polygon>
                </g>
                <g id="g166" transform="translate(30.954309, 11.470536)" fill="#3389C6" fill-rule="nonzero">
                    <polygon id="path168" points="10.6080045 0 0.334909858 0 0.334909858 10.2730947"></polygon>
                </g>
                <g id="g170" transform="translate(27.108048, 2.934427)" fill="#F2F7FB" fill-rule="nonzero">
                    <polygon id="path172" points="1.64171498 3.1571442 2.89497494 2.55349823 3.20462765 1.19769422 2.33729699 0.11012118 0.94663811 0.11012118 0.079307453 1.19769422 0.388960157 2.55349823"></polygon>
                </g>
                <g id="g174" transform="translate(19.042025, 2.934427)" fill="#F2F7FB" fill-rule="nonzero">
                    <polygon id="path176" points="1.64171498 3.1571442 2.8944698 2.55349823 3.20462765 1.19769422 2.33729699 0.11012118 0.946132967 0.11012118 0.079307453 1.19769422 0.388960157 2.55349823"></polygon>
                </g>
                <g id="g178" transform="translate(10.838400, 2.934427)" fill="#F2F7FB" fill-rule="nonzero">
                    <polygon id="path180" points="1.64171498 3.1571442 2.8944698 2.55349823 3.2041225 1.19769422 2.33679185 0.11012118 0.946132967 0.11012118 0.07880231 1.19769422 0.388960157 2.55349823"></polygon>
                </g>
            </g>
            <path d="M7.48002685,68.164832 L0,60.683978 L7.48002685,53.2031241 L14.758,60.4815181 L29.5725723,45.6675181 L51.8670884,67.9620342 L37.053,82.7755181 L43.8792402,89.6024202 L36.3983863,97.0832741 L7.48002685,68.164832 Z" id="Combined-Shape" fill="#D9E9F4" fill-rule="nonzero" transform="translate(25.933544, 71.375396) scale(-1, 1) rotate(-180.000000) translate(-25.933544, -71.375396) "></path>
            <path d="M92.6735669,0.283365509 L104.554455,12.1645536 L92.6735669,24.0457417 L88.1739631,19.5463655 L82.5815284,25.1386139 L75.1015015,17.6577599 L77.1589631,15.5993655 L71.0989631,9.5394256 L78.579817,2.05939874 L84.7379631,8.21836551 L92.6735669,0.283365509 Z" id="Combined-Shape" fill="#D9E9F4" fill-rule="nonzero" transform="translate(87.826709, 12.710990) scale(-1, 1) rotate(-180.000000) translate(-87.826709, -12.710990) "></path>
            <polygon id="path260" fill="#006BB8" fill-rule="nonzero" transform="translate(43.523765, 54.587424) scale(-1, 1) rotate(-180.000000) translate(-43.523765, -54.587424) " points="43.5237653 58.7087171 46.9139278 57.0760796 47.7509233 53.4080214 45.4045239 50.4661311 41.6421796 50.4661311 39.2966072 53.4080214 40.1336027 57.0760796"></polygon>
            <polygon id="path272" fill="#006BB8" fill-rule="nonzero" transform="translate(71.445083, 28.256435) scale(-1, 1) rotate(-180.000000) translate(-71.445083, -28.256435) " points="71.4450833 32.3777278 74.8352459 30.7450904 75.6722413 27.0770321 73.3258419 24.1351418 69.5643247 24.1351418 67.2179253 27.0770321 68.0549208 30.7450904"></polygon>
            <polygon id="path308" fill="#006BB8" fill-rule="nonzero" transform="translate(112.065424, 97.426890) scale(-1, 1) rotate(-180.000000) translate(-112.065424, -97.426890) " points="112.065424 101.548183 115.455587 99.9155453 116.292582 96.247487 113.946183 93.3055968 110.183839 93.3055968 107.838266 96.247487 108.675262 99.9155453"></polygon>
            <polygon id="path308" fill="#006BB8" fill-rule="nonzero" transform="translate(49.352792, 96.692069) scale(-1, 1) rotate(-180.000000) translate(-49.352792, -96.692069) " points="49.3527918 100.813362 52.7429543 99.1807248 53.5799498 95.5126665 51.2335504 92.5707763 47.4712061 92.5707763 45.1256337 95.5126665 45.9626292 99.1807248"></polygon>
            <polygon id="path312" fill="#D9E9F4" fill-rule="nonzero" transform="translate(127.935422, 87.682872) scale(-1, 1) rotate(-180.000000) translate(-127.935422, -87.682872) " points="127.935835 71.1005192 144.517774 87.6832855 127.935835 104.265225 111.353069 87.6832855"></polygon>
            <polygon id="path308" fill="#14BA5A" fill-rule="nonzero" transform="translate(147.009901, 44.009901) scale(1, -1) translate(-147.009901, -44.009901) " points="147.009901 63.019802 162.25576 55.4890886 166.019802 38.5697808 155.467838 25 138.548245 25 128 38.5697808 131.764042 55.4890886"></polygon>
            <g transform="translate(134.500000, 32.000000)" fill="#FFFFFF" fill-rule="nonzero" id="a/icons/32/devops">
                <g transform="translate(0.816832, 8.168317)" id="Path">
                    <path d="M18.2431932,0 C16.8308169,0 15.496906,0.549257429 14.5455137,1.50064976 L7.65037134,7.62094683 C7.02264856,8.24866961 6.18895425,8.5919555 5.29641092,8.5919555 C3.46228344,8.5919555 1.97144184,7.11092207 1.97144184,5.27679459 C1.97144184,3.4426671 3.46228344,1.96163368 5.29641092,1.96163368 C6.18895425,1.96163368 7.02264856,2.30491957 7.68960401,2.97187502 L8.79792704,3.95269186 L10.2789605,2.63839729 L9.04313125,1.5496906 C8.04269807,0.549257429 6.70878717,0 5.29641092,0 C2.37357675,0 0,2.37357675 0,5.27679459 C0,8.18001243 2.37357675,10.5535892 5.29641092,10.5535892 C6.70878717,10.5535892 8.04269807,10.0043317 8.9940904,9.05293941 L15.8892328,2.93264235 C16.5169555,2.30491957 17.3506499,1.96163368 18.2431932,1.96163368 C20.0773207,1.96163368 21.5681623,3.4426671 21.5681623,5.27679459 C21.5681623,7.11092207 20.0773207,8.5919555 18.2431932,8.5919555 C17.360458,8.5919555 16.5169555,8.24866961 15.8500001,7.58171416 L14.7318689,6.59108915 L13.2508355,7.90538371 L14.4964729,9.00389857 C15.496906,9.99452358 16.8210088,10.543781 18.2431932,10.543781 C21.1660274,10.543781 23.5396041,8.18001243 23.5396041,5.26698642 C23.5396041,2.35396041 21.1660274,0 18.2431932,0 L18.2431932,0 Z"></path>
                </g>
            </g>
        </g>
    </g>
</svg>