<?xml version="1.0" encoding="UTF-8"?>
<svg width="170px" height="126px" viewBox="0 0 170 126" version="1.1" xmlns="http://www.w3.org/2000/svg" xmlns:xlink="http://www.w3.org/1999/xlink">
    <title>capabilities-01</title>
    <g id="capabilities-01" stroke="none" stroke-width="1" fill="none" fill-rule="evenodd">
        <g id="Group-2" transform="translate(63.435634, 65.173328) scale(1, -1) translate(-63.435634, -65.173328) translate(8.935634, 18.173328)">
            <polygon id="path104" fill="#3389C6" fill-rule="nonzero" points="60.4335417 6.59702484 28.1267451 4.42390779 60.9114763 41.6856454 93.2182729 13.2617376"></polygon>
            <path d="M81.7738509,23.2813335 L86.9058391,29.1059307 L91.8154951,34.6807345 L94.2579787,32.5300287 L97.8939786,36.6584861 L95.451495,38.8091919 L101.651839,45.8481656 L86.1414077,59.5089103 L80.8222464,53.4693335 L74.9265792,51.3985445 L77.2182464,49.3783335 L76.8532464,48.9633335 L76.789735,49.0188747 L71.2852464,42.6704286 L77.6331139,37.1658996 L77.6852464,37.2263335 L77.7942464,37.1303335 L72.662727,31.3058823 L81.7738509,23.2813335 Z" id="Combined-Shape" fill="#006BB8" fill-rule="nonzero"></path>
            <path d="M100.0633,44.1287891 L108.299091,48.8091158 L105.982255,50.8497891 L105.984409,50.8519563 L92.8157252,62.4500567 L88.1829279,66.5336252 L84.6202548,57.8667891 L84.6186182,57.8638646 L84.6192548,57.8627891 L84.5812548,57.7710502 L84.6682548,57.8197891 L100.102255,44.2247891 L100.0633,44.1287891 Z" id="Combined-Shape" fill="#FFFFFF" fill-rule="nonzero"></path>
            <polygon id="path128" fill="#006BB8" fill-rule="nonzero" points="5.26747508 73.1720316 11.9928867 84.7111162 60.879526 41.6613526 52.2186112 31.8267254"></polygon>
            <polygon id="Rectangle" stroke="#14BA5A" stroke-width="1.38627451" fill="#FFFFFF" transform="translate(30.672209, 64.040975) scale(1, -1) translate(-30.672209, -64.040975) " points="7.89769893 34.8301907 53.4467185 34.8301907 53.4467185 82.8399946 43.0673348 93.2517593 7.89769893 93.2517593"></polygon>
            <g id="Group" transform="translate(14.897699, 47.251759)" fill="#006BB8" fill-rule="nonzero">
                <g id="a/icons/32/sre" transform="translate(16.000000, 16.000000) scale(1, -1) translate(-16.000000, -16.000000) ">
                    <g transform="translate(4.000000, 4.000000)" id="Shape">
                        <path d="M20.7375,14.175 L23.625,13.125 L23.625,10.5 L20.7375,9.45 C20.475,8.6625 20.2125,7.875 19.6875,7.0875 L21,4.4625 L19.1625,2.625 L16.5375,3.9375 C15.75,3.4125 14.9625,3.15 14.175,2.8875 L13.125,0 L10.5,0 L9.45,2.8875 C8.6625,3.15 7.875,3.4125 7.0875,3.9375 L4.4625,2.625 L2.625,4.4625 L3.9375,7.35 C3.4125,8.1375 3.15,8.925 2.8875,9.7125 L0,10.5 L0,13.125 L2.8875,14.175 C3.15,14.9625 3.4125,15.75 3.9375,16.5375 L2.625,19.1625 L4.4625,21 L7.35,19.6875 C8.1375,20.2125 8.925,20.475 9.7125,20.7375 L10.5,23.625 L13.125,23.625 L14.175,20.7375 C14.9625,20.475 15.75,20.2125 16.5375,19.6875 L19.1625,21 L21,19.1625 L19.6875,16.275 C20.2125,15.75 20.475,14.9625 20.7375,14.175 Z M11.8125,17.0625 C8.925,17.0625 6.5625,14.7 6.5625,11.8125 C6.5625,8.925 8.925,6.5625 11.8125,6.5625 C14.7,6.5625 17.0625,8.925 17.0625,11.8125 C17.0625,14.7 14.7,17.0625 11.8125,17.0625 Z"></path>
                    </g>
                </g>
            </g>
            <polygon id="Path-9" fill="#14BA5A" transform="translate(48.000640, 40.276269) scale(1, -1) translate(-48.000640, -40.276269) " points="42.5545617 45.7223476 42.5545617 34.8301907 53.4467185 34.8301907"></polygon>
            <polygon id="path140" fill="#FFFFFF" fill-rule="nonzero" points="70.2697532 19.4248499 86.4165502 19.2598172 68.0398317 35.415856"></polygon>
            <polygon id="path144" fill="#B5CEE0" fill-rule="nonzero" points="70.2697532 19.4248499 81.7956353 23.3222616 72.6607466 31.3547319"></polygon>
            <path d="M28.1799516,0.165668677 L93.2213095,0.20659678 L93.2120677,13.3115115 L34.3764158,13.2735367 L33.2405136,16.2595232 L25.3804158,13.2675367 L25.0773373,13.2679429 L25.1014158,13.1615367 L23.2514158,12.4584906 L27.929102,0.165536651 L28.1584158,0.253536651 L28.1799516,0.165668677 Z" id="Combined-Shape" fill="#006BB8" fill-rule="nonzero"></path>
            <polygon id="path176" fill="#006BB8" fill-rule="nonzero" points="10.5769063 89.2690547 15.2559127 76.9761007 5.26681495 73.1750682 0.587808528 85.4667018"></polygon>
            <path d="M1.92114052,81.9631241 L11.9115586,85.765477 L11.242186,87.5227449 L1.25308825,83.7203921 L1.92114052,81.9631241 Z M3.23374441,78.5135451 L13.2241625,82.315898 L12.5547899,84.0731659 L2.56569214,80.2708131 L3.23374441,78.5135451 Z M4.59136921,74.9497635 L14.525016,78.7309922 L13.8569638,80.4882601 L3.92331694,76.7070315 L4.59136921,74.9497635 Z" id="Combined-Shape" fill="#FFFFFF" fill-rule="nonzero"></path>
        </g>
    </g>
</svg>