<?xml version="1.0" encoding="UTF-8"?>
<svg width="170px" height="126px" viewBox="0 0 170 126" version="1.1" xmlns="http://www.w3.org/2000/svg" xmlns:xlink="http://www.w3.org/1999/xlink">
    <title>capabilities-03</title>
    <defs>
        <path d="M4.62668505,23 C4.62668505,23 3.14981618,49.2 0.196078431,101.6 L31.6070772,101.6 L26.5874694,23 C11.9469465,23 4.62668505,23 4.62668505,23 Z" id="path-1"></path>
        <linearGradient x1="80.1530624%" y1="50%" x2="2.27373675e-11%" y2="27.1193772%" id="linearGradient-3">
            <stop stop-color="#FFFFFF" stop-opacity="0" offset="0%"></stop>
            <stop stop-color="#FFFFFF" offset="100%"></stop>
        </linearGradient>
        <linearGradient x1="83.0762741%" y1="58.2965334%" x2="-69.8953063%" y2="20.0946288%" id="linearGradient-4">
            <stop stop-color="#FFFFFF" stop-opacity="0" offset="0%"></stop>
            <stop stop-color="#FFFFFF" offset="100%"></stop>
        </linearGradient>
    </defs>
    <g id="capabilities-03" stroke="none" stroke-width="1" fill="none" fill-rule="evenodd">
        <g id="Group-69" transform="translate(0.000000, -5.000000)">
            <g id="Group-59">
                <g id="Group-58" transform="translate(27.000000, 12.200000)">
                    <g id="Group-3" transform="translate(5.215686, 0.000000)">
                        <path d="M12.5843137,-3.48165941e-13 L12.584,5.45 L19.0797971,9.51939113 L21.1764706,18.7768365 L1.28075328e-12,18.7768365 L2.09667349,9.51939113 L8.584,5.454 L8.58431373,-3.48165941e-13 L12.5843137,-3.48165941e-13 Z" id="Combined-Shape" fill="#006BB8" fill-rule="nonzero"></path>
                        <polygon id="Path-2" fill="#FFFFFF" points="5.88235294 10.2 1.98431373 10.2 0.0543137255 18.6 5.88235294 18.6"></polygon>
                        <polygon id="Path-2" fill="#FFFFFF" transform="translate(18.269314, 14.400000) scale(-1, 1) translate(-18.269314, -14.400000) " points="21.1843137 10.2 17.3361524 10.2 15.3543137 18.6 21.1843137 18.6"></polygon>
                        <polygon id="Path-3" fill-opacity="0.5" fill="#FFFFFF" points="5.88235294 10.2 15.3543137 10.2 15.3543137 18.6 5.88235294 18.6"></polygon>
                    </g>
                    <mask id="mask-2" fill="white">
                        <use xlink:href="#path-1"></use>
                    </mask>
                    <use id="Mask" fill="#B4CDDF" xlink:href="#path-1"></use>
                    <g mask="url(#mask-2)">
                        <g transform="translate(-6.745098, 25.000000)">
                            <rect id="Rectangle" fill="#B5CEE0" x="0" y="0" width="44.7058824" height="14.8"></rect>
                            <rect id="Rectangle-Copy-68" fill="#B5CEE0" x="1.31450406e-13" y="29.6" width="44.7058824" height="14.8"></rect>
                            <rect id="Rectangle-Copy-70" fill="#B5CEE0" x="1.31450406e-13" y="59.2" width="44.7058824" height="14.8"></rect>
                            <rect id="Rectangle-Copy-67" fill="#FFFFFF" x="1.31450406e-13" y="14.8" width="44.7058824" height="14.8"></rect>
                            <rect id="Rectangle-Copy-69" fill="#FFFFFF" x="1.31450406e-13" y="44.4" width="44.7058824" height="14.8"></rect>
                        </g>
                    </g>
                </g>
                <path d="M82.4724473,6.99908295 C82.3206793,16.0104734 78.4282297,24.1414182 72.2328139,30.000163 L48.4724319,7.0003442 Z" id="Combined-Shape" fill="url(#linearGradient-3)" fill-rule="nonzero" opacity="0.3" transform="translate(65.472432, 18.500000) rotate(-30.000000) translate(-65.472432, -18.500000) "></path>
                <path d="M37.4724473,6.99908295 C37.3206793,16.0104734 33.4282297,24.1414182 27.2328139,30.000163 L3.47243186,7.0003442 Z" id="Combined-Shape" fill="url(#linearGradient-4)" fill-rule="nonzero" opacity="0.3" transform="translate(20.472432, 18.500000) scale(-1, 1) rotate(-30.000000) translate(-20.472432, -18.500000) "></path>
                <rect id="Rectangle" fill="#006BB8" x="28.8823529" y="30.8" width="27.4509804" height="6.4"></rect>
                <rect id="Combined-Shape" fill="#006BB8" x="24.6078431" y="110.8" width="36" height="15"></rect>
            </g>
            <g id="Group-2" transform="translate(4.000000, 42.000000)">
                <path d="M0,34.4702809 L3,34.4702809 L3,33.1369476 L0,33.1369476 L0,34.4702809 Z M5,34.4702809 L8,34.4702809 L8,33.1369476 L5,33.1369476 L5,34.4702809 Z M9.70993912,32.7122649 L10.8013207,29.9178264 L9.55934809,29.4327679 L8.46796651,32.2272064 L9.70993912,32.7122649 Z M11.5289084,28.0548675 L12.62029,25.260429 L11.3783174,24.7753705 L10.2869358,27.569809 L11.5289084,28.0548675 Z M12.0412028,23.9836783 L12.7883212,26.8891584 L14.0796457,26.5571058 L13.3325273,23.6516257 L12.0412028,23.9836783 Z M13.2864002,28.826145 L14.0335186,31.7316251 L15.324843,31.3995724 L14.5777246,28.4940924 L13.2864002,28.826145 Z M14.5315975,33.6686117 L15.2787159,36.5740917 L16.5700403,36.2420391 L15.8229219,33.3365591 L14.5315975,33.6686117 Z M15.7767948,38.5110784 L16.5239132,41.4165584 L17.8152376,41.0845058 L17.0681192,38.1790258 L15.7767948,38.5110784 Z M17.0219921,43.3535451 L17.7691105,46.2590251 L19.0604349,45.9269725 L18.3133165,43.0214925 L17.0219921,43.3535451 Z M19.6268757,46.2143389 L20.6118311,43.3806376 L19.3524084,42.9428797 L18.3674529,45.7765809 L19.6268757,46.2143389 Z M21.2684681,41.4915035 L22.2534236,38.6578022 L20.9940008,38.2200443 L20.0090454,41.0537455 L21.2684681,41.4915035 Z M22.9100605,36.7686681 L23.895016,33.9349668 L22.6355933,33.4972089 L21.6506378,36.3309101 L22.9100605,36.7686681 Z M24.551653,32.0458327 L25.5366085,29.2121314 L24.2771857,28.7743735 L23.2922302,31.6080747 L24.551653,32.0458327 Z M26.1932454,27.3229973 L27.1782009,24.489296 L25.9187782,24.0515381 L24.9338227,26.8852393 L26.1932454,27.3229973 Z M27.8348379,22.6001619 L28.8197933,19.7664606 L27.5603706,19.3287027 L26.5754151,22.1624039 L27.8348379,22.6001619 Z M28.1561328,18.4981613 L28.8097639,21.42609 L30.1110655,21.1355873 L29.4574345,18.2076586 L28.1561328,18.4981613 Z M29.2455179,23.3780425 L29.8991489,26.3059712 L31.2004505,26.0154685 L30.5468195,23.0875398 L29.2455179,23.3780425 Z M30.3349029,28.2579237 L30.9885339,31.1858524 L32.2898355,30.8953497 L31.6362045,27.967421 L30.3349029,28.2579237 Z M32.7255895,32.8473022 L31.4242879,33.1378048 L31.72175,34.4702809 L34.4249749,34.4702809 L34.4249749,33.1369476 L32.256,33.1369476 L32.9066508,33.6583629 L32.7255895,32.8473022 Z M36.4249749,34.4702809 L39.4249749,34.4702809 L39.4249749,33.1369476 L36.4249749,33.1369476 L36.4249749,34.4702809 Z M41.4249749,33.1369476 L41.4249749,34.4702809 L42.2170685,34.4702809 L43.7051136,31.8906561 L42.5501607,31.2244267 L41.2545236,33.4704995 L41.832,33.8036142 L41.832,33.1369476 L41.4249749,33.1369476 Z M44.7044577,30.1582268 L46.203474,27.5595829 L45.0485211,26.8933535 L43.5495049,29.4919974 L44.7044577,30.1582268 Z M47.2028181,25.8271536 L47.7801002,24.8263968 L46.607731,24.7941923 L47.4403547,26.4402709 L48.6301404,25.8384504 L47.2411065,23.0923614 L46.0478653,25.1609242 L47.2028181,25.8271536 Z M48.3430854,28.2249494 L49.6971814,30.9019671 L50.886967,30.3001467 L49.532871,27.6231289 L48.3430854,28.2249494 Z M51.7896977,32.0848252 L50.5999121,32.6866456 L51.502115,34.4702809 L53.323054,34.4702809 L53.323054,33.1369476 L51.912,33.1369476 L52.5068928,33.502704 L51.7896977,32.0848252 Z M55.323054,34.4702809 L58.323054,34.4702809 L58.323054,33.1369476 L55.323054,33.1369476 L55.323054,34.4702809 Z M60.323054,34.4702809 L63,34.4702809 L63,33.1369476 L60.323054,33.1369476 L60.323054,34.4702809 Z" id="Path-12-Copy" fill="#14BA5A" fill-rule="nonzero"></path>
                <path d="M51,34.4702809 L54,34.4702809 L54,33.1369476 L51,33.1369476 L51,34.4702809 Z M56,34.4702809 L59,34.4702809 L59,33.1369476 L56,33.1369476 L56,34.4702809 Z M60.7099391,32.7122649 L61.8013207,29.9178264 L60.5593481,29.4327679 L59.4679665,32.2272064 L60.7099391,32.7122649 Z M62.5289084,28.0548675 L63.62029,25.260429 L62.3783174,24.7753705 L61.2869358,27.569809 L62.5289084,28.0548675 Z M63.0412028,23.9836783 L63.7883212,26.8891584 L65.0796457,26.5571058 L64.3325273,23.6516257 L63.0412028,23.9836783 Z M64.2864002,28.826145 L65.0335186,31.7316251 L66.324843,31.3995724 L65.5777246,28.4940924 L64.2864002,28.826145 Z M65.5315975,33.6686117 L66.2787159,36.5740917 L67.5700403,36.2420391 L66.8229219,33.3365591 L65.5315975,33.6686117 Z M66.7767948,38.5110784 L67.5239132,41.4165584 L68.8152376,41.0845058 L68.0681192,38.1790258 L66.7767948,38.5110784 Z M68.0219921,43.3535451 L68.7691105,46.2590251 L70.0604349,45.9269725 L69.3133165,43.0214925 L68.0219921,43.3535451 Z M70.6268757,46.2143389 L71.6118311,43.3806376 L70.3524084,42.9428797 L69.3674529,45.7765809 L70.6268757,46.2143389 Z M72.2684681,41.4915035 L73.2534236,38.6578022 L71.9940008,38.2200443 L71.0090454,41.0537455 L72.2684681,41.4915035 Z M73.9100605,36.7686681 L74.895016,33.9349668 L73.6355933,33.4972089 L72.6506378,36.3309101 L73.9100605,36.7686681 Z M75.551653,32.0458327 L76.5366085,29.2121314 L75.2771857,28.7743735 L74.2922302,31.6080747 L75.551653,32.0458327 Z M77.1932454,27.3229973 L78.1782009,24.489296 L76.9187782,24.0515381 L75.9338227,26.8852393 L77.1932454,27.3229973 Z M78.8348379,22.6001619 L79.8197933,19.7664606 L78.5603706,19.3287027 L77.5754151,22.1624039 L78.8348379,22.6001619 Z M79.1561328,18.4981613 L79.8097639,21.42609 L81.1110655,21.1355873 L80.4574345,18.2076586 L79.1561328,18.4981613 Z M80.2455179,23.3780425 L80.8991489,26.3059712 L82.2004505,26.0154685 L81.5468195,23.0875398 L80.2455179,23.3780425 Z M81.3349029,28.2579237 L81.9885339,31.1858524 L83.2898355,30.8953497 L82.6362045,27.967421 L81.3349029,28.2579237 Z M83.7255895,32.8473022 L82.4242879,33.1378048 L82.72175,34.4702809 L85.4249749,34.4702809 L85.4249749,33.1369476 L83.256,33.1369476 L83.9066508,33.6583629 L83.7255895,32.8473022 Z M87.4249749,34.4702809 L90.4249749,34.4702809 L90.4249749,33.1369476 L87.4249749,33.1369476 L87.4249749,34.4702809 Z M92.4249749,33.1369476 L92.4249749,34.4702809 L93.2170685,34.4702809 L94.7051136,31.8906561 L93.5501607,31.2244267 L92.2545236,33.4704995 L92.832,33.8036142 L92.832,33.1369476 L92.4249749,33.1369476 Z M95.7044577,30.1582268 L97.203474,27.5595829 L96.0485211,26.8933535 L94.5495049,29.4919974 L95.7044577,30.1582268 Z M98.2028181,25.8271536 L98.7801002,24.8263968 L97.607731,24.7941923 L98.4403547,26.4402709 L99.6301404,25.8384504 L98.2411065,23.0923614 L97.0478653,25.1609242 L98.2028181,25.8271536 Z M99.3430854,28.2249494 L100.697181,30.9019671 L101.886967,30.3001467 L100.532871,27.6231289 L99.3430854,28.2249494 Z M102.789698,32.0848252 L101.599912,32.6866456 L102.502115,34.4702809 L104.323054,34.4702809 L104.323054,33.1369476 L102.912,33.1369476 L103.506893,33.502704 L102.789698,32.0848252 Z M106.323054,34.4702809 L109.323054,34.4702809 L109.323054,33.1369476 L106.323054,33.1369476 L106.323054,34.4702809 Z M111.323054,34.4702809 L114,34.4702809 L114,33.1369476 L111.323054,33.1369476 L111.323054,34.4702809 Z" id="Path-12-Copy-2" fill="#14BA5A" fill-rule="nonzero"></path>
                <g id="Group" transform="translate(38.000000, 0.000000)">
                    <polygon id="Rectangle" stroke="#14BA5A" stroke-width="1.12" fill="#FFFFFF" points="2.9096725e-12 -1.17239551e-13 49.6 -1.17239551e-13 49.6 52.5940594 38.2975079 64 2.9096725e-12 64"></polygon>
                    <path d="M17.6837891,19.1816406 C18.5939453,19.1816406 19.2931641,18.9873047 19.7814453,18.5986328 C20.2697266,18.2099609 20.5138672,17.65625 20.5138672,16.9375 C20.5138672,16.3554688 20.3458984,15.8964844 20.0099609,15.5605469 C19.6740234,15.2246094 19.1310547,14.9746094 18.3810547,14.8105469 C18.2833984,14.7910156 18.1505859,14.7636719 17.9826172,14.7285156 C16.9904297,14.5214844 16.4943359,14.2382812 16.4943359,13.8789062 C16.4943359,13.625 16.6027344,13.4169922 16.8195313,13.2548828 C17.0363281,13.0927734 17.3205078,13.0117188 17.6720703,13.0117188 C17.9533203,13.0117188 18.1974609,13.0732422 18.4044922,13.1962891 C18.6115234,13.3193359 18.7755859,13.5019531 18.8966797,13.7441406 C18.9083984,13.7714844 18.9240234,13.8066406 18.9435547,13.8496094 C19.0802734,14.1464844 19.2873047,14.2949219 19.5646484,14.2949219 C19.7833984,14.2949219 19.9386719,14.2490234 20.0304688,14.1572266 C20.1222656,14.0654297 20.1681641,13.9042969 20.1681641,13.6738281 L20.1681641,13.6738281 L20.1681641,13.609375 L20.1447266,12.484375 C20.1369141,12.234375 20.1007813,12.0673828 20.0363281,11.9833984 C19.971875,11.8994141 19.8263672,11.8574219 19.5998047,11.8574219 C19.4474609,11.8574219 19.3341797,11.8808594 19.2599609,11.9277344 C19.1857422,11.9746094 19.1193359,12.0605469 19.0607422,12.1855469 C18.8068359,12.0761719 18.5519531,11.9941406 18.2960938,11.9394531 C18.0402344,11.8847656 17.7794922,11.8574219 17.5138672,11.8574219 C16.7169922,11.8574219 16.0675781,12.0693359 15.565625,12.4931641 C15.0636719,12.9169922 14.8126953,13.4628906 14.8126953,14.1308594 C14.8126953,14.6503906 14.9591797,15.0595703 15.2521484,15.3583984 C15.5451172,15.6572266 16.0705078,15.90625 16.8283203,16.1054688 C16.9845703,16.1484375 17.1974609,16.2011719 17.4669922,16.2636719 C18.3693359,16.4785156 18.8205078,16.7949219 18.8205078,17.2128906 C18.8205078,17.4824219 18.7208984,17.6914062 18.5216797,17.8398438 C18.3224609,17.9882812 18.0431641,18.0625 17.6837891,18.0625 C17.2892578,18.0625 16.95625,17.9882812 16.6847656,17.8398438 C16.4132813,17.6914062 16.2013672,17.4667969 16.0490234,17.1660156 C16.0255859,17.1191406 15.9943359,17.0507812 15.9552734,16.9609375 C15.7833984,16.59375 15.5705078,16.4101562 15.3166016,16.4101562 C15.0783203,16.4101562 14.9113281,16.4609375 14.815625,16.5625 C14.7199219,16.6640625 14.6720703,16.84375 14.6720703,17.1015625 L14.6720703,17.1015625 L14.6720703,17.1660156 L14.6955078,18.5429688 C14.6994141,18.78125 14.7501953,18.9472656 14.8478516,19.0410156 C14.9455078,19.1347656 15.1173828,19.1816406 15.3634766,19.1816406 C15.5080078,19.1816406 15.6212891,19.1591797 15.7033203,19.1142578 C15.7853516,19.0693359 15.8576172,18.9960938 15.9201172,18.8945312 C16.1818359,18.9921875 16.4523438,19.0644531 16.7316406,19.1113281 C17.0109375,19.1582031 17.3283203,19.1816406 17.6837891,19.1816406 Z M27.4748047,19 C27.7208984,19 27.8849609,18.9648438 27.9669922,18.8945312 C28.0490234,18.8242188 28.0900391,18.6835938 28.0900391,18.4726562 L28.0900391,18.4726562 L28.0900391,16.6738281 C28.0900391,16.4082031 28.0392578,16.2177734 27.9376953,16.1025391 C27.8361328,15.9873047 27.6740234,15.9296875 27.4513672,15.9296875 C27.2287109,15.9296875 27.0695313,15.9863281 26.9738281,16.0996094 C26.878125,16.2128906 26.8302734,16.4042969 26.8302734,16.6738281 L26.8302734,16.6738281 L26.8302734,17.7167969 L24.1642578,17.7167969 L24.1642578,13.3457031 L24.6681641,13.3457031 C24.9220703,13.3457031 25.1056641,13.2949219 25.2189453,13.1933594 C25.3322266,13.0917969 25.3888672,12.9277344 25.3888672,12.7011719 C25.3888672,12.4746094 25.33125,12.3095703 25.2160156,12.2060547 C25.1007813,12.1025391 24.9181641,12.0507812 24.6681641,12.0507812 L24.6681641,12.0507812 L22.1720703,12.0507812 C21.9220703,12.0507812 21.7394531,12.1025391 21.6242188,12.2060547 C21.5089844,12.3095703 21.4513672,12.4746094 21.4513672,12.7011719 C21.4513672,12.9277344 21.5060547,13.0917969 21.6154297,13.1933594 C21.7248047,13.2949219 21.9064453,13.3457031 22.1603516,13.3457031 L22.1603516,13.3457031 L22.6759766,13.3457031 L22.6759766,17.7167969 L22.1603516,17.7167969 C21.9025391,17.7167969 21.7199219,17.765625 21.6125,17.8632812 C21.5050781,17.9609375 21.4513672,18.1230469 21.4513672,18.3496094 C21.4513672,18.5800781 21.5060547,18.7460938 21.6154297,18.8476562 C21.7248047,18.9492188 21.9064453,19 22.1603516,19 L22.1603516,19 L27.4748047,19 Z M33.7384766,19 C34.0001953,19 34.1896484,18.9482422 34.3068359,18.8447266 C34.4240234,18.7412109 34.4826172,18.5761719 34.4826172,18.3496094 C34.4826172,18.1269531 34.425,17.9658203 34.3097656,17.8662109 C34.1945313,17.7666016 34.0041016,17.7167969 33.7384766,17.7167969 L33.7384766,17.7167969 L32.7541016,17.7167969 L32.7541016,13.3457031 L33.7384766,13.3457031 C34.0080078,13.3457031 34.1994141,13.2949219 34.3126953,13.1933594 C34.4259766,13.0917969 34.4826172,12.9277344 34.4826172,12.7011719 C34.4826172,12.4707031 34.4279297,12.3066406 34.3185547,12.2089844 C34.2091797,12.1113281 34.0158203,12.0625 33.7384766,12.0625 L33.7384766,12.0625 L30.2580078,12.0625 C29.9884766,12.0625 29.7970703,12.1113281 29.6837891,12.2089844 C29.5705078,12.3066406 29.5138672,12.4707031 29.5138672,12.7011719 C29.5138672,12.9277344 29.5714844,13.0917969 29.6867188,13.1933594 C29.8019531,13.2949219 29.9923828,13.3457031 30.2580078,13.3457031 L30.2580078,13.3457031 L31.2423828,13.3457031 L31.2423828,17.7167969 L30.2580078,17.7167969 C29.9884766,17.7167969 29.7970703,17.765625 29.6837891,17.8632812 C29.5705078,17.9609375 29.5138672,18.1230469 29.5138672,18.3496094 C29.5138672,18.5800781 29.5714844,18.7460938 29.6867188,18.8476562 C29.8019531,18.9492188 29.9923828,19 30.2580078,19 L30.2580078,19 L33.7384766,19 Z M24.7970703,32.5664062 C24.9767578,32.5664062 25.1242188,32.5068359 25.2394531,32.3876953 C25.3546875,32.2685547 25.4123047,32.1171875 25.4123047,31.9335938 L25.4123047,31.9335938 L25.4123047,29.90625 L27.3576172,29.90625 C27.5412109,29.90625 27.6925781,29.8496094 27.8117188,29.7363281 C27.9308594,29.6230469 27.9904297,29.4785156 27.9904297,29.3027344 C27.9904297,29.1269531 27.9308594,28.9833984 27.8117188,28.8720703 C27.6925781,28.7607422 27.5412109,28.7050781 27.3576172,28.7050781 L27.3576172,28.7050781 L25.4123047,28.7050781 L25.4123047,26.6777344 C25.4123047,26.4941406 25.3546875,26.3417969 25.2394531,26.2207031 C25.1242188,26.0996094 24.9767578,26.0390625 24.7970703,26.0390625 C24.6173828,26.0390625 24.4708984,26.0986328 24.3576172,26.2177734 C24.2443359,26.3369141 24.1876953,26.4902344 24.1876953,26.6777344 L24.1876953,26.6777344 L24.1876953,28.7050781 L22.2423828,28.7050781 C22.0666016,28.7050781 21.9171875,28.7636719 21.7941406,28.8808594 C21.6710938,28.9980469 21.6095703,29.1386719 21.6095703,29.3027344 C21.6095703,29.4785156 21.6691406,29.6230469 21.7882813,29.7363281 C21.9074219,29.8496094 22.0587891,29.90625 22.2423828,29.90625 L22.2423828,29.90625 L24.1876953,29.90625 L24.1876953,31.9335938 C24.1876953,32.1054688 24.2472656,32.2539062 24.3664063,32.3789062 C24.4855469,32.5039062 24.6291016,32.5664062 24.7970703,32.5664062 Z M17.6837891,47.1816406 C18.5939453,47.1816406 19.2931641,46.9873047 19.7814453,46.5986328 C20.2697266,46.2099609 20.5138672,45.65625 20.5138672,44.9375 C20.5138672,44.3554688 20.3458984,43.8964844 20.0099609,43.5605469 C19.6740234,43.2246094 19.1310547,42.9746094 18.3810547,42.8105469 C18.2833984,42.7910156 18.1505859,42.7636719 17.9826172,42.7285156 C16.9904297,42.5214844 16.4943359,42.2382812 16.4943359,41.8789062 C16.4943359,41.625 16.6027344,41.4169922 16.8195313,41.2548828 C17.0363281,41.0927734 17.3205078,41.0117188 17.6720703,41.0117188 C17.9533203,41.0117188 18.1974609,41.0732422 18.4044922,41.1962891 C18.6115234,41.3193359 18.7755859,41.5019531 18.8966797,41.7441406 C18.9083984,41.7714844 18.9240234,41.8066406 18.9435547,41.8496094 C19.0802734,42.1464844 19.2873047,42.2949219 19.5646484,42.2949219 C19.7833984,42.2949219 19.9386719,42.2490234 20.0304688,42.1572266 C20.1222656,42.0654297 20.1681641,41.9042969 20.1681641,41.6738281 L20.1681641,41.6738281 L20.1681641,41.609375 L20.1447266,40.484375 C20.1369141,40.234375 20.1007813,40.0673828 20.0363281,39.9833984 C19.971875,39.8994141 19.8263672,39.8574219 19.5998047,39.8574219 C19.4474609,39.8574219 19.3341797,39.8808594 19.2599609,39.9277344 C19.1857422,39.9746094 19.1193359,40.0605469 19.0607422,40.1855469 C18.8068359,40.0761719 18.5519531,39.9941406 18.2960938,39.9394531 C18.0402344,39.8847656 17.7794922,39.8574219 17.5138672,39.8574219 C16.7169922,39.8574219 16.0675781,40.0693359 15.565625,40.4931641 C15.0636719,40.9169922 14.8126953,41.4628906 14.8126953,42.1308594 C14.8126953,42.6503906 14.9591797,43.0595703 15.2521484,43.3583984 C15.5451172,43.6572266 16.0705078,43.90625 16.8283203,44.1054688 C16.9845703,44.1484375 17.1974609,44.2011719 17.4669922,44.2636719 C18.3693359,44.4785156 18.8205078,44.7949219 18.8205078,45.2128906 C18.8205078,45.4824219 18.7208984,45.6914062 18.5216797,45.8398438 C18.3224609,45.9882812 18.0431641,46.0625 17.6837891,46.0625 C17.2892578,46.0625 16.95625,45.9882812 16.6847656,45.8398438 C16.4132813,45.6914062 16.2013672,45.4667969 16.0490234,45.1660156 C16.0255859,45.1191406 15.9943359,45.0507812 15.9552734,44.9609375 C15.7833984,44.59375 15.5705078,44.4101562 15.3166016,44.4101562 C15.0783203,44.4101562 14.9113281,44.4609375 14.815625,44.5625 C14.7199219,44.6640625 14.6720703,44.84375 14.6720703,45.1015625 L14.6720703,45.1015625 L14.6720703,45.1660156 L14.6955078,46.5429688 C14.6994141,46.78125 14.7501953,46.9472656 14.8478516,47.0410156 C14.9455078,47.1347656 15.1173828,47.1816406 15.3634766,47.1816406 C15.5080078,47.1816406 15.6212891,47.1591797 15.7033203,47.1142578 C15.7853516,47.0693359 15.8576172,46.9960938 15.9201172,46.8945312 C16.1818359,46.9921875 16.4523438,47.0644531 16.7316406,47.1113281 C17.0109375,47.1582031 17.3283203,47.1816406 17.6837891,47.1816406 Z M27.4748047,47 C27.7208984,47 27.8849609,46.9648438 27.9669922,46.8945312 C28.0490234,46.8242188 28.0900391,46.6835938 28.0900391,46.4726562 L28.0900391,46.4726562 L28.0900391,44.6738281 C28.0900391,44.4082031 28.0392578,44.2177734 27.9376953,44.1025391 C27.8361328,43.9873047 27.6740234,43.9296875 27.4513672,43.9296875 C27.2287109,43.9296875 27.0695313,43.9863281 26.9738281,44.0996094 C26.878125,44.2128906 26.8302734,44.4042969 26.8302734,44.6738281 L26.8302734,44.6738281 L26.8302734,45.7167969 L24.1642578,45.7167969 L24.1642578,41.3457031 L24.6681641,41.3457031 C24.9220703,41.3457031 25.1056641,41.2949219 25.2189453,41.1933594 C25.3322266,41.0917969 25.3888672,40.9277344 25.3888672,40.7011719 C25.3888672,40.4746094 25.33125,40.3095703 25.2160156,40.2060547 C25.1007813,40.1025391 24.9181641,40.0507812 24.6681641,40.0507812 L24.6681641,40.0507812 L22.1720703,40.0507812 C21.9220703,40.0507812 21.7394531,40.1025391 21.6242188,40.2060547 C21.5089844,40.3095703 21.4513672,40.4746094 21.4513672,40.7011719 C21.4513672,40.9277344 21.5060547,41.0917969 21.6154297,41.1933594 C21.7248047,41.2949219 21.9064453,41.3457031 22.1603516,41.3457031 L22.1603516,41.3457031 L22.6759766,41.3457031 L22.6759766,45.7167969 L22.1603516,45.7167969 C21.9025391,45.7167969 21.7199219,45.765625 21.6125,45.8632812 C21.5050781,45.9609375 21.4513672,46.1230469 21.4513672,46.3496094 C21.4513672,46.5800781 21.5060547,46.7460938 21.6154297,46.8476562 C21.7248047,46.9492188 21.9064453,47 22.1603516,47 L22.1603516,47 L27.4748047,47 Z M31.9982422,47.1816406 C32.9669922,47.1816406 33.7599609,46.8398438 34.3771484,46.15625 C34.9943359,45.4726562 35.3029297,44.59375 35.3029297,43.5195312 C35.3029297,42.453125 34.9923828,41.5761719 34.3712891,40.8886719 C33.7501953,40.2011719 32.9591797,39.8574219 31.9982422,39.8574219 C31.0294922,39.8574219 30.2355469,40.2001953 29.6164063,40.8857422 C28.9972656,41.5712891 28.6876953,42.4492188 28.6876953,43.5195312 C28.6876953,44.5820312 29.0001953,45.4580078 29.6251953,46.1474609 C30.2501953,46.8369141 31.0412109,47.1816406 31.9982422,47.1816406 Z M31.9982422,45.8339844 C31.4982422,45.8339844 31.1037109,45.6289062 30.8146484,45.21875 C30.5255859,44.8085938 30.3810547,44.2421875 30.3810547,43.5195312 C30.3810547,42.796875 30.5246094,42.2324219 30.8117188,41.8261719 C31.0988281,41.4199219 31.4943359,41.2167969 31.9982422,41.2167969 C32.5060547,41.2167969 32.9035156,41.4199219 33.190625,41.8261719 C33.4777344,42.2324219 33.6212891,42.796875 33.6212891,43.5195312 C33.6212891,44.2460938 33.4767578,44.8134766 33.1876953,45.2216797 C32.8986328,45.6298828 32.5021484,45.8339844 31.9982422,45.8339844 Z" id="SLI+SLO" fill="#006BB8" fill-rule="nonzero"></path>
                    <polygon id="Path-9" fill="#14BA5A" points="37.6 64 37.6 52 49.6 52"></polygon>
                </g>
            </g>
        </g>
    </g>
</svg>